<?xml version="1.0" encoding="UTF-8" standalone="no"?>
<svg width="24px" height="24px" viewBox="0 0 24 24" version="1.1" xmlns="http://www.w3.org/2000/svg" xmlns:xlink="http://www.w3.org/1999/xlink">
    <!-- Generator: sketchtool 39.1 (31720) - http://www.bohemiancoding.com/sketch -->
    <title>FC521844-706C-4BF9-B1CE-8622E13CE7F2</title>
    <desc>Created with sketchtool.</desc>
    <defs>
        <rect id="path-1" x="0" y="0" width="24" height="24"></rect>
    </defs>
    <g id="Finals" stroke="none" stroke-width="1" fill="none" fill-rule="evenodd">
        <g id="What-we-do" transform="translate(-1170.000000, -4718.000000)">
            <g id="1470271512_5347_-_Github" transform="translate(1170.000000, 4718.000000)">
                <mask id="mask-2" fill="white">
                    <use xlink:href="#path-1"></use>
                </mask>
                <g id="Mask"></g>
                <g mask="url(#mask-2)" id="Group">
                    <g transform="translate(-6.000000, -7.000000)">
                        <g>
                            <g id="Layer_x0020_1" transform="translate(6.168732, 7.182621)">
                                <ellipse id="Oval" fill="#FFFFFF" cx="11.8277961" cy="11.8277961" rx="11.8102389" ry="11.8102389"></ellipse>
                                <path d="M15.8270674,22.9430597 C14.5780223,23.3925441 13.2316483,23.6380438 11.8277961,23.6380438 C10.9217272,23.6380438 10.0396196,23.5356882 9.19207806,23.3424772 C9.19193275,23.126308 9.18998155,22.9211405 9.18740761,22.6490696 C9.18439776,22.332517 9.18064063,21.9391804 9.177527,21.4882443 C5.78762441,22.1036641 4.99621655,19.7228974 4.96373844,19.6204543 C4.42433294,18.2570135 3.68253857,17.9094081 3.68038039,17.9083694 L3.65254447,17.8928012 C1.94398857,16.7251675 3.85202473,16.7493697 3.85742193,16.7493908 L3.87054072,16.7493908 C5.20685145,16.8434434 5.91855964,18.0755503 5.95734708,18.1444029 C6.36369778,18.8402797 6.86347752,19.1834862 7.36006042,19.3252598 C8.08036969,19.5308842 8.80675981,19.3228727 9.2358118,19.1454984 C9.29534445,18.7936997 9.39338247,18.4894968 9.5157281,18.2318126 C9.59817716,18.0582169 9.69193942,17.9051088 9.79277973,17.772177 C8.49825469,17.5884929 7.20094581,17.2134446 6.18751634,16.3603301 C5.06307782,15.4137426 4.3009565,13.8932241 4.3009565,11.4205293 L4.30176605,11.4205293 C4.30186983,10.7290742 4.42155807,10.0991641 4.63996896,9.52999754 C4.85642817,8.96584857 5.17015826,8.46042207 5.5607954,8.01295 C5.48606815,7.80057867 5.38228003,7.43043017 5.34950315,6.94042725 C5.30944102,6.34113584 5.37480655,5.55921834 5.72938806,4.66272413 L5.73756655,4.64636716 C5.73779489,4.64593125 5.891733,4.51482643 6.10931436,4.50382482 C6.25285301,4.49655967 6.46949975,4.50409467 6.7618906,4.56321231 C7.3312909,4.67833385 8.20352496,4.99409734 9.40764381,5.79799731 C9.88338659,5.67010984 10.3744071,5.57292296 10.8724645,5.50591753 C11.4113515,5.43345286 11.9600787,5.39627597 12.5080782,5.39384732 L12.5097181,5.39384732 C13.0570955,5.39627595 13.6051987,5.4334736 14.1437536,5.50589679 C14.6420395,5.57292296 15.1335169,5.67019297 15.6101314,5.79808026 C18.0306644,4.18164585 19.1461152,4.53815812 19.1494193,4.53911243 L19.2469383,4.56802778 L19.2844888,4.66272379 C19.6404405,5.56040606 19.7064494,6.34157663 19.6667393,6.9396009 C19.6341914,7.42950013 19.5307978,7.79948343 19.456382,8.01204106 C19.8467907,8.45839185 20.1595454,8.96319446 20.3755283,9.52711495 C20.594397,10.0985715 20.7137523,10.7295607 20.7137523,11.4205465 C20.7137523,13.9000955 19.9505168,15.4199057 18.8238533,16.3631066 C17.8096804,17.2121736 16.5108074,17.582345 15.2135284,17.7628937 C15.3652247,17.9612949 15.5015818,18.2054044 15.6080671,18.4960712 C15.7513567,18.8873305 15.8411959,19.363945 15.8411959,19.927347 C15.8411959,20.9326165 15.8337647,21.978547 15.8288659,22.6710794 C15.8281602,22.7688891 15.8275375,22.8571501 15.8270393,22.943066 L15.8270674,22.9430597 Z M5.36387916,18.5818719 C5.45315758,18.591026 5.51881363,18.6636775 5.51057301,18.7441338 C5.5023115,18.8245695 5.42326665,18.8823793 5.33400844,18.8732251 C5.24473002,18.864071 5.17907398,18.7914195 5.1873146,18.710984 C5.19557611,18.6305275 5.27462096,18.5727177 5.36387916,18.5818719 L5.36387916,18.5818719 Z M5.70048453,19.4490813 C5.70872529,19.3686249 5.78777015,19.3108151 5.8770491,19.3199692 C5.9663066,19.3291233 6.03198356,19.4017749 6.02372221,19.4822311 C6.01548145,19.5626876 5.93643659,19.6204974 5.84715764,19.6113432 C5.75790013,19.6021891 5.69224392,19.5295376 5.70048453,19.4490813 L5.70048453,19.4490813 Z M4.5342199,17.4524333 C4.62349832,17.4615874 4.68915436,17.534239 4.68091375,17.6146745 C4.67265223,17.6951309 4.59360739,17.7529407 4.50434918,17.7437866 C4.41507076,17.7346325 4.34941472,17.6619809 4.35765533,17.5815454 C4.36591685,17.501089 4.44496169,17.4432792 4.5342199,17.4524333 L4.5342199,17.4524333 Z M4.96566556,17.9337385 C5.05494398,17.9428926 5.12060003,18.0155442 5.11235941,18.0960004 C5.1040979,18.1764361 5.02505305,18.2342667 4.93579484,18.2251125 C4.84653734,18.2159584 4.78086038,18.1433069 4.78912174,18.0628506 C4.79736249,17.9823942 4.87640736,17.9245844 4.96566521,17.9337385 L4.96566556,17.9337385 Z M6.56869046,19.829156 C6.65796888,19.8383101 6.72362492,19.9109617 6.71538431,19.9914179 C6.70712279,20.0718744 6.62807795,20.1296842 6.53881974,20.12053 C6.44954132,20.1113759 6.38388528,20.0387244 6.39212589,19.9582681 C6.40038741,19.8778324 6.47943225,19.8200019 6.56869046,19.829156 L6.56869046,19.829156 Z M7.56372621,20.1002709 C7.65298372,20.109425 7.71866068,20.1820766 7.71042006,20.2625121 C7.70215855,20.3429685 7.6231137,20.4007783 7.53385549,20.3916241 C7.44457707,20.38247 7.37892103,20.3098185 7.38716165,20.2293623 C7.39542316,20.1489266 7.474468,20.0911168 7.56372621,20.1002709 L7.56372621,20.1002709 Z M8.48330836,20.0255022 C8.57256587,20.0346563 8.63822209,20.1073078 8.62998147,20.1877641 C8.62174071,20.2681998 8.54269585,20.3260096 8.4534169,20.3168554 C8.3641594,20.3077013 8.29848244,20.2350498 8.30674379,20.1546143 C8.31498455,20.0741578 8.39402941,20.016348 8.48330836,20.0255022 L8.48330836,20.0255022 Z" id="Shape" fill="#FC5252"></path>
                            </g>
                            <rect id="Rectangle-path" x="0" y="0.506944444" width="35.9930556" height="35.9930556"></rect>
                        </g>
                    </g>
                </g>
            </g>
        </g>
    </g>
</svg>