<?xml version="1.0" encoding="UTF-8" standalone="no"?>
<svg width="24px" height="24px" viewBox="0 0 24 24" version="1.1" xmlns="http://www.w3.org/2000/svg" xmlns:xlink="http://www.w3.org/1999/xlink">
    <!-- Generator: Sketch 42 (36781) - http://www.bohemiancoding.com/sketch -->
    <title>Github</title>
    <desc>Created with Sketch.</desc>
    <defs>
        <ellipse id="path-1" cx="12.018241" cy="11.9931341" rx="11.355999" ry="11.355999"></ellipse>
    </defs>
    <g id="v1" stroke="none" stroke-width="1" fill="none" fill-rule="evenodd">
        <g id="Contact-2" transform="translate(-698.000000, -700.000000)">
            <g id="Github" transform="translate(698.000000, 700.000000)">
                <mask id="mask-2" fill="white">
                    <use xlink:href="#path-1"></use>
                </mask>
                <use id="Mask" fill="#FFFFFF" xlink:href="#path-1"></use>
                <path d="M15.9365153,23.1770623 C14.7355104,23.6092589 13.44092,23.8453163 12.0910621,23.8453163 C11.219842,23.8453163 10.3716616,23.7468974 9.55671784,23.5611176 C9.55657813,23.3532626 9.55470197,23.1559862 9.55222702,22.8943795 C9.54933294,22.590002 9.54572031,22.2117937 9.54272644,21.7782014 C6.28320471,22.3699511 5.52223562,20.0807524 5.49100667,19.9822494 C4.97234754,18.6712486 4.25908371,18.3370127 4.25700854,18.3360139 L4.23024324,18.3210446 C2.58740102,17.1983198 4.42205118,17.2215911 4.4272408,17.2216114 L4.43985501,17.2216114 C5.72476917,17.3120466 6.40910397,18.4967649 6.44639959,18.5629692 C6.83712142,19.2320816 7.31767886,19.5620878 7.79516242,19.6984086 C8.48776749,19.8961243 9.18621953,19.6961133 9.59876951,19.5255611 C9.65601245,19.1872931 9.75027978,18.8947903 9.86791981,18.647017 C9.94719774,18.4800981 10.0373538,18.3328788 10.1343156,18.2050598 C8.88957998,18.0284404 7.6421676,17.667817 6.66771619,16.8475146 C5.5865253,15.9373344 4.85371634,14.4752973 4.85371634,12.0977061 L4.85449475,12.0977061 C4.85459455,11.4328455 4.96967939,10.8271627 5.17968986,10.2798872 C5.38782372,9.73743624 5.68948727,9.25144921 6.0650999,8.82118761 C5.99324678,8.61698441 5.89345051,8.26107238 5.86193428,7.78991573 C5.823413,7.21367399 5.88626447,6.46183024 6.22720823,5.59981657 L6.23507216,5.58408872 C6.23529171,5.58366958 6.38330913,5.45760725 6.59252198,5.44702878 C6.73053991,5.44004306 6.93885408,5.44728825 7.21999913,5.50413213 C7.76749942,5.61482592 8.60618601,5.91844466 9.7639926,6.69142541 C10.2214376,6.56845668 10.6935727,6.47500776 11.172474,6.41057946 C11.6906347,6.3409019 12.2182569,6.30515489 12.7451795,6.30281964 L12.7467563,6.30281964 C13.2730807,6.30515487 13.8001031,6.34092184 14.3179443,6.41055952 C14.7970654,6.47500776 15.2696398,6.56853661 15.727923,6.69150517 C18.0553586,5.13724131 19.1279074,5.48004157 19.1310844,5.48095917 L19.2248527,5.5087624 L19.260959,5.59981625 C19.6032201,6.46297228 19.6666903,7.21409783 19.6285075,7.78912116 C19.5972114,8.26017812 19.4977946,8.61593129 19.4262409,8.82031362 C19.8016338,9.24949708 20.1023595,9.7348842 20.3100354,10.2771154 C20.5204861,10.8265929 20.6352508,11.4333133 20.6352508,12.0977227 C20.6352508,14.4819044 19.9013704,15.9432604 18.8180402,16.8501843 C17.8428739,17.6665949 16.5939576,18.0225289 15.3465739,18.1961335 C15.4924357,18.3869039 15.6235483,18.6216246 15.7259381,18.9011118 C15.8637165,19.2773227 15.9501004,19.7356059 15.9501004,20.2773386 C15.9501004,21.2439439 15.942955,22.2496462 15.9382447,22.9155428 C15.937566,23.0095906 15.9369673,23.0944569 15.9364882,23.1770683 L15.9365153,23.1770623 Z M5.87575737,18.9836125 C5.961602,18.9924145 6.02473281,19.0622718 6.01680914,19.1396335 C6.00886538,19.2169756 5.93286072,19.2725619 5.84703552,19.2637598 C5.76119088,19.2549578 5.69806007,19.1851006 5.70598374,19.1077587 C5.71392751,19.0303968 5.78993216,18.9748104 5.87575737,18.9836125 L5.87575737,18.9836125 Z M6.19941637,19.8174677 C6.20734018,19.7401058 6.28334485,19.6845194 6.36919,19.6933215 C6.45501452,19.7021235 6.51816544,19.7719808 6.51022183,19.8493425 C6.50229802,19.9267045 6.42629335,19.9822908 6.34044821,19.9734888 C6.25462368,19.9646868 6.1914927,19.8948295 6.19941637,19.8174677 L6.19941637,19.8174677 Z M5.07800807,17.8976139 C5.16385271,17.9064159 5.22698352,17.9762732 5.21905985,18.053615 C5.21111609,18.130977 5.13511143,18.1865633 5.04928623,18.1777612 C4.96344159,18.1689592 4.90031078,18.099102 4.90823445,18.0217601 C4.91617822,17.9443982 4.99218287,17.8888118 5.07800807,17.8976139 L5.07800807,17.8976139 Z M5.49285967,18.3604073 C5.57870431,18.3692094 5.64183512,18.4390666 5.63391145,18.5164284 C5.62596769,18.5937704 5.54996303,18.6493767 5.46413783,18.6405746 C5.3783133,18.6317726 5.31516238,18.5619154 5.32310599,18.4845536 C5.3310298,18.4071916 5.40703447,18.3516053 5.49285934,18.3604073 L5.49285967,18.3604073 Z M7.03422976,20.1829242 C7.1200744,20.1917262 7.18320521,20.2615834 7.17528154,20.3389452 C7.16733778,20.4163072 7.09133312,20.4718935 7.00550792,20.4630915 C6.91966328,20.4542894 6.85653247,20.3844322 6.86445614,20.3070704 C6.87239991,20.2297284 6.94840456,20.1741221 7.03422976,20.1829242 L7.03422976,20.1829242 Z M7.99099491,20.4436116 C8.07681944,20.4524136 8.13997036,20.5222708 8.13204669,20.5996127 C8.12410292,20.6769746 8.04809827,20.732561 7.96227307,20.7237589 C7.87642843,20.7149569 7.81329762,20.6450996 7.82122129,20.5677378 C7.82916505,20.4903958 7.90516971,20.4348095 7.99099491,20.4436116 L7.99099491,20.4436116 Z M8.87520852,20.3717186 C8.96103304,20.3805206 9.02416402,20.4503778 9.01624035,20.5277396 C9.00831654,20.6050816 8.93231187,20.660668 8.84646673,20.6518659 C8.7606422,20.6430639 8.69749128,20.5732066 8.70543489,20.4958648 C8.7133587,20.4185028 8.78936338,20.3629165 8.87520852,20.3717186 L8.87520852,20.3717186 Z" id="Shape" fill="#FC5277" mask="url(#mask-2)"></path>
            </g>
        </g>
    </g>
</svg>