<?xml version="1.0" encoding="UTF-8" standalone="no"?>
<svg width="43px" height="50px" viewBox="0 0 43 50" version="1.1" xmlns="http://www.w3.org/2000/svg" xmlns:xlink="http://www.w3.org/1999/xlink">
    <!-- Generator: sketchtool 39.1 (31720) - http://www.bohemiancoding.com/sketch -->
    <title>F15200E8-9818-40BA-A826-975089603736</title>
    <desc>Created with sketchtool.</desc>
    <defs></defs>
    <g id="Finals" stroke="none" stroke-width="1" fill="none" fill-rule="evenodd">
        <g id="Services-4" transform="translate(-866.000000, -1120.000000)">
            <g id="android_logo" transform="translate(866.000000, 1120.000000)">
                <path d="M21.2704762,3.12761905 L21.272381,3.12761905 L21.272381,3.13380952 C22.3119048,3.13380952 23.3204762,3.22904762 24.2838095,3.40857143 C24.5295238,3.45380952 24.687619,3.48428571 24.76,3.5 C25.1071429,3.5752381 25.4509524,3.66333333 25.792381,3.76285714 L27.42,1.25571429 L27.4209524,1.2547619 L27.4309524,1.23904762 L27.4266667,1.23571429 L27.427619,1.2352381 C27.4814286,1.15428571 27.5409524,1.08047619 27.6052381,1.01238095 C27.9090476,0.666190476 28.3080952,0.44047619 28.7352381,0.34952381 C29.2542857,0.23952381 29.8147619,0.326190476 30.2947619,0.635714286 C30.3033333,0.640952381 30.312381,0.647142857 30.3209524,0.652380952 L30.3228571,0.65 L30.3238095,0.65047619 C30.4047619,0.704285714 30.4790476,0.764285714 30.547619,0.829047619 C30.8928571,1.13285714 31.1180952,1.53190476 31.2090476,1.95809524 C31.3190476,2.47666667 31.232381,3.03714286 30.9228571,3.51761905 C30.9066667,3.54285714 30.89,3.56761905 30.8733333,3.59095238 L29.6457143,5.48142857 L29.6633333,5.49285714 C30.1895238,5.82761905 30.6957143,6.2 31.1747619,6.60619048 C33.6571429,8.71190476 35.2066667,11.6028571 35.2685714,14.82 C35.2733333,15.1219048 35.1971429,15.4066667 35.0604762,15.6528571 C35.1247619,15.7609524 35.177619,15.8761905 35.2161905,15.9980952 C35.9895238,15.3371429 36.997619,14.9366667 38.0990476,14.9366667 L38.0990476,14.93 L38.1,14.93 L38.1,14.9366667 C39.327619,14.9366667 40.4380952,15.4333333 41.2380952,16.2333333 C42.0385714,17.0333333 42.5342857,18.1438095 42.5352381,19.3709524 L42.5419048,19.3709524 L42.5419048,30.4490476 L42.5352381,30.4490476 C42.5352381,31.6766667 42.0385714,32.7866667 41.2380952,33.5871429 C40.4380952,34.3866667 39.327619,34.8833333 38.1009524,34.8833333 L38.1009524,34.89 L38.1,34.89 L38.1,34.8833333 C37.0319048,34.8833333 36.0519048,34.5071429 35.2880952,33.8828571 L35.2880952,36.6842857 L35.2947619,36.6842857 L35.2947619,36.6847619 L35.2880952,36.6847619 C35.2880952,37.767619 34.8509524,38.7461905 34.1461905,39.4504762 C33.442381,40.1552381 32.4638095,40.5919048 31.3809524,40.5919048 L31.3809524,40.5990476 L30.73,40.5990476 L30.73,45.082381 L30.7238095,45.082381 C30.7238095,46.31 30.2261905,47.4204762 29.4261905,48.2204762 C28.6261905,49.0209524 27.5157143,49.517619 26.2890476,49.517619 L26.2890476,49.5238095 L26.2880952,49.5238095 L26.2880952,49.517619 C25.0604762,49.517619 23.95,49.0209524 23.15,48.2204762 C22.35,47.42 21.8533333,46.31 21.8528571,45.0828571 L21.8461905,45.0828571 L21.8461905,40.5990476 L20.6947619,40.5990476 L20.6947619,45.082381 L20.6885714,45.082381 C20.6880952,46.31 20.1914286,47.4204762 19.3919048,48.2204762 C18.5914286,49.0209524 17.4814286,49.517619 16.2542857,49.517619 L16.2542857,49.5238095 L16.2533333,49.5238095 L16.2533333,49.517619 C15.0257143,49.517619 13.9152381,49.0209524 13.1147619,48.2204762 C12.3152381,47.42 11.8185714,46.31 11.8180952,45.0828571 L11.8119048,45.0828571 L11.8119048,40.5919048 L11.1609524,40.5919048 L11.1609524,40.5990476 L11.1604762,40.5919048 C10.0785714,40.5919048 9.09952381,40.1552381 8.3952381,39.4504762 C7.69047619,38.7461905 7.25333333,37.767619 7.25285714,36.6847619 L7.24666667,36.6847619 L7.24666667,36.6842857 L7.25285714,36.6842857 L7.25285714,33.882381 C6.48952381,34.5071429 5.51047619,34.8833333 4.44238095,34.8833333 L4.44238095,34.89 L4.44190476,34.89 L4.44190476,34.8833333 C3.21428571,34.8833333 2.10333333,34.3866667 1.30333333,33.5866667 C0.503809524,32.7866667 0.00714285714,31.6766667 0.00666666667,30.4495238 L0,30.4495238 L0,19.3714286 L0.00666666667,19.3714286 C0.00666666667,18.1438095 0.503809524,17.0333333 1.30380952,16.2333333 C2.10380952,15.4333333 3.21428571,14.9366667 4.44142857,14.9366667 L4.44142857,14.93 L4.44238095,14.93 L4.44238095,14.9366667 C5.54666667,14.9366667 6.55666667,15.3390476 7.33047619,16.0028571 C7.36857143,15.8842857 7.41904762,15.7709524 7.48095238,15.6657143 C7.3447619,15.4233333 7.26666667,15.1438095 7.26666667,14.8461905 C7.26666667,14.7819048 7.27047619,14.7190476 7.27761905,14.6566667 C7.29761905,14.0733333 7.36666667,13.5038095 7.48047619,12.9504762 C7.60380952,12.3514286 7.78095238,11.7652381 8.00809524,11.1957143 C8.92761905,8.88952381 10.6533333,6.90571429 12.897619,5.48380952 L11.6371429,3.54238095 L11.6328571,3.5452381 L11.632381,3.5447619 C11.5857143,3.4747619 11.5452381,3.40285714 11.5104762,3.32952381 C11.29,2.8947619 11.2366667,2.41047619 11.3328571,1.95809524 C11.4428571,1.44 11.7471429,0.964285714 12.22,0.650952381 L12.2190476,0.65 L12.22,0.649047619 C12.2890476,0.602857143 12.36,0.563333333 12.432381,0.529047619 C12.867619,0.307142857 13.3528571,0.253333333 13.8066667,0.34952381 C14.3285714,0.46047619 14.8071429,0.768571429 15.1204762,1.24761905 L15.1214286,1.24857143 C15.1419048,1.28047619 15.1609524,1.31238095 15.1790476,1.3447619 L16.7480952,3.76095238 C16.832381,3.73619048 16.9138095,3.71285714 16.9909524,3.69190476 C18.3247619,3.33 19.7628571,3.13380952 21.2704762,3.13380952 L21.2704762,3.12761905" id="Fill-1" fill="#8CD8FD"></path>
                <path d="M26.6014286,8.54904762 C27.3847619,8.54904762 28.02,9.18428571 28.02,9.96761905 C28.02,10.7509524 27.3847619,11.3861905 26.6014286,11.3861905 C25.8185714,11.3861905 25.1833333,10.7509524 25.1833333,9.96761905 C25.1833333,9.18428571 25.8185714,8.54904762 26.6014286,8.54904762 L26.6014286,8.54904762 Z M15.94,8.54904762 C16.7233333,8.54904762 17.3585714,9.18428571 17.3585714,9.96761905 C17.3585714,10.7509524 16.7233333,11.3861905 15.94,11.3861905 C15.1566667,11.3861905 14.5214286,10.7509524 14.5214286,9.96761905 C14.5214286,9.18428571 15.1566667,8.54904762 15.94,8.54904762 L15.94,8.54904762 Z M38.1,16.602381 L38.1,16.602381 C39.6233333,16.602381 40.8695238,17.8485714 40.8695238,19.3714286 L40.8695238,30.4485714 C40.8695238,31.9719048 39.6233333,33.217619 38.1,33.217619 C36.5766667,33.217619 35.33,31.9719048 35.33,30.4485714 L35.33,19.3714286 C35.33,17.8485714 36.5766667,16.602381 38.1,16.602381 L38.1,16.602381 Z M4.44190476,16.602381 L4.44190476,16.602381 C5.9647619,16.602381 7.21095238,17.8485714 7.21095238,19.3714286 L7.21095238,30.4485714 C7.21095238,31.9719048 5.9647619,33.217619 4.44190476,33.217619 C2.91857143,33.217619 1.67285714,31.9719048 1.67285714,30.4485714 L1.67285714,19.3714286 C1.67285714,17.8485714 2.91857143,16.602381 4.44190476,16.602381 L4.44190476,16.602381 Z M19.0228571,38.9261905 L19.0228571,45.0819048 C19.0228571,46.6052381 17.7766667,47.8519048 16.2533333,47.8519048 C14.7304762,47.8519048 13.4842857,46.6052381 13.4842857,45.0819048 L13.4842857,38.9261905 L11.1609524,38.9261905 C9.92809524,38.9261905 8.91904762,37.9171429 8.91904762,36.6842857 L8.91904762,16.5066667 L33.622381,16.5066667 L33.622381,36.6842857 C33.622381,37.9171429 32.6133333,38.9261905 31.38,38.9261905 L29.0571429,38.9261905 L29.0571429,45.0819048 C29.0571429,46.6052381 27.8114286,47.8519048 26.2880952,47.8519048 C24.7652381,47.8519048 23.5195238,46.6052381 23.5195238,45.0819048 L23.5195238,38.9261905 L19.0228571,38.9261905 L19.0228571,38.9261905 Z M21.2704762,4.79952381 C23.1352381,4.79952381 24.9014286,5.14238095 26.4861905,5.75571429 L28.8190476,2.16333333 C28.9433333,1.97047619 29.2019048,1.91571429 29.3947619,2.04095238 C29.5880952,2.16619048 29.6428571,2.4247619 29.5171429,2.61761905 L27.2652381,6.08619048 C30.9914286,7.80571429 33.5295238,11.0780952 33.6019048,14.8461905 L8.93904762,14.8461905 C9.01190476,11.0780952 11.5504762,7.80571429 15.2766667,6.08619048 L13.0242857,2.61761905 C12.8990476,2.4247619 12.9538095,2.16619048 13.1466667,2.04095238 C13.34,1.91571429 13.5980952,1.97047619 13.7233333,2.16333333 L16.0557143,5.75571429 C17.64,5.14285714 19.4066667,4.79952381 21.2704762,4.79952381 L21.2704762,4.79952381 Z" id="Fill-3" fill="#FFFFFF"></path>
            </g>
        </g>
    </g>
</svg>