<?xml version="1.0" encoding="UTF-8" standalone="no"?>
<svg width="48px" height="50px" viewBox="0 0 48 50" version="1.1" xmlns="http://www.w3.org/2000/svg" xmlns:xlink="http://www.w3.org/1999/xlink">
    <!-- Generator: sketchtool 39.1 (31720) - http://www.bohemiancoding.com/sketch -->
    <title>2955A25D-BD57-4BF3-9AF6-0D767DE87017</title>
    <desc>Created with sketchtool.</desc>
    <defs></defs>
    <g id="Finals" stroke="none" stroke-width="1" fill="none" fill-rule="evenodd">
        <g id="Services-4" transform="translate(-396.000000, -1263.000000)">
            <g id="angular-icon" transform="translate(396.000000, 1263.000000)">
                <g id="Group">
                    <polygon id="Shape" fill="#FFFFFF" points="23.6307474 0.0632069204 0.157267687 8.32401863 3.86668441 39.0780839 23.6557285 49.9545354 43.5466844 38.9307519 47.2546817 8.17782213"></polygon>
                    <polygon id="Shape" fill="#FFFFFF" points="44.9132669 9.95517409 23.5759593 2.67884676 23.5759593 47.3559281 41.4576359 37.4594189"></polygon>
                    <polygon id="Shape" fill="#FFFFFF" points="2.7913595 10.0863251 5.96992681 37.5908539 23.5756754 47.3559281 23.5756754 2.67799513"></polygon>
                    <path d="M29.449368,26.4626037 L23.5759593,29.2091107 L17.3854602,29.2091107 L14.4754402,36.4877091 L9.06276337,36.5879174 L23.5759593,4.30120204 L29.449368,26.4626037 L29.449368,26.4626037 L29.449368,26.4626037 Z M28.8816146,25.0798404 L23.6148504,14.6533333 L19.2948148,24.9004302 L23.5756754,24.9004302 L28.8816146,25.0798404 L28.8816146,25.0798404 L28.8816146,25.0798404 Z" id="Shape" fill="#8CD8FD"></path>
                    <polygon id="Shape" fill="#8CD8FD" points="23.5756754 4.30120204 23.6145665 14.6533333 28.5165491 24.9083789 23.5867465 24.9083789 23.5756754 29.2025815 30.3924063 29.2091107 33.5783544 36.589053 38.7574007 36.6850033"></polygon>
                </g>
            </g>
        </g>
    </g>
</svg>