<?xml version="1.0" encoding="UTF-8" standalone="no"?>
<svg width="41px" height="50px" viewBox="0 0 41 50" version="1.1" xmlns="http://www.w3.org/2000/svg" xmlns:xlink="http://www.w3.org/1999/xlink">
    <!-- Generator: sketchtool 39.1 (31720) - http://www.bohemiancoding.com/sketch -->
    <title>838A7238-482D-4BED-81A6-B02CA0C7C433</title>
    <desc>Created with sketchtool.</desc>
    <defs></defs>
    <g id="Finals" stroke="none" stroke-width="1" fill="none" fill-rule="evenodd">
        <g id="Services-4" transform="translate(-400.000000, -1120.000000)" fill="#FFFFFF">
            <g id="apple" transform="translate(400.000000, 1120.000000)">
                <path d="M22.4802135,4.37142857 C25.7640394,0.0433497537 30.3292282,0.0222495895 30.3292282,0.0222495895 C30.3292282,0.0222495895 31.0082102,4.09137931 27.7460591,8.01124795 C24.2628079,12.196798 20.3036125,11.5118227 20.3036125,11.5118227 C20.3036125,11.5118227 19.5601806,8.22011494 22.4802135,4.37142857" id="Fill-1"></path>
                <path d="M20.7212644,14.3623153 C22.4106732,14.3623153 25.5458128,12.0401478 29.6268473,12.0401478 C36.6517241,12.0401478 39.4151888,17.0387521 39.4151888,17.0387521 C39.4151888,17.0387521 34.0101806,19.8022167 34.0101806,26.5075534 C34.0101806,34.0719212 40.7432677,36.6787356 40.7432677,36.6787356 C40.7432677,36.6787356 36.0365353,49.9265189 29.6791461,49.9265189 C26.7591133,49.9265189 24.4890805,47.9587028 21.4124795,47.9587028 C18.2772578,47.9587028 15.1658456,50 13.139491,50 C7.33415435,50 0,37.4331691 0,27.3316913 C0,17.3930213 6.20788177,12.1793924 12.030624,12.1793924 C15.8159278,12.1793924 18.7533662,14.3623153 20.7212644,14.3623153" id="Fill-2"></path>
            </g>
        </g>
    </g>
</svg>