<?xml version="1.0" encoding="UTF-8" standalone="no"?>
<svg width="76px" height="50px" viewBox="0 0 76 50" version="1.1" xmlns="http://www.w3.org/2000/svg" xmlns:xlink="http://www.w3.org/1999/xlink">
    <!-- Generator: sketchtool 39.1 (31720) - http://www.bohemiancoding.com/sketch -->
    <title>4912BA1D-C15D-468E-B1EA-5E710A97EAC1</title>
    <desc>Created with sketchtool.</desc>
    <defs></defs>
    <g id="Finals" stroke="none" stroke-width="1" fill="none" fill-rule="evenodd">
        <g id="Services-4" transform="translate(-530.000000, -1752.000000)" fill="#FFFFFF">
            <g id="asana-seeklogo.com" transform="translate(530.000000, 1752.000000)">
                <g id="Group">
                    <path d="M7.11259775,47.228142 C4.61669695,47.228142 2.59338254,45.1603604 2.59338254,42.6090648 C2.59338254,40.0582021 4.61669695,37.9900959 7.11259775,37.9900959 C9.60860672,37.9900959 11.6314884,40.0582021 11.6314884,42.6090648 C11.6314884,45.1603604 9.60860672,47.228142 7.11259775,47.228142 L7.11259775,47.228142 L7.11259775,47.228142 Z M11.6459862,47.8141145 C11.6459862,48.236932 12.3706619,49.4252142 13.258817,49.4252142 L13.8340783,49.4252142 C14.0570638,49.4252142 14.2395851,49.2424763 14.2395851,49.0195991 L14.2395851,36.3794287 L14.2372049,36.3794287 C14.2256283,36.1666136 14.0493821,35.9959935 13.8340783,35.9959935 L12.0517094,35.9959935 C11.8361892,35.9959935 11.6601595,36.1666136 11.6480419,36.3794287 L11.6459862,36.3794287 L11.6459862,37.4066118 C10.5538876,36.06145 8.83221485,35.5033914 7.10556521,35.5033914 C3.18108607,35.5033914 0,38.6844775 0,42.6090648 C0,46.5336521 3.18108607,49.715279 7.10556521,49.715279 C8.83221485,49.715279 10.7137967,49.0454571 11.6457698,47.8122751 L11.6459862,47.8141145 L11.6459862,47.8141145 Z M18.4978392,46.0038317 C19.6876359,46.8278284 20.9863829,47.228142 22.2342791,47.228142 C23.4234267,47.228142 24.6524975,46.6116592 24.6524975,45.5390352 C24.6524975,44.1066701 21.9740754,43.8836846 20.291352,43.3118855 C18.6081959,42.7399781 17.1584117,41.5574302 17.1584117,39.6427414 C17.1584117,36.7130956 19.768997,35.5029586 22.2053917,35.5029586 C23.7493036,35.5029586 25.3421187,36.0121142 26.3748194,36.741442 C26.7306657,37.010734 26.5138472,37.320274 26.5138472,37.320274 L25.5281022,38.7281873 C25.4173127,38.8866899 25.1876193,39.0133837 24.9455919,38.8519601 C24.2815042,38.4130216 23.5417897,37.9899876 22.2053917,37.9899876 C20.551123,37.9899876 19.823418,38.6766876 19.823418,39.527408 C19.823418,40.5479911 20.9872484,40.8688911 22.3504783,41.2168391 C24.726285,41.856908 27.3176119,42.6268083 27.3176119,45.5390352 C27.3176119,48.1203003 24.9029639,49.7157118 22.2342791,49.7157118 C20.2121549,49.7157118 18.4902657,49.1390441 17.0462158,48.0794033 C16.7455478,47.7784107 16.9555501,47.4988405 16.9555501,47.4988405 L17.9365347,46.098284 C18.1360423,45.8361328 18.3876989,45.9276639 18.4978392,46.0038317 L18.4978392,46.0038317 Z M40.6841891,47.8141145 C40.6841891,48.236932 41.4088645,49.4252142 42.2970198,49.4252142 L42.8720648,49.4252142 C43.0952666,49.4252142 43.2778962,49.2424763 43.2778962,49.0195991 L43.2778962,36.3794287 L43.2755157,36.3794287 C43.2636145,36.1666136 43.0875849,35.9959935 42.8720648,35.9959935 L41.0898038,35.9959935 C40.8741754,35.9959935 40.6981459,36.1666136 40.6863527,36.3794287 L40.6841891,36.3794287 L40.6841891,37.4066118 C39.5921985,36.06145 37.8703095,35.5033914 36.1440926,35.5033914 C32.219505,35.5033914 29.0379863,38.6844775 29.0379863,42.6090648 C29.0379863,46.5336521 32.219505,49.715279 36.1440926,49.715279 C37.8703095,49.715279 39.7519994,49.0454571 40.6839725,47.8122751 L40.6841891,47.8141145 L40.6841891,47.8141145 Z M36.1508003,47.228142 C33.6547914,47.228142 31.6315852,45.1603604 31.6315852,42.6090648 C31.6315852,40.0582021 33.6547914,37.9900959 36.1508003,37.9900959 C38.6465929,37.9900959 40.6697994,40.0582021 40.6697994,42.6090648 C40.6697994,45.1603604 38.6465929,47.228142 36.1508003,47.228142 L36.1508003,47.228142 Z M59.2465109,48.2485086 L59.2457536,41.7080346 L59.2459701,41.7080346 C59.2459701,38.0209308 56.919824,35.5336852 53.2104322,35.5336852 C51.4399645,35.5336852 49.9912621,36.5575142 49.4786444,37.4369056 L49.4786444,37.4246799 L49.4756151,37.4347417 C49.4745331,36.5446393 48.7526704,36.0263956 47.8627843,36.0263956 L47.2905524,36.0263956 C47.0672423,36.0263956 46.8848293,36.2091334 46.8848293,36.4322269 L46.8848293,47.8457068 L46.8848293,47.8476541 L46.8848293,49.0731544 L46.8872095,49.0731544 C46.8986778,49.2859698 47.0751402,49.4568065 47.2905524,49.4568065 L49.072813,49.4568065 C49.1000778,49.4568065 49.1269095,49.4535607 49.1528757,49.448692 C49.1647769,49.4462036 49.1754882,49.4415512 49.1869565,49.4381973 C49.2004808,49.4343024 49.214221,49.4310565 49.2266633,49.425755 C49.242784,49.4192636 49.2570654,49.4102834 49.2718879,49.4020609 C49.2790287,49.3977331 49.2867104,49.3945956 49.2937429,49.3902678 C49.3111618,49.3786911 49.3277154,49.3648426 49.3435115,49.3506692 C49.3461083,49.3479645 49.3492459,49.3462334 49.3517343,49.343745 C49.3695861,49.3267586 49.3855985,49.3081494 49.3999882,49.288242 L49.4002047,49.2880254 C49.4447802,49.2266802 49.4718284,49.1530009 49.4762642,49.0731544 L49.4786444,49.0731544 L49.4786444,41.6065497 C49.4786444,39.6262962 51.0840098,38.0209308 53.0643719,38.0209308 C55.0447337,38.0209308 56.6502074,39.6262962 56.6502074,41.6065497 L56.6516139,47.8478707 L56.6521547,47.8457068 C56.6521547,47.8511163 56.6531284,47.8569589 56.6531284,47.8626929 L56.6531284,49.0731544 L56.6555089,49.0731544 C56.6673018,49.2859698 56.8433317,49.4568065 57.0589598,49.4568065 L58.8412207,49.4568065 C58.8687015,49.4568065 58.8951006,49.4535607 58.9210669,49.448692 C58.9316698,49.4463118 58.9414071,49.4420923 58.9514692,49.4396038 C58.9663997,49.435276 58.9813305,49.4314893 58.9952873,49.425755 C59.0096769,49.4195882 59.0230929,49.4113654 59.0367251,49.4036837 C59.0451642,49.3990314 59.0540361,49.3954609 59.0620423,49.3902678 C59.0788121,49.379124 59.0937426,49.3661408 59.1085651,49.353374 C59.1123518,49.3500201 59.1165713,49.3470988 59.1201417,49.3436367 C59.1371281,49.3274077 59.1518423,49.3097722 59.1657991,49.2913796 C59.1666648,49.2897565 59.1678547,49.2886749 59.169045,49.2873763 C59.2129713,49.2266802 59.239695,49.1535417 59.2444553,49.0742364 C59.2444553,49.0738038 59.2446719,49.0731544 59.2446719,49.0731544 L59.2467275,49.0731544 L59.2467275,48.2488331 L59.2465109,48.2485086 L59.2465109,48.2485086 Z M73.1462624,47.8141145 C73.1462624,48.236932 73.8700725,49.4252142 74.7583358,49.4252142 L75.3339219,49.4252142 C75.5567991,49.4252142 75.739645,49.2424763 75.739645,49.0195991 L75.739645,36.3794287 L75.7374811,36.3794287 C75.7255799,36.1666136 75.5492254,35.9959935 75.3339219,35.9959935 L73.5519855,35.9959935 C73.3356,35.9959935 73.1603275,36.1666136 73.1484263,36.3794287 L73.1462624,36.3794287 L73.1462624,37.4066118 C72.0535148,36.06145 70.3321666,35.5033914 68.6054086,35.5033914 C64.6812541,35.5033914 61.4997352,38.6844775 61.4997352,42.6090648 C61.4997352,46.5336521 64.6812541,49.715279 68.6054086,49.715279 C70.3321666,49.715279 72.2136402,49.0454571 73.1451805,47.8122751 L73.1462624,47.8141145 L73.1462624,47.8141145 Z M68.6129822,47.228142 C66.1169731,47.228142 64.0937669,45.1603604 64.0937669,42.6090648 C64.0937669,40.0582021 66.1169731,37.9900959 68.6129822,37.9900959 C71.1079092,37.9900959 73.1311154,40.0582021 73.1311154,42.6090648 C73.1311154,45.1603604 71.1079092,47.228142 68.6129822,47.228142 L68.6129822,47.228142 Z" id="Shape"></path>
                    <path d="M46.0747166,14.011186 C42.6352074,14.011186 39.8474266,16.7990749 39.8474266,20.2382598 C39.8474266,23.6776608 42.6352074,26.4657657 46.0747166,26.4657657 C49.5137935,26.4657657 52.3017902,23.6776608 52.3017902,20.2382598 C52.3017902,16.7990749 49.5137935,14.011186 46.0747166,14.011186 L46.0747166,14.011186 L46.0747166,14.011186 Z M29.8958207,14.0116182 C26.456744,14.0116182 23.6686391,16.7990749 23.6686391,20.2385839 C23.6686391,23.6776608 26.456744,26.4657657 29.8958207,26.4657657 C33.3351139,26.4657657 36.1233269,23.6776608 36.1233269,20.2385839 C36.1233269,16.7990749 33.3351139,14.0116182 29.8958207,14.0116182 L29.8958207,14.0116182 L29.8958207,14.0116182 Z M44.2122343,6.22707376 C44.2122343,9.6662587 41.4244536,12.4547958 37.9853766,12.4547958 C34.5459757,12.4547958 31.758087,9.6662587 31.758087,6.22707376 C31.758087,2.78810491 34.5459757,0 37.9853766,0 C41.4244536,0 44.2122343,2.78810491 44.2122343,6.22707376 L44.2122343,6.22707376 L44.2122343,6.22707376 Z" id="Shape"></path>
                </g>
            </g>
        </g>
    </g>
</svg>