<?xml version="1.0" encoding="UTF-8" standalone="no"?>
<svg width="50px" height="50px" viewBox="0 0 50 50" version="1.1" xmlns="http://www.w3.org/2000/svg" xmlns:xlink="http://www.w3.org/1999/xlink">
    <!-- Generator: sketchtool 39.1 (31720) - http://www.bohemiancoding.com/sketch -->
    <title>8D16BFBD-3E71-48B4-B3BC-A00AD0AACC1A</title>
    <desc>Created with sketchtool.</desc>
    <defs></defs>
    <g id="Finals" stroke="none" stroke-width="1" fill="none" fill-rule="evenodd">
        <g id="Services-4" transform="translate(-240.000000, -1263.000000)">
            <g id="connect-iq-logo-white-1color" transform="translate(240.000000, 1263.000000)">
                <g id="Layer_1">
                    <ellipse id="Oval-164" fill="#FFFFFF" cx="25" cy="25" rx="25" ry="25"></ellipse>
                    <path d="M14.4698795,16.2650602 L14.4698795,33.4939759 C14.4698795,33.6144578 14.3493976,33.7349398 14.2289157,33.7349398 L12.2409639,33.7349398 C12.1204819,33.7349398 12,33.6144578 12,33.4939759 L12,16.2650602 C12,16.1445783 12.1204819,16.0240964 12.2409639,16.0240964 L14.2289157,16.0240964 C14.3493976,16.0240964 14.4698795,16.0843373 14.4698795,16.2650602 L14.4698795,16.2650602 Z M31.4578313,26.686747 L30.0722892,28.0722892 C29.9518072,28.1927711 29.9518072,28.313253 30.0722892,28.4337349 L36.3975904,34.7590361 C36.5180723,34.8795181 36.6385542,34.8795181 36.7590361,34.7590361 L38.1445783,33.373494 C38.2650602,33.253012 38.2650602,33.1325301 38.1445783,33.0120482 L31.8192771,26.686747 C31.7590361,26.5662651 31.5783133,26.5662651 31.4578313,26.686747 L31.4578313,26.686747 Z M30.0722892,31.5662651 C29.4096386,31.746988 28.746988,31.8674699 28.0240964,31.8674699 C23.9879518,31.8674699 20.7349398,28.6746988 20.7349398,24.6987952 C20.7349398,20.7228916 23.9879518,17.5301205 28.0240964,17.5301205 C32.060241,17.5301205 35.313253,20.7228916 35.313253,24.6987952 C35.313253,25.4216867 35.1927711,26.1445783 35.0120482,26.8072289 C34.9518072,26.9879518 35.0120482,27.1686747 35.1325301,27.2891566 L36.3373494,28.4939759 C36.5783133,28.7349398 37,28.6746988 37.1204819,28.373494 C37.6024096,27.2289157 37.8433735,26.0240964 37.8433735,24.6987952 C37.8433735,19.3373494 33.4457831,15 28.0240964,15 C22.6024096,15 18.2048193,19.3373494 18.2048193,24.6987952 C18.2048193,30.060241 22.6024096,34.3975904 28.0240964,34.3975904 C29.2891566,34.3975904 30.4939759,34.1566265 31.5783133,33.7349398 C31.8795181,33.6144578 32,33.1927711 31.7590361,32.9518072 L30.5542169,31.686747 C30.4337349,31.5662651 30.253012,31.5060241 30.0722892,31.5662651 Z M38.9277108,18.4337349 L39.2891566,18.4337349 L39.2891566,16.2650602 L40.0722892,16.2650602 L40.0722892,15.9638554 L38.1445783,15.9638554 L38.1445783,16.2650602 L38.9277108,16.2650602 L38.9277108,18.4337349 L38.9277108,18.4337349 Z M40.6144578,18.4337349 L40.9759036,18.4337349 L40.9759036,16.3253012 L40.9759036,16.3253012 L41.7590361,18.4337349 L42,18.4337349 L42.8433735,16.3253012 L42.8433735,16.3253012 L42.8433735,18.4337349 L43.2048193,18.4337349 L43.2048193,15.9638554 L42.6024096,15.9638554 L41.8795181,17.8313253 L41.1566265,15.9638554 L40.5542169,15.9638554 L40.5542169,18.4337349 L40.6144578,18.4337349 Z" id="IQ_tm_4_" fill="#8CD8FD"></path>
                </g>
            </g>
        </g>
    </g>
</svg>