<?xml version="1.0" encoding="UTF-8" standalone="no"?>
<svg width="36px" height="50px" viewBox="0 0 36 50" version="1.1" xmlns="http://www.w3.org/2000/svg" xmlns:xlink="http://www.w3.org/1999/xlink">
    <!-- Generator: sketchtool 39.1 (31720) - http://www.bohemiancoding.com/sketch -->
    <title>E02AB19A-DB5B-42E5-8736-68C6072F6482</title>
    <desc>Created with sketchtool.</desc>
    <defs></defs>
    <g id="Finals" stroke="none" stroke-width="1" fill="none" fill-rule="evenodd">
        <g id="Services-4" transform="translate(-869.000000, -1263.000000)">
            <g id="css-3" transform="translate(869.000000, 1263.000000)">
                <g id="Group">
                    <polygon id="Shape" fill="#FFFFFF" points="17.7069069 49.873672 3.27724575 45.8679006 0.0616602234 9.80134547 35.3954035 9.80134547 32.1764086 45.8622508 17.7069069 49.873672"></polygon>
                    <polygon id="Shape" fill="#FFFFFF" points="29.420596 43.5660162 32.1714407 12.7503211 17.7285319 12.7503211 17.7285319 46.8075127 29.420596 43.5660162"></polygon>
                    <polygon id="Shape" fill="#8CD8FD" points="7.43332014 26.1268881 7.82977687 30.5502542 17.7285319 30.5502542 17.7285319 26.1268881 7.43332014 26.1268881"></polygon>
                    <polygon id="Shape" fill="#8CD8FD" points="6.63670512 17.1737846 7.03881161 21.5972482 17.7285319 21.5972482 17.7285319 17.1737846 6.63670512 17.1737846"></polygon>
                    <polygon id="Shape" fill="#8CD8FD" points="17.7285319 37.6149767 17.7091474 37.6201395 12.7827585 36.2899151 12.4678335 32.7620346 8.02742078 32.7620346 8.64714011 39.7074305 17.7081733 42.2228364 17.7285319 42.2171867 17.7285319 37.6149767"></polygon>
                    <polygon id="Shape" fill="#FFFFFF" points="8.37721835 0 13.7347417 0 13.7347417 2.24041886 10.6176372 2.24041886 10.6176372 4.48083773 13.7347417 4.48083773 13.7347417 6.72125658 8.37721835 6.72125658 8.37721835 0"></polygon>
                    <polygon id="Shape" fill="#FFFFFF" points="14.8062464 0 20.1637698 0 20.1637698 1.94819032 17.0466652 1.94819032 17.0466652 2.33782838 20.1637698 2.33782838 20.1637698 6.81866609 14.8062464 6.81866609 14.8062464 4.77306627 17.9233508 4.77306627 17.9233508 4.3834282 14.8062464 4.3834282 14.8062464 0"></polygon>
                    <polygon id="Shape" fill="#FFFFFF" points="21.2352744 0 26.5927978 0 26.5927978 1.94819032 23.4756932 1.94819032 23.4756932 2.33782838 26.5927978 2.33782838 26.5927978 6.81866609 21.2352744 6.81866609 21.2352744 4.77306627 24.3523789 4.77306627 24.3523789 4.3834282 21.2352744 4.3834282 21.2352744 0"></polygon>
                    <polygon id="Shape" fill="#8CD8FD" points="27.9953974 26.1268881 28.7939607 17.1737846 17.7132385 17.1737846 17.7132385 21.5972482 23.9462787 21.5972482 23.5437825 26.1268881 17.7132385 26.1268881 17.7132385 30.5502542 23.1601838 30.5502542 22.6467384 36.2870902 17.7132385 37.6186783 17.7132385 42.2206935 26.7814801 39.7074305 26.8480107 38.9601047 27.8874676 27.3146997 27.9953974 26.1268881"></polygon>
                </g>
            </g>
        </g>
    </g>
</svg>