<?xml version="1.0" encoding="UTF-8" standalone="no"?>
<svg width="50px" height="50px" viewBox="0 0 50 50" version="1.1" xmlns="http://www.w3.org/2000/svg" xmlns:xlink="http://www.w3.org/1999/xlink">
    <!-- Generator: sketchtool 39.1 (31720) - http://www.bohemiancoding.com/sketch -->
    <title>39D19A8C-93C8-429D-BD7F-7D990CA7E477</title>
    <desc>Created with sketchtool.</desc>
    <defs></defs>
    <g id="Finals" stroke="none" stroke-width="1" fill="none" fill-rule="evenodd">
        <g id="Services-4" transform="translate(-1073.000000, -1752.000000)">
            <g id="google-analytics-1" transform="translate(1073.000000, 1752.000000)">
                <g id="Group">
                    <path d="M24.9958334,30.3489584 L50,5.45520834 L50,4.025 C50,1.80208333 48.1979166,0 45.975,0 L4.025,0 C1.80208333,0 0,1.80208333 0,4.025 L0,33.38125 L13.8802083,19.58125 L24.9958334,30.3489584" id="Shape" fill="#FFFFFF"></path>
                    <path d="M13.884375,30.8260416 L0,44.68125 L0,45.975 C0,48.1979166 1.80208333,50 4.025,50 L45.975,50 C48.1979166,50 50,48.1979166 50,45.975 L50,16.9135417 L24.9958334,41.8072916 L13.884375,30.8260416" id="Shape" fill="#FFFFFF"></path>
                    <polyline id="Shape" fill="#8CD8FD" points="0 33.38125 13.8802083 19.58125 24.9958334 30.3489584 50 5.45520834 49.9958334 16.9166667 24.9958334 41.8072916 13.884375 30.8260416 0 44.68125 0 33.38125"></polyline>
                    <polyline id="Shape" fill="#FFFFFF" points="18.44375 37.321875 18.4447917 25.9708334 12.884375 31.8260416 18.44375 37.321875"></polyline>
                </g>
            </g>
        </g>
    </g>
</svg>