<?xml version="1.0" encoding="UTF-8" standalone="no"?>
<svg width="28px" height="24px" viewBox="0 0 28 24" version="1.1" xmlns="http://www.w3.org/2000/svg" xmlns:xlink="http://www.w3.org/1999/xlink">
    <!-- Generator: sketchtool 39.1 (31720) - http://www.bohemiancoding.com/sketch -->
    <title>CA637758-6489-4E9D-B160-98DE4EF0C94C</title>
    <desc>Created with sketchtool.</desc>
    <defs>
        <polygon id="path-1" points="0.0701832669 23.8030279 27.7953466 23.8030279 27.7953466 0.0523027888 0.0701832669 0.0523027888 0.0701832669 23.8030279"></polygon>
    </defs>
    <g id="Finals" stroke="none" stroke-width="1" fill="none" fill-rule="evenodd">
        <g id="Services-4" transform="translate(-1070.000000, -2442.000000)">
            <g id="Group-3" transform="translate(0.000000, 2046.000000)">
                <g id="Group-4" transform="translate(1070.000000, 396.000000)">
                    <path d="M27.5928287,4.4656255 L18.8101673,0.0742948207 C18.7702948,0.054310757 18.7268845,0.0450358566 18.6834741,0.0438884462 C18.6806056,0.0437928287 18.6778327,0.0429322709 18.6749641,0.0429322709 C18.5681594,0.0429322709 18.4618327,0.0965737052 18.4042709,0.189992032 L12.9909801,8.98670916 L19.0338167,18.8064382 L27.6770677,4.76117928 C27.7411315,4.65695618 27.7022151,4.52031873 27.5928287,4.4656255" id="Fill-47" fill="#FFFFFF"></path>
                    <g id="Group-52" transform="translate(0.000000, 0.095618)">
                        <mask id="mask-2" fill="white">
                            <use xlink:href="#path-1"></use>
                        </mask>
                        <g id="Clip-49"></g>
                        <polyline id="Fill-48" fill="#FFFFFF" mask="url(#mask-2)" points="10.1290518 5.79910757 10.1290518 15.2774821 18.5542948 19.4901036 10.1290518 5.79910757"></polyline>
                        <path d="M19.2903586,19.852494 L27.0276335,23.7210837 C27.4498805,23.9322072 27.7953466,23.7186932 27.7953466,23.2465339 L27.7953466,6.03193625 L19.2903586,19.852494" id="Fill-50" fill="#FFFFFF" mask="url(#mask-2)"></path>
                        <path d="M9.19831076,4.41475697 L0.582023904,0.106613546 C0.508302789,0.0697051793 0.438023904,0.0523027888 0.374533865,0.0523027888 C0.284079681,0.0523027888 0.207585657,0.08787251 0.153752988,0.152796813 C0.101067729,0.216286853 0.0701832669,0.308079681 0.0701832669,0.422916335 L0.0701832669,18.9178327 C0.0701832669,19.2326056 0.300525896,19.6052271 0.582023904,19.7459761 L8.54447809,23.7272032 C8.65510757,23.7825657 8.76047809,23.8087649 8.85571315,23.8087649 C9.12401594,23.8087649 9.31219124,23.6011793 9.31219124,23.252749 L9.31219124,4.59910757 C9.31219124,4.52108367 9.26811155,4.44965737 9.19831076,4.41475697" id="Fill-51" fill="#FFFFFF" mask="url(#mask-2)"></path>
                    </g>
                </g>
            </g>
        </g>
    </g>
</svg>