<?xml version="1.0" encoding="UTF-8" standalone="no"?>
<svg width="41px" height="50px" viewBox="0 0 41 50" version="1.1" xmlns="http://www.w3.org/2000/svg" xmlns:xlink="http://www.w3.org/1999/xlink">
    <!-- Generator: sketchtool 39.1 (31720) - http://www.bohemiancoding.com/sketch -->
    <title>1458CAC4-C4AE-4B00-82C4-2883D020738B</title>
    <desc>Created with sketchtool.</desc>
    <defs></defs>
    <g id="Finals" stroke="none" stroke-width="1" fill="none" fill-rule="evenodd">
        <g id="Services-4" transform="translate(-241.000000, -1752.000000)">
            <g id="heroku" transform="translate(241.000000, 1752.000000)">
                <g id="Group">
                    <g id="Shape">
                        <path d="M35.476031,49.8825143 L4.75741137,49.8825143 C2.12983096,49.8825143 0,47.7528635 0,45.1254892 L0,4.7572311 C0,2.12983096 2.12983096,0 4.75741137,0 L35.476031,0 C38.1032252,0 40.2338544,2.12983096 40.2338544,4.7572311 L40.2338544,45.1254892 C40.2338544,47.7528635 38.1032252,49.8825143 35.476031,49.8825143 L35.476031,49.8825143 L35.476031,49.8825143 L35.476031,49.8825143 Z" fill="#FFFFFF"></path>
                        <path d="M25.213966,43.0189903 L25.213966,23.2090876 C25.213966,23.2090876 26.5024027,18.46857 9.34222769,25.1483995 C9.31083508,25.2331003 9.31083508,6.83014844 9.31083508,6.83014844 L14.9177014,6.79574275 L14.9177014,18.586698 C14.9177014,18.586698 30.616819,12.4034074 30.616819,23.2759159 L30.616819,43.0190418 L25.213966,43.0190418 L25.213966,43.0189903 L25.213966,43.0189903 L25.213966,43.0189903 Z M28.4089314,13.931834 L22.4616393,13.931834 C24.6023379,11.3145032 26.5402335,6.83009693 26.5402335,6.83009693 L32.6895046,6.83009693 C32.6895046,6.83012269 31.6368602,9.75244349 28.4089314,13.931834 L28.4089314,13.931834 L28.4089314,13.931834 L28.4089314,13.931834 Z M9.41263575,42.9845846 L9.41263575,31.7034569 L15.0537018,37.344523 L9.41263575,42.9845846 L9.41263575,42.9845846 L9.41263575,42.9845846 Z" fill="#8CD8FD"></path>
                    </g>
                </g>
            </g>
        </g>
    </g>
</svg>