<?xml version="1.0" encoding="UTF-8" standalone="no"?>
<svg width="36px" height="50px" viewBox="0 0 36 50" version="1.1" xmlns="http://www.w3.org/2000/svg" xmlns:xlink="http://www.w3.org/1999/xlink">
    <!-- Generator: sketchtool 39.1 (31720) - http://www.bohemiancoding.com/sketch -->
    <title>41F58856-B9CF-4965-9C9B-D9D86F983D6C</title>
    <desc>Created with sketchtool.</desc>
    <defs></defs>
    <g id="Finals" stroke="none" stroke-width="1" fill="none" fill-rule="evenodd">
        <g id="Services-4" transform="translate(-559.000000, -1263.000000)">
            <g id="html5-2" transform="translate(559.000000, 1263.000000)">
                <g id="Layer_1">
                    <g id="Group">
                        <polygon id="Shape" fill="#FFFFFF" points="3.28554688 45.984082 0.0619140625 9.82617188 35.4850586 9.82617188 32.2579102 45.978418 17.7517578 50"></polygon>
                        <polygon id="Shape" fill="#FFFFFF" points="17.7734375 46.9259766 29.4951172 43.6763672 32.2529297 12.7826172 17.7734375 12.7826172"></polygon>
                        <g transform="translate(6.640625, 17.187500)" id="Shape" fill="#8CD8FD">
                            <polygon points="11.1328125 9.00556641 5.26464844 9.00556641 4.859375 4.46445313 11.1328125 4.46445313 11.1328125 0.0297851562 11.1175781 0.0297851562 0.012890625 0.0297851562 0.119042969 1.21953125 1.20898437 13.4401367 11.1328125 13.4401367"></polygon>
                            <polygon points="11.1328125 20.5227539 11.1134766 20.5279297 6.17451172 19.1943359 5.85878906 15.6575195 3.45888672 15.6575195 1.40712891 15.6575195 2.02841797 22.6205078 11.1124023 25.1422852 11.1328125 25.1366211"></polygon>
                        </g>
                        <g transform="translate(3.320312, 0.000000)" id="Shape" fill="#FFFFFF">
                            <polygon points="0.0373046875 0 2.29091797 0 2.29091797 2.2265625 4.35244141 2.2265625 4.35244141 0 6.60615234 0 6.60615234 6.74257812 4.35253906 6.74257812 4.35253906 4.48476562 2.29101562 4.48476562 2.29101562 6.74257812 0.0375 6.74257812 0.0375 0"></polygon>
                            <polygon points="9.56972656 2.2359375 7.58583984 2.2359375 7.58583984 0 13.8084961 0 13.8084961 2.2359375 11.8236328 2.2359375 11.8236328 6.74257813 9.56992188 6.74257813 9.56972656 2.2359375"></polygon>
                            <polygon points="14.7959961 0 17.1458008 0 18.5913086 2.36914062 20.0354492 0 22.3862305 0 22.3862305 6.74257812 20.1418945 6.74257812 20.1418945 3.40058594 18.5914062 5.79794922 18.5527344 5.79794922 17.0010742 3.40058594 17.0010742 6.74257813 14.7960937 6.74257813 14.7960937 0"></polygon>
                            <polygon points="23.5078125 0 25.7621094 0 25.7621094 4.51386719 28.9313477 4.51386719 28.9313477 6.74257812 23.5078125 6.74257812"></polygon>
                        </g>
                        <g transform="translate(17.675781, 17.187500)" id="Shape" fill="#8CD8FD">
                            <polygon points="0.082421875 9.00556641 0.082421875 13.4401367 5.54306641 13.4401367 5.02832031 19.1915039 0.082421875 20.5264648 0.082421875 25.1401367 9.17353516 22.6205078 9.24023438 21.8712891 10.2823242 10.1963867 10.3905273 9.00556641 9.19550781 9.00556641"></polygon>
                            <polygon points="0.082421875 0.0297851562 0.082421875 2.78408203 0.082421875 4.45361328 0.082421875 4.46445312 10.7797852 4.46445312 10.7797852 4.46445312 10.794043 4.46445312 10.8830078 3.46767578 11.0850586 1.21953125 11.1911133 0.0297851562"></polygon>
                        </g>
                    </g>
                </g>
            </g>
        </g>
    </g>
</svg>