<?xml version="1.0" encoding="UTF-8" standalone="no"?>
<svg width="50px" height="50px" viewBox="0 0 50 50" version="1.1" xmlns="http://www.w3.org/2000/svg" xmlns:xlink="http://www.w3.org/1999/xlink">
    <!-- Generator: sketchtool 39.1 (31720) - http://www.bohemiancoding.com/sketch -->
    <title>CFD9F606-8955-4E15-AB3A-D1595FC344BB</title>
    <desc>Created with sketchtool.</desc>
    <defs></defs>
    <g id="Finals" stroke="none" stroke-width="1" fill="none" fill-rule="evenodd">
        <g id="Services-4" transform="translate(-236.000000, -1609.000000)">
            <g id="intercom" transform="translate(236.000000, 1609.000000)">
                <g id="Group">
                    <path d="M8.52680316,50 L41.4614754,50 C46.1770336,50 50,46.1775129 50,41.4621092 L50,8.53007709 C50,3.93817512 46.3746668,0.193029158 41.8301029,0 L8.15816096,6.66240518e-14 C3.76324479,0.186665906 0.228285557,3.69511598 -2.2095798e-16,8.0788151 L1.51823888e-14,41.9133711 C0.234634721,46.4189914 3.96243385,50 8.52680316,50 L8.52680316,50 Z" id="Shape" fill="#FFFFFF"></path>
                    <path d="M8.15816096,1.66572494e-14 C3.76324479,0.186679763 0.228285557,3.69539029 0,8.07941484 L8.70547328e-15,30.9418811 C0.386259279,31.1872064 10.2868458,37.3831758 24.9535047,37.3831758 C39.9163867,37.3831758 50,30.9343986 50,30.9343986 L50,8.53071033 C50,3.93846746 46.3746668,0.193043488 41.8301029,0 L8.15816096,1.94334577e-13 L8.15816096,1.66572494e-14 L8.15816096,1.66572494e-14 Z" id="Shape" fill="#FFFFFF"></path>
                    <path d="M29.8578125,31.2191406 C29.8578125,32.0947266 29.1478516,32.8044922 28.2722656,32.8044922 C27.3966797,32.8044922 26.6869141,32.0947266 26.6869141,31.2191406 L26.6869141,6.21914062 C26.6869141,5.34355469 27.3966797,4.63378906 28.2722656,4.63378906 C29.1478516,4.63378906 29.8578125,5.34355469 29.8578125,6.21914062 L29.8578125,31.2191406" id="Shape" fill="#8CD8FD"></path>
                    <path d="M23.2318359,31.2191406 C23.2318359,32.0947266 22.521875,32.8044922 21.6462891,32.8044922 C20.7708984,32.8044922 20.0609375,32.0947266 20.0609375,31.2191406 L20.0609375,6.21914062 C20.0609375,5.34355469 20.7708984,4.63378906 21.6462891,4.63378906 C22.521875,4.63378906 23.2318359,5.34355469 23.2318359,6.21914062 L23.2318359,31.2191406" id="Shape" fill="#8CD8FD"></path>
                    <path d="M16.6056641,28.7800781 C16.6056641,29.6556641 15.8958984,30.3654297 15.0203125,30.3654297 C14.1447266,30.3654297 13.4349609,29.6556641 13.4349609,28.7800781 L13.4349609,8.78027344 C13.4349609,7.9046875 14.1447266,7.19472656 15.0203125,7.19472656 C15.8958984,7.19472656 16.6056641,7.9046875 16.6056641,8.78027344 L16.6056641,28.7800781" id="Shape" fill="#8CD8FD"></path>
                    <path d="M36.4837891,28.7191406 C36.4837891,29.5947266 35.7740234,30.3044922 34.8984375,30.3044922 C34.0228516,30.3044922 33.3130859,29.5947266 33.3130859,28.7191406 L33.3130859,8.71914063 C33.3130859,7.84355469 34.0228516,7.13378906 34.8984375,7.13378906 C35.7740234,7.13378906 36.4837891,7.84355469 36.4837891,8.71914063 L36.4837891,28.7191406" id="Shape" fill="#8CD8FD"></path>
                    <path d="M43.1097656,24.5728516 C43.1097656,25.4484375 42.4,26.1582031 41.5244141,26.1582031 C40.6488281,26.1582031 39.9390625,25.4484375 39.9390625,24.5728516 L39.9390625,12.865625 C39.9390625,11.9900391 40.6488281,11.2800781 41.5244141,11.2800781 C42.4,11.2800781 43.1097656,11.9900391 43.1097656,12.865625 L43.1097656,24.5728516" id="Shape" fill="#8CD8FD"></path>
                    <path d="M9.9796875,24.5728516 C9.9796875,25.4484375 9.26992188,26.1582031 8.39433594,26.1582031 C7.51875,26.1582031 6.80898438,25.4484375 6.80898438,24.5728516 L6.80898438,12.865625 C6.80898438,11.9900391 7.51875,11.2800781 8.39433594,11.2800781 C9.26992188,11.2800781 9.9796875,11.9900391 9.9796875,12.865625 L9.9796875,24.5728516" id="Shape" fill="#8CD8FD"></path>
                    <path d="M24.959375,45.2029297 C17.1984375,45.2029297 9.64492188,41.9576172 9.32714844,41.8193359 C8.52421875,41.4703125 8.15625,40.5363281 8.50546875,39.7333984 C8.85449219,38.9306641 9.78808594,38.5625 10.590625,38.9113281 C10.6626953,38.9423828 17.8724609,42.0322266 24.959375,42.0322266 C32.0441406,42.0322266 39.2128906,38.94375 39.2845703,38.9125 C40.0865234,38.5628906 41.0212891,38.9292969 41.3712891,39.7314453 C41.7212891,40.5335938 41.3556641,41.4675781 40.5537109,41.8181641 C40.2376953,41.95625 32.7216797,45.2029297 24.959375,45.2029297" id="Shape" fill="#8CD8FD"></path>
                </g>
            </g>
        </g>
    </g>
</svg>