<?xml version="1.0" encoding="UTF-8" standalone="no"?>
<svg width="36px" height="50px" viewBox="0 0 36 50" version="1.1" xmlns="http://www.w3.org/2000/svg" xmlns:xlink="http://www.w3.org/1999/xlink">
    <!-- Generator: sketchtool 39.1 (31720) - http://www.bohemiancoding.com/sketch -->
    <title>4F88A4E1-ABC6-414E-A5AC-C131B2FA07CB</title>
    <desc>Created with sketchtool.</desc>
    <defs>
        <polygon id="path-1" points="35.329386 20.3458333 35.329386 40.3245614 0.0263157895 40.3245614 0.0263157895 0.367105263 35.329386 0.367105263"></polygon>
    </defs>
    <g id="Finals" stroke="none" stroke-width="1" fill="none" fill-rule="evenodd">
        <g id="Services-4" transform="translate(-559.000000, -1120.000000)">
            <g id="javascript-seeklogo.com-copy" transform="translate(559.000000, 1120.000000)">
                <g id="Group-3" transform="translate(0.000000, 9.649123)">
                    <mask id="mask-2" fill="white">
                        <use xlink:href="#path-1"></use>
                    </mask>
                    <g id="Clip-2"></g>
                    <polyline id="Fill-1" fill="#FFFFFF" mask="url(#mask-2)" points="35.329386 0.367105263 0 0.367105263 3.31052632 36.2815789 17.6644737 40.3508772 32.0135965 36.2815789 35.329386 0.367105263"></polyline>
                </g>
                <polyline id="Fill-4" fill="#FFFFFF" points="17.6644737 12.9416667 17.6644737 46.9587719 29.2881579 43.6635965 32.1188596 12.9416667 17.6644737 12.9416667"></polyline>
                <polyline id="Fill-5" fill="#8CD8FD" points="26.9122807 17.3486842 9.03377193 17.3486842 7.79122807 30.7960526 7.81754386 30.7118421 23.004386 30.7118421 22.5087719 36.3995614 17.6644737 37.7964912 12.7464912 36.3789474 12.4513158 32.9364035 7.98596491 32.9364035 8.62412281 39.8153509 17.6644737 42.3828947 26.7052632 39.8153509 27.9495614 26.3153509 11.8342105 26.3153509 12.0399123 21.8135965 23.225 21.8135965 23.3894737 24.3903509 27.8947368 24.3903509 26.9122807 17.3486842"></polyline>
                <path d="M12.4513158,32.9364035 L7.98596491,32.9364035 L8.62412281,39.8153509 L17.6644737,42.377193 L17.6644737,37.7964912 L12.7464912,36.3789474 L12.4513158,32.9364035 L12.4513158,32.9364035 Z M17.6644737,17.3486842 L9.03377193,17.3486842 L7.79122807,30.7960526 L7.81754386,30.7118421 L17.6644737,30.7118421 L17.6644737,26.3153509 L12.4561404,26.3153509 L12.6614035,21.8135965 L17.6644737,21.8135965 L17.6644737,17.3486842 L17.6644737,17.3486842 Z" id="Fill-6" fill="#8CD8FD"></path>
                <polyline id="Fill-7" fill="#FFFFFF" points="14.2267544 4.71842105 11.0850877 4.71842105 11.0850877 6.9745614 16.4780702 6.9745614 16.4780702 0.269298246 14.2267544 0.269298246 14.2267544 4.71842105"></polyline>
                <path d="M24.2442982,0.303508772 L18.7644737,0.303508772 L18.7644737,2.65131579 C19.4969298,3.38464912 19.8798246,3.73552632 20.9403509,4.79605263 C20.3201754,4.79605263 18.7644737,4.79824561 18.7644737,4.79824561 L18.7644737,6.94035088 L24.2442982,6.94035088 L24.2442982,4.79780702 L22.0557018,2.65131579 L24.2442982,2.65131579 L24.2442982,0.303508772" id="Fill-8" fill="#FFFFFF"></path>
            </g>
        </g>
    </g>
</svg>