<?xml version="1.0" encoding="UTF-8" standalone="no"?>
<svg width="37px" height="50px" viewBox="0 0 37 50" version="1.1" xmlns="http://www.w3.org/2000/svg" xmlns:xlink="http://www.w3.org/1999/xlink">
    <!-- Generator: sketchtool 39.1 (31720) - http://www.bohemiancoding.com/sketch -->
    <title>3C933595-30F0-4C87-8AEA-2890A4058E79</title>
    <desc>Created with sketchtool.</desc>
    <defs>
        <polygon id="path-1" points="18.3741294 0.193532338 0.0149253731 0.193532338 0.0149253731 49.9999241 36.7333333 49.9999241 36.7333333 0.193532338 18.3741294 0.193532338"></polygon>
    </defs>
    <g id="Finals" stroke="none" stroke-width="1" fill="none" fill-rule="evenodd">
        <g id="Services-4" transform="translate(-1013.000000, -1120.000000)">
            <g id="java-copy" transform="translate(1013.000000, 1120.000000)">
                <path d="M11.8303483,38.7114428 C11.8303483,38.7114428 9.92711443,39.818408 13.1850746,40.1927861 C17.131592,40.6432836 19.1487562,40.578607 23.4982587,39.7557214 C23.4982587,39.7557214 24.6415423,40.4721393 26.2385572,41.0932836 C16.4885572,45.2721393 4.1721393,40.8514925 11.8303483,38.7114428" id="Fill-1" fill="#FFFFFF"></path>
                <path d="M10.638806,33.2584577 C10.638806,33.2584577 8.50422886,34.838806 11.7644279,35.1758706 C15.980597,35.6109453 19.310199,35.6462687 25.071393,34.5370647 C25.071393,34.5370647 25.868408,35.3450249 27.121393,35.7868159 C15.3325871,39.2338308 2.20248756,36.0587065 10.638806,33.2584577" id="Fill-2" fill="#FFFFFF"></path>
                <g id="Group-10">
                    <mask id="mask-2" fill="white">
                        <use xlink:href="#path-1"></use>
                    </mask>
                    <g id="Clip-4"></g>
                    <path d="M20.6828358,24.0084577 C23.0853234,26.7743781 20.0517413,29.2634328 20.0517413,29.2634328 C20.0517413,29.2634328 26.15199,26.1144279 23.3504975,22.1708955 C20.7338308,18.4932836 18.7273632,16.6661692 29.5900498,10.3664179 C29.5900498,10.3664179 12.5393035,14.6248756 20.6828358,24.0084577" id="Fill-3" fill="#FFFFFF" mask="url(#mask-2)"></path>
                    <path d="M33.5783582,42.7447761 C33.5783582,42.7447761 34.9865672,43.9054726 32.0271144,44.8032338 C26.3992537,46.5079602 8.60323383,47.0228856 3.65945274,44.8711443 C1.88233831,44.0982587 5.21492537,43.0251244 6.26318408,42.8 C7.35646766,42.5629353 7.98134328,42.6072139 7.98134328,42.6072139 C6.00497512,41.2151741 -4.79303483,45.3410448 2.49651741,46.5226368 C22.3761194,49.7465174 38.7348259,45.0708955 33.5783582,42.7447761" id="Fill-5" fill="#FFFFFF" mask="url(#mask-2)"></path>
                    <path d="M12.7457711,27.6087065 C12.7457711,27.6087065 3.69328358,29.7587065 9.54004975,30.5393035 C12.0087065,30.8699005 16.929602,30.7952736 21.5136816,30.411194 C25.2599502,30.0950249 29.0216418,29.4231343 29.0216418,29.4231343 C29.0216418,29.4231343 27.7004975,29.988806 26.7447761,30.6412935 C17.5524876,33.059204 -0.205223881,31.9343284 4.90671642,29.4614428 C9.23034826,27.3716418 12.7457711,27.6087065 12.7457711,27.6087065" id="Fill-6" fill="#FFFFFF" mask="url(#mask-2)"></path>
                    <path d="M28.9840796,36.6853234 C38.3288557,31.829602 34.0084577,27.1631841 30.9925373,27.7920398 C30.2534826,27.9457711 29.9238806,28.0791045 29.9238806,28.0791045 C29.9238806,28.0791045 30.1982587,27.6492537 30.7223881,27.4631841 C36.6880597,25.3656716 41.2761194,33.6492537 28.7965174,36.9300995 C28.7965174,36.9303483 28.9412935,36.800995 28.9840796,36.6853234" id="Fill-7" fill="#FFFFFF" mask="url(#mask-2)"></path>
                    <path d="M23.3504975,0.193532338 C23.3504975,0.193532338 28.5256219,5.37039801 18.441791,13.3308458 C10.3562189,19.7166667 16.59801,23.3577114 18.438806,27.5176617 C13.7186567,23.2589552 10.2549751,19.510199 12.5788557,16.021393 C15.9895522,10.8997512 25.4383085,8.41666667 23.3504975,0.193532338" id="Fill-8" fill="#FFFFFF" mask="url(#mask-2)"></path>
                    <path d="M13.6636816,49.8432836 C22.6333333,50.4176617 36.4069652,49.5246269 36.7333333,45.2808458 C36.7333333,45.2808458 36.1062189,46.8893035 29.320398,48.1671642 C21.6646766,49.6079602 12.2228856,49.4395522 6.62238806,48.5164179 C6.62263682,48.5164179 7.76865672,49.4654229 13.6636816,49.8432836" id="Fill-9" fill="#FFFFFF" mask="url(#mask-2)"></path>
                </g>
            </g>
        </g>
    </g>
</svg>