<?xml version="1.0" encoding="UTF-8" standalone="no"?>
<svg width="47px" height="50px" viewBox="0 0 47 50" version="1.1" xmlns="http://www.w3.org/2000/svg" xmlns:xlink="http://www.w3.org/1999/xlink">
    <!-- Generator: sketchtool 39.1 (31720) - http://www.bohemiancoding.com/sketch -->
    <title>5A0D9DC4-9DF5-4715-BD3C-D517AECABF57</title>
    <desc>Created with sketchtool.</desc>
    <defs></defs>
    <g id="Finals" stroke="none" stroke-width="1" fill="none" fill-rule="evenodd">
        <g id="Services-4" transform="translate(-387.000000, -1752.000000)">
            <g id="mailchimp-freddie-icon-wink" transform="translate(387.000000, 1752.000000)">
                <g id="Group">
                    <g id="Shape">
                        <path d="M4.74,36.2 L4.74,36.25 L4.74,36.2 Z" fill="#664F44"></path>
                        <path d="M3.5,34.29 L3.5,34.24 L3.5,34.29 Z" fill="#664F44"></path>
                        <path d="M46.38,33.92 C46.36,33.84 46.34,33.76 46.34,33.68 C46.32,33.64 46.32,33.58 46.3,33.54 C46.26,33.44 46.22,33.32 46.18,33.22 C46.08,33.02 45.94,32.82 45.76,32.66 C45.58,32.5 45.38,32.38 45.18,32.32 C44.98,32.24 44.78,32.2 44.6,32.2 L44.46,32.2 C44.56,31.22 44.2,30.52 43.98,30.2 C44,30.18 44,30.16 44.02,30.16 C44.22,29.9 44.4,29.66 44.54,29.42 L44.56,29.38 C44.68,29.16 44.74,28.96 44.78,28.76 C44.8,28.6 44.82,28.44 44.82,28.32 L44.82,28.3 L44.82,28.26 L44.82,28.22 L44.82,28.2 L44.82,28.12 C44.82,28.06 44.8,28 44.8,27.94 C44.76,27.64 44.64,27.26 44.4,26.88 C44.28,26.68 44.12,26.48 43.92,26.32 C43.72,26.14 43.48,26 43.2,25.88 C43.18,25.88 43.16,25.86 43.14,25.86 C42.52,25.14 41.84,24.62 41.24,24.22 C40.94,24.02 40.64,23.86 40.4,23.72 C40.16,23.58 39.96,23.48 39.84,23.42 C39.58,23.28 39.4,23.2 39.3,23.16 C39.1,23.06 38.94,23 38.84,22.94 C38.76,22.9 38.72,22.86 38.72,22.86 C38.72,22.86 38.7,22.84 38.7,22.8 C38.68,22.74 38.66,22.66 38.64,22.54 C38.6,22.34 38.58,22.04 38.56,21.64 C38.52,21 38.48,20.14 38.4,18.96 C38.38,18.58 38.34,18.24 38.28,17.9 C38.2,17.38 38.06,16.9 37.9,16.48 C37.86,16.38 37.82,16.28 37.78,16.2 C37.74,16.14 37.72,16.08 37.7,16.04 C37.66,15.98 37.64,15.92 37.6,15.86 C37.58,15.84 37.56,15.8 37.54,15.74 C37.48,15.66 37.42,15.56 37.36,15.46 L37.34,15.44 L37.3,15.4 L37.28,15.36 C37.16,15.2 37.02,15.06 36.88,14.92 C36.78,14.66 36.64,14.28 36.4,13.84 C36.2,13.46 35.94,13.04 35.6,12.64 C35.48,12.5 35.34,12.36 35.2,12.24 L35.24,12.2 C35.3,12.14 36.5,10.5 37.36,8.46 C38.96,4.66 38.02,2.58 36.94,1.5 L36.9,1.46 L36.86,1.44 C35.82,0.44 34.52,0 33,0 C29.84,0 26.5,1.98 25.62,2.52 L23.7,0.88 C23.54,0.74 23.34,0.6 23.16,0.5 C22.96,0.4 22.76,0.3 22.54,0.24 C22.12,0.1 21.66,0.04 21.18,0.04 C20.22,0.04 19.18,0.28 18.06,0.72 C16.4,1.38 14.58,2.48 12.7,3.94 C10.82,5.4 8.92,7.24 7.1,9.36 C4.88,11.96 3.12,14.62 1.9,17.1 C1.3,18.34 0.82,19.52 0.5,20.64 C0.18,21.74 0,22.78 0,23.72 C0,24.4 0.1,25.04 0.3,25.6 C0.4,25.84 0.5,26.08 0.64,26.3 C0.82,26.58 1.04,26.84 1.28,27.06 L3.28,28.68 L3.5,28.86 L3.5,28.88 C3.48,28.92 3.46,28.96 3.46,29 C3.44,29.06 3.42,29.12 3.4,29.18 C3.38,29.22 3.38,29.26 3.36,29.3 C3.34,29.36 3.32,29.42 3.3,29.48 C3.28,29.52 3.28,29.56 3.26,29.6 C3.24,29.66 3.22,29.72 3.2,29.78 C3.18,29.82 3.18,29.86 3.16,29.9 C3.14,29.96 3.14,30.02 3.12,30.1 C3.12,30.14 3.1,30.18 3.1,30.22 C3.08,30.28 3.08,30.36 3.06,30.42 L3.06,30.48 C3.06,30.5 3.06,30.52 3.04,30.56 C3.04,30.62 3.02,30.7 3.02,30.76 C3.02,30.8 3,30.84 3,30.88 L3,30.96 L3,31.08 L3,31.2 L3,31.46 L3,31.54 L3,31.56 L3,31.72 C3,31.8 3,31.9 3.02,31.98 L3.02,32.1 L3.02,32.2 C3.02,32.26 3.04,32.32 3.04,32.38 C3.04,32.42 3.04,32.46 3.06,32.5 L3.06,32.56 C3.06,32.6 3.08,32.64 3.08,32.68 C3.08,32.72 3.1,32.76 3.1,32.8 C3.1,32.84 3.12,32.86 3.12,32.9 C3.12,32.92 3.14,32.94 3.14,32.96 C3.14,33 3.16,33.04 3.16,33.08 C3.16,33.12 3.18,33.18 3.2,33.24 C3.2,33.26 3.2,33.28 3.22,33.3 C3.24,33.34 3.24,33.4 3.26,33.44 C3.28,33.48 3.28,33.52 3.3,33.58 C3.3,33.6 3.32,33.62 3.32,33.64 C3.32,33.66 3.34,33.7 3.34,33.72 L3.36,33.76 C3.38,33.8 3.38,33.84 3.42,33.9 C3.42,33.92 3.44,33.92 3.44,33.94 C3.46,33.98 3.46,34.02 3.48,34.04 L3.5,34.08 C3.5,34.1 3.52,34.1 3.52,34.12 L3.54,34.16 L3.56,34.2 L3.58,34.22 C3.58,34.24 3.6,34.24 3.6,34.26 L3.62,34.3 C3.64,34.34 3.64,34.36 3.66,34.38 C3.68,34.42 3.7,34.46 3.72,34.52 L3.72,34.54 C3.72,34.56 3.74,34.56 3.74,34.58 C3.76,34.64 3.78,34.68 3.8,34.7 C3.82,34.74 3.84,34.78 3.88,34.84 L3.9,34.86 C3.92,34.9 3.94,34.92 3.96,34.96 L3.98,34.98 C3.98,35 4,35.02 4.02,35.04 C4.04,35.06 4.04,35.08 4.06,35.12 L4.08,35.14 C4.1,35.16 4.12,35.2 4.12,35.22 C4.14,35.24 4.14,35.26 4.16,35.28 C4.18,35.32 4.2,35.36 4.24,35.4 L4.26,35.42 C4.28,35.44 4.28,35.46 4.3,35.48 C4.32,35.5 4.34,35.52 4.34,35.54 C4.36,35.56 4.38,35.6 4.42,35.66 L4.44,35.68 C4.46,35.7 4.46,35.72 4.48,35.74 C4.5,35.76 4.52,35.8 4.54,35.82 C4.56,35.84 4.58,35.88 4.62,35.92 L4.64,35.94 C4.66,35.96 4.68,35.98 4.7,36 C4.72,36.02 4.74,36.06 4.76,36.08 C4.78,36.1 4.8,36.14 4.84,36.18 C4.86,36.2 4.88,36.22 4.9,36.24 C4.92,36.26 4.96,36.3 4.98,36.32 C5,36.34 5.02,36.36 5.06,36.4 C5.08,36.42 5.1,36.44 5.12,36.46 C5.14,36.48 5.18,36.52 5.2,36.54 C5.22,36.56 5.24,36.58 5.26,36.6 L5.28,36.62 C5.32,36.66 5.36,36.68 5.4,36.72 L5.44,36.76 C5.46,36.78 5.48,36.8 5.5,36.82 C5.54,36.86 5.58,36.9 5.62,36.92 C5.64,36.94 5.66,36.94 5.68,36.96 C5.68,36.96 5.7,36.98 5.74,37 L5.76,37.02 C5.82,37.06 5.86,37.1 5.92,37.14 L5.94,37.14 C5.96,37.14 5.98,37.16 6,37.18 C6.06,37.22 6.14,37.28 6.2,37.32 L6.24,37.34 L6.26,37.36 L6.3,37.38 C6.36,37.42 6.42,37.44 6.46,37.48 L6.48,37.48 C6.5,37.5 6.52,37.5 6.52,37.5 L6.54,37.5 C6.56,37.5 6.58,37.52 6.58,37.52 C6.62,37.54 6.68,37.58 6.72,37.6 L6.76,37.62 L6.8,37.64 L6.82,37.66 C6.86,37.68 6.92,37.7 6.96,37.74 C6.98,37.76 7,37.76 7.04,37.78 L7.08,37.8 L7.1,37.82 L7.12,37.82 C7.2,37.86 7.26,37.88 7.34,37.92 L7.38,37.94 C7.48,37.98 7.56,38 7.64,38.04 L7.66,38.04 L7.7,38.06 C7.74,38.08 7.78,38.08 7.82,38.1 C7.84,38.1 7.86,38.12 7.88,38.12 C7.9,38.12 7.94,38.14 7.96,38.14 L7.98,38.14 L8,38.14 C8.04,38.16 8.08,38.16 8.12,38.18 L8.14,38.18 C8.18,38.2 8.24,38.2 8.28,38.22 L8.3,38.22 L8.34,38.22 C8.36,38.22 8.38,38.22 8.4,38.24 L8.42,38.24 C8.48,38.26 8.56,38.26 8.62,38.28 L8.64,38.28 C8.74,38.3 8.84,38.32 8.94,38.32 L8.96,38.32 C9.06,38.34 9.14,38.34 9.22,38.34 L9.26,38.34 L9.3,38.34 C9.38,38.34 9.46,38.36 9.56,38.36 L9.58,38.36 L9.64,38.36 L9.8,38.36 C9.82,38.38 9.82,38.4 9.82,38.42 C10,38.78 10.2,39.12 10.4,39.48 C13.56,45.68 20.68,49.92 28.2,49.92 C35.72,49.92 43.02,44.02 45.4,36.96 C45.5,36.68 45.6,36.42 45.68,36.16 C45.96,35.8 46.16,35.42 46.28,35.04 C46.44,34.74 46.46,34.28 46.38,33.92" fill="#FFFFFF"></path>
                        <path d="M43.32,45.76 C43.16,45.92 42.96,46 42.72,46 C42.48,46 42.28,45.92 42.12,45.76 C41.96,45.6 41.88,45.4 41.88,45.16 C41.88,44.92 41.96,44.7 42.14,44.54 C42.3,44.38 42.5,44.32 42.72,44.32 C42.96,44.32 43.16,44.4 43.32,44.56 C43.48,44.72 43.56,44.92 43.56,45.16 C43.58,45.4 43.5,45.6 43.32,45.76 M42.24,44.66 C42.1,44.8 42.04,44.96 42.04,45.14 C42.04,45.34 42.1,45.5 42.24,45.64 C42.38,45.78 42.54,45.84 42.74,45.84 C42.94,45.84 43.1,45.78 43.24,45.64 C43.38,45.5 43.44,45.34 43.44,45.14 C43.44,44.96 43.38,44.78 43.24,44.66 C43.1,44.52 42.94,44.44 42.74,44.44 C42.54,44.46 42.38,44.52 42.24,44.66 M43,45.58 C42.92,45.64 42.84,45.66 42.76,45.66 C42.64,45.66 42.52,45.62 42.42,45.52 C42.32,45.42 42.28,45.3 42.28,45.16 C42.28,45.02 42.32,44.9 42.4,44.8 C42.48,44.7 42.6,44.66 42.74,44.66 C42.82,44.66 42.9,44.68 42.98,44.72 C43.08,44.78 43.16,44.88 43.18,45.04 L42.96,45.04 C42.94,44.98 42.92,44.92 42.88,44.9 C42.84,44.88 42.8,44.86 42.76,44.86 C42.7,44.86 42.64,44.88 42.6,44.94 C42.56,45 42.54,45.08 42.54,45.18 C42.54,45.28 42.56,45.36 42.6,45.4 C42.64,45.44 42.7,45.48 42.76,45.48 C42.82,45.48 42.86,45.46 42.9,45.44 C42.92,45.4 42.94,45.36 42.96,45.32 L43.16,45.32 C43.14,45.44 43.08,45.52 43,45.58" fill="#FFFFFF"></path>
                    </g>
                    <g transform="translate(3.800000, 11.600000)" id="Shape" fill="#FFFFFF">
                        <path d="M41.42,22.6 C41.42,22.6 41.42,22.3 41.24,22.04 L41.2,22 L41.18,21.98 C41.16,21.96 41.14,21.94 41.12,21.92 C41.08,21.88 41.02,21.86 40.96,21.82 C40.92,21.8 40.9,21.8 40.86,21.78 C40.76,21.74 40.66,21.72 40.52,21.72 C40.42,21.72 40.32,21.72 40.2,21.74 C40.16,21.74 40.1,21.76 40.06,21.76 L40.04,21.76 C40.04,21.76 40.04,21.78 40.06,21.8 C40.06,21.82 40.08,21.84 40.1,21.88 C40.1,21.9 40.12,21.9 40.12,21.92 C40.14,21.98 40.18,22.06 40.2,22.16 C40.2,22.16 40.2,22.18 40.18,22.22 L40.18,22.24 C40.14,22.38 40.02,22.72 39.72,23.18 C39.66,23.26 39.62,23.34 39.54,23.42 C38.68,24.56 36.7,26.3 32.28,27.68 C30.78,28.08 29.36,28.28 28.14,28.28 C26.32,28.28 24.92,27.88 24.2,27.18 C24.14,27.12 24.08,27.06 24.02,27 C23.98,26.96 23.94,26.9 23.9,26.86 C23.88,26.84 23.88,26.82 23.86,26.8 C23.54,26.36 23.36,25.86 23.3,25.36 C23.24,24.76 23.34,24.14 23.62,23.66 C23.84,23.26 24.14,22.96 24.54,22.78 C24.74,22.7 24.94,22.64 25.16,22.62 L25.34,22.62 L25.96,22.62 L26.04,22.62 C26.9,22.62 28.26,22.58 29.88,22.28 C32.82,21.72 36.62,20.3 39.78,16.66 L39.78,16.64 C39.76,16.38 39.66,15.9 39.28,15.56 C39.22,15.5 39.14,15.44 39.04,15.4 C39,15.38 38.94,15.34 38.88,15.32 C38.82,15.3 38.78,15.28 38.72,15.26 C38.66,15.22 38.58,15.2 38.54,15.16 L38.54,15.14 C38.52,15.1 38.48,15.08 38.46,15.04 C37.36,13.76 36,13.1 35.44,12.8 C35.18,12.66 35.02,12.6 35.02,12.6 C33.84,12.06 33.66,11.86 33.52,10.04 C33.48,9.38 33.44,8.52 33.36,7.34 C33.36,7.18 33.34,7.04 33.32,6.9 C33.32,6.86 33.32,6.84 33.3,6.8 C33.28,6.66 33.26,6.54 33.24,6.42 L33.24,6.38 L33.24,6.34 C33.22,6.24 33.2,6.14 33.18,6.06 C33.18,6.02 33.16,5.98 33.16,5.94 C33.14,5.84 33.12,5.74 33.08,5.66 C33.06,5.62 33.06,5.56 33.04,5.52 C33.02,5.46 33,5.42 32.98,5.38 C32.96,5.34 32.94,5.28 32.92,5.24 C32.9,5.18 32.88,5.14 32.86,5.08 C32.86,5.06 32.84,5.04 32.84,5.02 C32.84,5 32.82,4.98 32.82,4.96 L32.82,4.94 L32.8,4.88 C32.78,4.84 32.76,4.8 32.74,4.76 L32.74,4.74 L32.72,4.7 L32.7,4.66 C32.66,4.58 32.62,4.52 32.56,4.46 L32.52,4.42 C32.46,4.36 32.42,4.3 32.36,4.24 L32.34,4.22 L32.32,4.2 C32.28,4.16 32.24,4.12 32.22,4.08 L32.18,4.04 C32.14,4 32.08,3.96 32.04,3.92 L32.04,3.9 L32.04,3.88 L32.04,3.86 L32.04,3.84 L32.04,3.82 L32.02,3.78 L32.02,3.76 C32,3.68 31.96,3.6 31.92,3.48 C31.9,3.46 31.9,3.42 31.88,3.4 L31.88,3.38 C31.86,3.34 31.86,3.32 31.84,3.28 C31.8,3.2 31.78,3.12 31.74,3.04 C31.72,3.02 31.72,2.98 31.7,2.96 C31.68,2.9 31.64,2.84 31.62,2.78 C31.6,2.74 31.58,2.72 31.56,2.68 C31.54,2.62 31.5,2.56 31.46,2.52 C31.44,2.48 31.42,2.44 31.4,2.4 C31.36,2.34 31.34,2.28 31.3,2.24 C31.28,2.2 31.26,2.16 31.22,2.12 C31.18,2.06 31.14,2 31.1,1.96 C31.08,1.92 31.04,1.88 31.02,1.86 C30.98,1.8 30.92,1.74 30.88,1.68 C30.86,1.66 30.82,1.62 30.8,1.6 C30.78,1.58 30.76,1.56 30.72,1.54 C30.66,1.48 30.6,1.42 30.54,1.38 L30.5,1.36 C30.42,1.3 30.34,1.22 30.24,1.18 L30.22,1.16 C30.18,1.14 30.14,1.12 30.1,1.08 L30.08,1.08 C30.04,1.06 30,1.04 29.98,1.02 L29.96,1.02 C29.92,1 29.86,0.98 29.76,0.94 C29.72,0.94 29.7,0.92 29.66,0.92 C29.48,0.88 29.24,0.82 28.96,0.78 L28.9,0.78 C28.66,0.74 28.4,0.72 28.14,0.72 L27.86,0.72 L27.72,0.72 L27.66,0.72 C27.44,0.72 27.24,0.74 27.02,0.76 L27,0.76 C26.72,0.8 26.44,0.86 26.2,0.94 C26.24,0.82 26.4,0.7 26.56,0.58 C26.76,0.44 26.96,0.32 26.96,0.32 C26.84,0.34 26.72,0.38 26.6,0.42 C26.56,0.44 26.52,0.44 26.48,0.46 C26.46,0.46 26.42,0.48 26.4,0.48 L26.38,0.48 C26.36,0.48 26.34,0.5 26.32,0.5 C25.72,0.7 25.16,1 24.84,1.18 C24.8,1.2 24.76,1.22 24.72,1.24 L24.7,1.26 C24.66,1.26 24.64,1.28 24.6,1.28 C24.78,0.8 25.12,0.52 25.38,0.34 C25.42,0.32 25.46,0.28 25.5,0.26 C25.52,0.26 25.52,0.24 25.54,0.24 C25.58,0.22 25.6,0.2 25.64,0.2 C25.7,0.18 25.74,0.16 25.74,0.16 C25.72,0.16 25.68,0.18 25.66,0.18 C25.64,0.18 25.62,0.18 25.58,0.2 C25.54,0.2 25.5,0.22 25.48,0.22 C25.46,0.22 25.44,0.22 25.42,0.24 C24.74,0.4 24.16,0.7 23.68,1.06 C23.34,1.3 23.06,1.56 22.82,1.82 C22.76,1.84 22.68,1.86 22.6,1.9 C21.88,2.16 21.04,2.46 20.18,2.86 C19.86,3 19.54,3.16 19.22,3.32 C18.96,3.44 18.72,3.58 18.46,3.72 C18.28,3.82 18.1,3.92 17.92,4.04 C16.62,4.82 15.36,5.82 14.36,7.04 C14.32,7.08 14.28,7.12 14.26,7.18 C14.18,7.3 14.1,7.4 14,7.52 C13.96,7.56 13.94,7.62 13.9,7.66 C13.86,7.72 13.82,7.78 13.78,7.84 C13.6,8.12 13.42,8.4 13.28,8.7 C13.16,8.92 13.06,9.14 12.96,9.38 L12.94,9.4 C12.74,9.88 12.56,10.4 12.44,10.94 C12.38,11.22 12.32,11.5 12.28,11.78 C12.26,11.86 12.26,11.94 12.24,12 L12.24,12.04 C12.2,12.36 12.18,12.68 12.18,13 L12.18,13.2 C12.18,13.36 12.18,13.52 12.2,13.7 C12.2,13.86 12.22,14 12.22,14.16 L12.22,14.2 C12.22,14.28 12.24,14.36 12.24,14.44 C12.24,14.52 12.26,14.62 12.28,14.7 L12.28,14.76 C12.3,14.94 12.32,15.12 12.36,15.3 L12.36,15.32 C12.4,15.5 12.42,15.68 12.46,15.86 C12.48,15.94 12.5,16.02 12.5,16.08 C12.5,16.1 12.5,16.12 12.52,16.14 C12.52,16.18 12.54,16.22 12.56,16.26 C12.6,16.46 12.66,16.66 12.72,16.88 C12.74,16.94 12.76,17 12.76,17.06 C12.82,17.24 12.86,17.42 12.92,17.6 C12.92,17.6 12.86,17.36 12.84,17 L12.84,16.74 C12.84,16.54 12.86,16.3 12.9,16.06 C12.92,16 12.92,15.94 12.94,15.88 C12.94,15.86 12.96,15.82 12.96,15.8 C13,15.68 13.02,15.58 13.08,15.46 C13.1,15.54 13.12,15.6 13.16,15.68 L13.16,15.7 L13.16,15.74 C13.16,15.78 13.18,15.84 13.18,15.88 C13.2,16 13.2,16.12 13.22,16.26 C13.24,16.4 13.26,16.56 13.28,16.72 C13.38,17.4 13.54,18.2 13.78,18.88 C13.78,18.88 13.66,17.62 13.84,17.44 C13.84,17.44 14.5,19.72 14.96,20.56 C15.02,20.66 15.08,20.76 15.12,20.8 L15.08,20.56 L14.86,19.26 L14.86,19.12 C15.18,19.62 15.54,20.12 15.96,20.64 C16.08,20.78 16.18,20.92 16.3,21.08 C15.72,21.72 15.24,22.6 14.92,23.6 C14.88,23.76 14.82,23.92 14.78,24.1 C14.76,24.2 14.74,24.3 14.72,24.38 C14.72,24.42 14.7,24.44 14.7,24.48 C14.68,24.54 14.68,24.62 14.66,24.68 C14.66,24.72 14.64,24.76 14.64,24.78 C14.64,24.84 14.62,24.92 14.62,24.98 C14.62,25.02 14.62,25.04 14.6,25.08 C14.6,25.18 14.58,25.28 14.58,25.38 C14.58,25.48 14.58,25.58 14.56,25.68 L14.56,25.78 L14.56,26 L14.56,26.12 C14.56,26.2 14.56,26.26 14.58,26.34 L14.58,26.44 C14.58,26.54 14.6,26.66 14.62,26.76 L14.62,26.78 C14.64,26.86 14.64,26.94 14.66,27.02 C14.68,27.1 14.68,27.18 14.7,27.28 L14.7,27.32 L14.7,27.34 C14.72,27.44 14.74,27.54 14.78,27.64 C14.78,27.68 14.8,27.7 14.8,27.74 C14.82,27.8 14.84,27.88 14.86,27.96 C14.88,28 14.88,28.04 14.9,28.08 C14.92,28.14 14.94,28.2 14.96,28.28 C14.98,28.32 14.98,28.36 15,28.4 C15.02,28.46 15.04,28.52 15.08,28.58 C15.1,28.62 15.12,28.66 15.12,28.7 C15.14,28.76 15.18,28.82 15.2,28.88 C15.22,28.92 15.24,28.96 15.26,29 C15.28,29.06 15.32,29.12 15.36,29.2 C15.38,29.24 15.4,29.28 15.42,29.32 C15.46,29.4 15.5,29.46 15.54,29.54 C15.56,29.58 15.58,29.6 15.6,29.64 C15.72,29.84 15.84,30.04 15.98,30.26 C16,30.3 16.02,30.32 16.04,30.36 C16.1,30.44 16.14,30.5 16.2,30.58 C16.22,30.62 16.26,30.66 16.28,30.7 C16.32,30.76 16.38,30.82 16.44,30.9 C16.48,30.94 16.5,30.98 16.54,31.02 C16.6,31.08 16.64,31.14 16.7,31.2 C16.74,31.24 16.78,31.28 16.8,31.32 C16.86,31.38 16.92,31.44 16.96,31.5 C17,31.54 17.04,31.58 17.08,31.62 C17.14,31.68 17.2,31.74 17.26,31.8 C17.3,31.84 17.34,31.88 17.38,31.92 C17.44,31.98 17.52,32.06 17.6,32.12 C17.64,32.16 17.66,32.18 17.7,32.22 C17.8,32.32 17.92,32.4 18.04,32.5 C18.04,32.5 17.96,32.42 17.86,32.28 C17.84,32.26 17.82,32.22 17.8,32.2 C17.78,32.16 17.76,32.14 17.74,32.1 C17.72,32.06 17.7,32.02 17.66,31.98 C17.46,31.64 17.26,31.14 17.2,30.58 C17.26,30.66 17.34,30.72 17.4,30.78 C17.48,30.92 17.6,31.08 17.72,31.26 C17.76,31.32 17.8,31.38 17.86,31.44 C18.04,31.7 18.26,31.98 18.48,32.28 C18.76,32.62 19.06,32.96 19.36,33.26 C19.36,33.26 18.98,32.66 18.82,32.26 C18.78,32.14 18.76,32.04 18.76,31.98 C18.78,32 18.82,32.02 18.84,32.04 C18.86,32.06 18.9,32.08 18.92,32.1 C18.98,32.16 19.04,32.24 19.12,32.32 L19.16,32.36 C19.2,32.4 19.24,32.44 19.28,32.48 C19.34,32.54 19.38,32.58 19.44,32.64 C19.94,33.14 20.58,33.76 21.04,34.1 C21.2,34.22 21.32,34.28 21.4,34.32 L20.68,33.36 C22.12,34.26 27.72,34.96 32.88,32.76 C33.5,32.5 34.12,32.18 34.72,31.84 C35.08,31.62 35.44,31.4 35.8,31.14 L35.86,31.1 C36.1,30.92 36.34,30.74 36.58,30.54 C36.76,30.4 36.94,30.24 37.12,30.08 C37.42,29.82 37.7,29.54 37.98,29.24 C38,29.22 38.02,29.2 38.02,29.18 C38.3,28.88 38.54,28.56 38.78,28.26 C39.08,27.84 39.36,27.44 39.6,27.02 L39.62,27 C39.68,26.9 39.74,26.8 39.78,26.7 L39.8,26.68 C39.82,26.64 39.84,26.62 39.86,26.58 C39.94,26.44 40.02,26.3 40.08,26.14 C40.1,26.1 40.12,26.08 40.12,26.04 C40.16,25.96 40.18,25.88 40.22,25.82 C40.24,25.76 40.28,25.7 40.3,25.64 C40.32,25.58 40.36,25.52 40.38,25.46 C40.42,25.34 40.48,25.24 40.52,25.12 C40.54,25.08 40.56,25.04 40.56,24.98 C40.6,24.9 40.62,24.8 40.66,24.72 C40.68,24.68 40.68,24.64 40.7,24.6 L40.72,24.56 C40.76,24.46 40.8,24.34 40.82,24.24 L40.82,24.22 C40.98,24.04 41.08,23.86 41.18,23.7 C41.2,23.68 41.2,23.66 41.22,23.64 C41.4,23.2 41.44,22.88 41.42,22.6"></path>
                        <path d="M9,22.72 C9,22.7 8.98,22.68 8.98,22.64 C8.88,22.3 8.78,21.96 8.7,21.6 C8.7,21.58 8.68,21.56 8.68,21.52 C8.62,21.54 8.56,21.64 8.52,21.74 C8.5,21.78 8.48,21.84 8.46,21.88 C8.32,22.24 8.22,22.74 8.22,22.74 C8.22,22.58 8.22,22.42 8.2,22.24 L8.2,22.18 L8.2,21.66 L8.2,21.6 C8.2,21.4 8.22,21.22 8.22,21.04 L8.22,20.96 L8.22,20.94 L8.22,20.88 L8.22,20.78 C8.22,20.64 8.24,20.5 8.24,20.36 C8.24,20.24 8.26,20.12 8.26,20.02 L8.26,19.98 L8.26,19.94 L8.26,19.9 L8.26,19.82 L8.26,19.74 L8.26,19.62 L8.26,19.6 L8.26,19.52 C8.26,19.48 8.26,19.44 8.28,19.42 L8.28,19.36 L8.28,19.32 L8.28,19.24 L8.28,19.22 L8.28,19.2 L8.28,19.18 L8.24,19.22 C8.22,19.26 8.18,19.28 8.16,19.32 L8.14,19.36 C8.1,19.4 8.08,19.46 8.06,19.5 L8.04,19.52 C8,19.58 7.98,19.64 7.94,19.7 L7.92,19.72 C7.92,19.74 7.9,19.76 7.9,19.76 C7.88,19.8 7.86,19.84 7.86,19.88 L7.86,19.9 L7.86,19.92 C7.84,19.98 7.82,20.04 7.8,20.1 C7.76,20.28 7.72,20.44 7.7,20.56 C7.7,20.6 7.68,20.66 7.68,20.7 C7.66,20.78 7.66,20.86 7.66,20.88 L7.66,20.9 L7.66,20.88 L7.66,20.72 C7.66,20.62 7.64,20.5 7.64,20.4 L7.64,20.14 L7.64,20.06 L7.64,19.94 L7.64,19.82 L7.64,19.78 L7.64,19.76 L7.64,19.62 L7.64,19.56 L7.64,19.52 L7.64,19.48 L7.64,19.42 C7.64,19.36 7.66,19.28 7.66,19.22 L7.66,19.2 C7.66,19.16 7.66,19.1 7.68,19.06 L7.68,19.04 C7.7,18.94 7.7,18.84 7.72,18.74 L7.72,18.72 L7.72,18.7 L7.72,18.64 C7.74,18.48 7.78,18.32 7.82,18.16 L7.82,18.14 C7.84,18 7.88,17.88 7.92,17.74 L7.92,17.72 C7.94,17.66 7.96,17.6 7.96,17.56 C7.98,17.48 8,17.4 8.02,17.3 L8.02,17.28 C8.02,17.26 8.04,17.2 8.06,17.14 C8.06,17.12 8.08,17.08 8.08,17.06 C8.1,17.02 8.1,16.96 8.12,16.92 L8.14,16.88 L8.4,16.22 C8.42,16.2 8.42,16.16 8.44,16.14 L8.44,16.12 L8.46,16.08 C8.48,16 8.52,15.94 8.54,15.86 C8.58,15.76 8.62,15.66 8.66,15.56 C8.74,15.36 8.8,15.2 8.84,15.1 C8.86,15.04 8.88,15 8.88,15 C8.86,15 8.76,14.94 8.58,14.86 C8.38,14.76 8.08,14.64 7.72,14.52 C7.6,14.48 7.48,14.44 7.36,14.42 C7.2,14.38 7.04,14.34 6.88,14.3 C6.84,14.3 6.8,14.28 6.76,14.28 C6.62,14.26 6.48,14.24 6.34,14.22 C6.24,14.2 6.14,14.2 6.04,14.2 C5.96,14.2 5.88,14.2 5.8,14.18 L5.68,14.18 L5.56,14.18 C5.46,14.18 5.34,14.2 5.24,14.2 C5.18,14.2 5.14,14.2 5.08,14.22 C4.86,14.26 4.62,14.3 4.42,14.36 L4.38,14.38 C3.98,14.48 3.62,14.64 3.26,14.82 C3.14,14.88 3.02,14.94 2.92,15.02 C2.88,15.04 2.86,15.06 2.82,15.08 C2.78,15.1 2.74,15.12 2.7,15.16 C2.36,15.4 2.04,15.66 1.76,15.96 L1.74,15.98 C1.5,16.24 1.28,16.52 1.1,16.82 C1.04,16.9 1,17 0.94,17.08 C0.88,17.18 0.82,17.28 0.78,17.4 C0.68,17.6 0.6,17.82 0.52,18.02 C0.5,18.1 0.46,18.18 0.44,18.24 C0.44,18.26 0.44,18.26 0.42,18.28 C0.28,18.78 0.2,19.3 0.18,19.84 L0.18,20.16 L0.18,20.2 C0.18,20.28 0.2,20.36 0.2,20.46 C0.2,20.56 0.22,20.66 0.24,20.78 L0.24,20.82 C0.26,20.9 0.26,20.98 0.28,21.06 L0.28,21.1 C0.28,21.12 0.28,21.14 0.3,21.16 C0.32,21.22 0.32,21.28 0.34,21.34 L0.34,21.36 C0.34,21.4 0.36,21.42 0.36,21.46 C0.38,21.52 0.38,21.58 0.4,21.62 C0.42,21.66 0.42,21.7 0.44,21.74 C0.46,21.8 0.48,21.84 0.5,21.9 C0.52,21.94 0.54,21.98 0.54,22.02 L0.56,22.04 L0.58,22.08 L0.6,22.12 L0.62,22.16 C0.64,22.2 0.66,22.24 0.68,22.28 C0.7,22.32 0.72,22.36 0.74,22.42 C0.76,22.46 0.78,22.5 0.8,22.54 L1,22.6 C1.02,22.64 1.04,22.66 1.04,22.68 C1.06,22.72 1.08,22.76 1.12,22.8 C1.14,22.84 1.16,22.88 1.18,22.92 C1.2,22.94 1.2,22.96 1.22,22.98 C1.24,23 1.24,23.02 1.26,23.04 C1.28,23.08 1.3,23.12 1.32,23.14 C1.34,23.18 1.38,23.22 1.4,23.26 C1.42,23.3 1.44,23.32 1.46,23.36 C1.5,23.4 1.52,23.44 1.56,23.48 C1.58,23.5 1.6,23.54 1.64,23.56 C1.68,23.6 1.72,23.64 1.74,23.68 C1.76,23.7 1.78,23.74 1.82,23.76 C1.86,23.8 1.9,23.84 1.94,23.88 C1.96,23.9 1.98,23.92 2,23.96 C2.04,24 2.08,24.04 2.12,24.08 C2.14,24.1 2.16,24.12 2.18,24.14 C2.22,24.18 2.28,24.22 2.32,24.26 C2.34,24.28 2.36,24.3 2.38,24.32 C2.42,24.36 2.48,24.4 2.52,24.44 C2.54,24.46 2.56,24.48 2.58,24.48 C2.64,24.52 2.68,24.56 2.74,24.6 C2.76,24.62 2.78,24.62 2.8,24.64 C2.86,24.68 2.92,24.72 2.96,24.76 C2.98,24.78 3,24.78 3.02,24.8 C3.08,24.84 3.14,24.88 3.2,24.9 C3.22,24.9 3.24,24.92 3.26,24.92 C3.32,24.96 3.38,24.98 3.44,25.02 L3.48,25.04 C3.54,25.08 3.62,25.1 3.68,25.14 L3.72,25.16 C3.78,25.2 3.86,25.22 3.94,25.24 L3.98,25.26 C4.06,25.28 4.12,25.32 4.2,25.34 L4.24,25.36 C4.32,25.38 4.4,25.4 4.48,25.44 L4.5,25.44 C4.58,25.46 4.66,25.48 4.74,25.5 L4.76,25.5 C4.84,25.52 4.92,25.54 5,25.56 L5.02,25.56 C5.06,25.56 5.1,25.58 5.14,25.58 C5.18,25.58 5.22,25.6 5.28,25.6 L5.3,25.6 C5.38,25.62 5.48,25.62 5.56,25.62 L5.56,25.62 C5.64,25.62 5.74,25.64 5.84,25.64 C6.12,25.64 6.4,25.64 6.68,25.6 C6.74,25.6 6.82,25.58 6.88,25.58 C6.98,25.56 7.06,25.54 7.16,25.52 C7.28,25.5 7.42,25.46 7.54,25.42 C7.66,25.38 7.76,25.36 7.88,25.32 C8.06,25.26 8.22,25.2 8.38,25.12 C8.88,24.9 9.3,24.66 9.54,24.42 C9.54,24.42 9.26,23.66 9.02,22.88 C9.04,22.88 9.02,22.8 9,22.72"></path>
                    </g>
                    <g transform="translate(7.600000, 15.200000)" id="Shape" fill="#8CD8FD">
                        <path d="M37.62,19 C37.62,19 37.62,18.7 37.44,18.44 C37.42,18.42 37.42,18.42 37.4,18.4 L37.38,18.38 C37.36,18.36 37.34,18.34 37.32,18.32 C37.28,18.28 37.22,18.26 37.16,18.22 C37.12,18.2 37.1,18.2 37.06,18.18 C36.96,18.14 36.86,18.12 36.72,18.12 C36.62,18.12 36.52,18.12 36.4,18.14 C36.36,18.14 36.3,18.16 36.26,18.16 L36.24,18.16 C36.24,18.16 36.24,18.18 36.26,18.2 C36.26,18.22 36.28,18.24 36.3,18.28 C36.3,18.3 36.32,18.3 36.32,18.32 C36.34,18.38 36.38,18.46 36.4,18.56 C36.4,18.56 36.4,18.58 36.38,18.62 L36.38,18.64 C36.34,18.78 36.22,19.12 35.92,19.58 C35.86,19.66 35.82,19.74 35.74,19.82 C34.88,20.96 32.9,22.7 28.48,24.08 C26.98,24.48 25.56,24.68 24.34,24.68 C22.52,24.68 21.12,24.28 20.4,23.58 C20.34,23.52 20.28,23.46 20.22,23.4 C20.18,23.36 20.14,23.3 20.1,23.26 C20.08,23.24 20.08,23.22 20.06,23.2 C19.74,22.76 19.56,22.26 19.5,21.76 C19.44,21.16 19.54,20.54 19.82,20.06 C20.04,19.66 20.34,19.36 20.74,19.18 C20.94,19.1 21.14,19.04 21.36,19.02 L21.54,19.02 L22.16,19.02 L22.24,19.02 C23.1,19.02 24.46,18.98 26.08,18.68 C29.02,18.12 32.82,16.7 35.98,13.06 L35.98,13.04 C35.96,12.78 35.86,12.3 35.48,11.96 C35.42,11.9 35.34,11.84 35.24,11.8 C35.2,11.78 35.14,11.74 35.08,11.72 C35.02,11.7 34.98,11.68 34.92,11.66 C34.86,11.62 34.78,11.6 34.74,11.56 L34.74,11.54 C34.72,11.5 34.68,11.48 34.66,11.44 C33.56,10.16 32.2,9.5 31.64,9.2 C31.38,9.06 31.22,9 31.22,9 C30.04,8.46 29.86,8.26 29.72,6.44 C29.68,5.78 29.64,4.92 29.56,3.74 C29.56,3.58 29.54,3.44 29.52,3.3 C29.52,3.26 29.52,3.24 29.5,3.2 C29.48,3.06 29.46,2.94 29.44,2.82 L29.44,2.78 L29.44,2.74 C29.42,2.64 29.4,2.54 29.38,2.46 C29.38,2.42 29.36,2.38 29.36,2.34 C29.34,2.24 29.32,2.14 29.28,2.06 C29.26,2.02 29.26,1.96 29.24,1.92 C29.22,1.86 29.2,1.82 29.18,1.78 C29.16,1.74 29.14,1.68 29.12,1.64 C29.1,1.58 29.08,1.54 29.06,1.48 C29.06,1.46 29.04,1.44 29.04,1.42 C29.04,1.4 29.02,1.38 29.02,1.36 L29.02,1.34 L29,1.28 C28.98,1.24 28.96,1.2 28.94,1.16 L28.94,1.14 L28.92,1.1 L28.9,1.06 C28.86,0.98 28.82,0.92 28.76,0.86 L28.72,0.82 C28.66,0.76 28.62,0.7 28.56,0.64 L28.54,0.62 L28.52,0.6 C28.48,0.56 28.44,0.52 28.42,0.48 L28.38,0.44 C28.34,0.4 28.28,0.36 28.24,0.32 C28.18,0.28 28.12,0.22 28.06,0.18 C28,0.14 27.94,0.12 27.86,0.1 C27.84,0.1 27.82,0.08 27.8,0.08 C27.76,0.06 27.72,0.06 27.68,0.04 C27.66,0.04 27.64,0.04 27.6,0.02 C27.56,0.02 27.52,0 27.48,0 L27.4,0 L27.3,0 L27.22,0 L27.12,0 L27.06,0 C27.02,0 27,0.02 26.96,0.02 C26.94,0.02 26.92,0.02 26.9,0.04 L26.86,0.06 C26.84,0.06 26.82,0.08 26.8,0.08 C26.78,0.08 26.76,0.1 26.74,0.1 C26.7,0.12 26.66,0.14 26.62,0.14 L26.58,0.16 C26.48,0.2 26.36,0.26 26.26,0.32 L26.22,0.34 C26.18,0.36 26.14,0.4 26.1,0.42 L26.06,0.46 C26.02,0.48 25.98,0.52 25.94,0.54 L25.9,0.58 C25.86,0.6 25.82,0.64 25.8,0.66 L25.76,0.7 C25.72,0.74 25.68,0.76 25.64,0.8 L25.6,0.84 C25.56,0.88 25.52,0.92 25.48,0.94 L25.46,0.96 C25.42,1 25.36,1.04 25.32,1.08 C25.24,1.16 25.14,1.24 25.06,1.32 C24.98,1.38 24.9,1.46 24.84,1.52 L24.8,1.56 C24.72,1.62 24.64,1.7 24.56,1.76 L24.52,1.8 C24.44,1.86 24.36,1.92 24.28,1.98 L24.24,2.02 C24.16,2.08 24.08,2.14 23.98,2.2 L23.94,2.22 C23.86,2.28 23.76,2.32 23.68,2.38 L23.64,2.4 C23.54,2.44 23.46,2.5 23.36,2.54 L23.34,2.54 C23.24,2.58 23.14,2.62 23.02,2.64 C22.84,2.68 22.66,2.72 22.48,2.74 C22.18,2.78 21.88,2.8 21.56,2.78 C21.46,2.78 21.36,2.78 21.24,2.76 L21.12,2.76 C20.84,2.74 20.58,2.72 20.3,2.68 C20.18,2.66 20.06,2.66 19.96,2.64 C19.78,2.62 19.58,2.6 19.4,2.58 C19.36,2.58 19.32,2.58 19.28,2.56 L19.2,2.56 C19.16,2.56 19.12,2.56 19.08,2.54 L18.96,2.54 L18.94,2.54 L18.92,2.54 L18.82,2.54 C18.74,2.54 18.64,2.54 18.56,2.52 L18.48,2.52 L18.3,2.52 L18.2,2.52 L18.04,2.52 L17.94,2.52 L17.9,2.52 L17.78,2.52 L17.68,2.52 C17.62,2.52 17.56,2.54 17.5,2.54 L17.44,2.54 L17.4,2.54 C17.32,2.54 17.26,2.56 17.18,2.58 L17.12,2.58 C17.04,2.6 16.94,2.62 16.86,2.64 C16.84,2.64 16.82,2.66 16.78,2.66 C16.72,2.68 16.66,2.68 16.6,2.7 L16.58,2.7 C16.54,2.7 16.52,2.72 16.48,2.72 C16.42,2.74 16.36,2.76 16.3,2.78 C16.26,2.8 16.24,2.8 16.2,2.82 C16.14,2.84 16.08,2.86 16.02,2.9 C15.98,2.92 15.96,2.92 15.92,2.94 C15.86,2.96 15.8,3 15.74,3.02 C15.72,3.04 15.68,3.04 15.66,3.06 C15.56,3.1 15.48,3.16 15.38,3.22 C14.68,3.74 14.1,4.42 13.68,5.18 C13.54,5.44 13.42,5.7 13.3,5.96 C13.18,6.24 13.08,6.54 13.02,6.82 C13,6.9 12.98,7 12.96,7.08 C12.92,7.22 12.9,7.38 12.88,7.52 L12.88,7.56 C12.86,7.72 12.84,7.9 12.82,8.06 C12.8,8.24 12.8,8.42 12.8,8.58 L12.8,8.86 C12.82,9.12 12.84,9.36 12.9,9.62 C12.9,9.64 12.9,9.66 12.92,9.68 C12.94,9.74 12.94,9.8 12.96,9.88 C13,10.06 13.04,10.24 13.1,10.4 C13.12,10.46 13.14,10.52 13.18,10.58 C13.2,10.64 13.22,10.7 13.24,10.76 C13.42,11.2 13.66,11.58 13.92,11.94 C14.92,13.26 16.38,13.94 17.4,14.26 C17.8,14.38 18.22,14.48 18.64,14.56 C18.64,14.56 18.62,14.58 18.6,14.6 C18.52,14.62 18.44,14.66 18.36,14.7 C18.22,14.76 18.06,14.82 17.88,14.92 C17.68,15.02 17.46,15.12 17.24,15.26 C16.64,15.6 15.96,16.06 15.4,16.66 C15.32,16.74 15.26,16.82 15.18,16.88 C15.06,17.02 14.96,17.16 14.86,17.3 C14.84,17.32 14.84,17.34 14.82,17.34 C14.8,17.36 14.78,17.38 14.78,17.4 C14.74,17.46 14.7,17.52 14.66,17.58 C14.64,17.6 14.64,17.62 14.62,17.66 C14.58,17.74 14.52,17.82 14.48,17.92 C14.44,18 14.4,18.1 14.36,18.18 C14.06,18.88 13.94,19.7 14.14,20.64 L14.14,20.6 L14.14,20.54 L14.14,20.52 L14.14,20.44 L14.14,20.42 C14.14,20.4 14.14,20.36 14.16,20.32 C14.16,20.28 14.18,20.24 14.18,20.22 L14.18,20.2 C14.18,20.16 14.2,20.12 14.2,20.08 L14.2,20.06 C14.2,20.02 14.22,19.98 14.24,19.94 L14.24,19.92 C14.26,19.88 14.26,19.82 14.28,19.78 L14.28,19.74 C14.3,19.7 14.32,19.64 14.34,19.58 L14.34,19.58 C14.36,19.5 14.4,19.42 14.44,19.34 C14.46,19.32 14.46,19.28 14.48,19.26 L14.5,19.24 C14.54,19.18 14.56,19.12 14.6,19.06 C14.62,19 14.66,18.96 14.7,18.9 C14.72,18.88 14.72,18.86 14.74,18.86 C14.76,18.82 14.8,18.78 14.82,18.74 C14.84,18.72 14.84,18.7 14.86,18.7 C14.9,18.64 14.94,18.6 14.98,18.56 C14.98,18.56 14.36,20.6 14.92,22.1 C14.92,22.1 14.92,22.1 14.92,22.08 L14.92,22.04 L14.92,21.98 L14.92,21.9 L14.92,21.8 L14.92,21.68 L14.92,21.56 C14.92,21.56 14.92,21.56 14.92,21.54 L14.92,21.4 L14.92,21.38 L14.92,21.36 C14.92,21.3 14.92,21.24 14.94,21.2 C14.94,21.2 14.94,21.2 14.94,21.18 C14.94,21.12 14.96,21.06 14.96,21 C14.96,20.98 14.96,20.96 14.98,20.94 L14.98,20.9 C15,20.86 15,20.8 15.02,20.76 C15.04,20.7 15.06,20.62 15.08,20.56 C15.08,20.54 15.1,20.52 15.1,20.5 C15.12,20.44 15.16,20.38 15.2,20.32 C15.2,20.32 15.2,20.8 15.3,21.38 C15.32,21.46 15.32,21.56 15.34,21.66 C15.36,21.72 15.36,21.78 15.38,21.84 C15.34,21.22 15.38,20.64 15.48,20.08 C15.38,20.64 15.34,21.22 15.38,21.84 C15.4,22.24 15.46,22.64 15.56,23.06 C15.72,23.76 15.98,24.48 16.36,25.22 C16.36,25.22 15.98,24.36 16.26,23.42 C16.3,23.5 16.36,23.58 16.4,23.66 C16.46,23.92 16.56,24.3 16.7,24.7 C16.86,25.38 17.46,27.42 19.04,28.7 C19.04,28.7 18.42,28.08 18.4,27.16 C18.48,27.28 18.54,27.38 18.6,27.46 C18.9,27.88 19.48,28.66 20.08,29.18 C20.08,29.18 19.56,28.42 19.62,28.22 C19.62,28.22 21.22,29.78 21.68,29.88 L20.98,29 L20.96,28.98 C23.16,30.2 25.98,30.38 29.28,29.02 C29.84,28.78 30.42,28.5 31.02,28.16 C31.38,27.94 31.74,27.72 32.1,27.46 L32.16,27.42 C32.4,27.24 32.64,27.06 32.88,26.86 C33.06,26.72 33.24,26.56 33.42,26.4 C33.72,26.14 34,25.86 34.28,25.56 C34.3,25.54 34.32,25.52 34.32,25.5 C34.6,25.2 34.84,24.88 35.08,24.58 C35.38,24.16 35.66,23.76 35.9,23.34 L35.92,23.32 C35.98,23.22 36.04,23.12 36.08,23.02 L36.1,23 C36.12,22.96 36.14,22.94 36.16,22.9 C36.24,22.76 36.32,22.62 36.38,22.46 C36.4,22.42 36.42,22.4 36.42,22.36 C36.46,22.28 36.48,22.2 36.52,22.14 C36.54,22.08 36.58,22.02 36.6,21.96 C36.62,21.9 36.66,21.84 36.68,21.78 C36.72,21.66 36.78,21.56 36.82,21.44 C36.84,21.4 36.86,21.36 36.86,21.3 C36.9,21.22 36.92,21.12 36.96,21.04 C36.98,21 36.98,20.96 37,20.92 L37.02,20.88 C37.06,20.78 37.1,20.66 37.12,20.56 L37.12,20.54 C37.28,20.36 37.38,20.18 37.48,20.02 C37.5,20 37.5,19.98 37.52,19.96 C37.6,19.6 37.64,19.28 37.62,19"></path>
                        <path d="M4.88,17.92 C4.82,17.94 4.76,18.04 4.72,18.14 C4.7,18.18 4.68,18.24 4.66,18.28 C4.52,18.64 4.42,19.14 4.42,19.14 C4.42,18.98 4.42,18.82 4.4,18.64 L4.4,18.58 L4.4,18.06 L4.4,18 C4.4,17.8 4.42,17.62 4.42,17.44 L4.42,17.36 L4.42,17.34 L4.42,17.28 L4.42,17.18 C4.42,17.04 4.44,16.9 4.44,16.76 C4.44,16.64 4.46,16.52 4.46,16.42 L4.46,16.38 L4.46,16.34 L4.46,16.3 L4.46,16.22 L4.46,16.14 L4.46,16.02 L4.46,16 L4.46,15.92 C4.46,15.88 4.46,15.84 4.48,15.82 L4.48,15.76 L4.48,15.72 L4.48,15.64 L4.48,15.62 L4.48,15.6 L4.48,15.58 L4.44,15.62 C4.42,15.66 4.38,15.68 4.36,15.72 L4.34,15.76 C4.3,15.8 4.28,15.86 4.26,15.9 L4.24,15.92 C4.2,15.98 4.18,16.04 4.14,16.1 L4.12,16.12 C4.12,16.14 4.1,16.16 4.1,16.16 C4.08,16.2 4.06,16.24 4.06,16.28 L4.06,16.3 L4.06,16.32 C4.04,16.38 4.02,16.44 4,16.5 C3.96,16.68 3.92,16.84 3.9,16.96 C3.9,17 3.88,17.06 3.88,17.1 C3.86,17.18 3.86,17.26 3.86,17.28 L3.86,17.3 L3.86,17.28 L3.86,17.12 C3.86,17.02 3.84,16.9 3.84,16.8 L3.84,16.54 L3.84,16.46 L3.84,16.34 L3.84,16.22 L3.84,16.18 L3.84,16.16 L3.84,16.02 L3.84,15.96 L3.84,15.92 L3.84,15.88 L3.84,15.82 C3.84,15.76 3.86,15.68 3.86,15.62 L3.86,15.6 C3.86,15.56 3.86,15.5 3.88,15.46 L3.88,15.44 C3.9,15.34 3.9,15.24 3.92,15.14 L3.92,15.12 L3.92,15.1 L3.92,15.04 C3.94,14.88 3.98,14.72 4.02,14.56 L4.02,14.54 C4.04,14.4 4.08,14.28 4.12,14.14 L4.12,14.12 C4.14,14.06 4.16,14 4.16,13.96 C4.18,13.88 4.2,13.8 4.22,13.7 L4.22,13.68 C4.22,13.66 4.24,13.6 4.26,13.54 C4.26,13.52 4.28,13.48 4.28,13.46 C4.3,13.42 4.3,13.36 4.32,13.32 L4.34,13.28 C4.32,13.26 4.28,13.26 4.24,13.24 L4.22,13.24 L4.18,13.22 C3.98,13.16 3.78,13.1 3.58,13.08 L3.54,13.08 C3.4,13.06 3.28,13.06 3.14,13.06 C3.06,13.06 2.98,13.06 2.9,13.08 C2.84,13.08 2.76,13.1 2.7,13.1 C2.6,13.12 2.5,13.14 2.4,13.16 C2.36,13.16 2.34,13.18 2.32,13.18 C2.28,13.2 2.22,13.2 2.18,13.22 C2.16,13.22 2.14,13.24 2.12,13.24 C2.08,13.26 2.06,13.26 2.02,13.28 C1.96,13.3 1.9,13.34 1.84,13.36 C1.82,13.38 1.78,13.38 1.76,13.4 C1.68,13.44 1.6,13.48 1.52,13.54 C1.48,13.56 1.46,13.58 1.44,13.6 C1.4,13.62 1.36,13.64 1.34,13.68 L1.3,13.7 C1.26,13.72 1.22,13.76 1.18,13.78 C1.14,13.8 1.12,13.84 1.08,13.86 C1.04,13.9 1,13.92 0.96,13.96 C0.94,13.98 0.92,14 0.9,14.02 C0.84,14.08 0.78,14.14 0.72,14.22 C0.7,14.26 0.66,14.28 0.64,14.32 C0.6,14.38 0.54,14.44 0.5,14.5 L0.48,14.54 C0.46,14.58 0.44,14.62 0.42,14.64 C0.4,14.66 0.4,14.68 0.38,14.72 C0.3,14.88 0.22,15.04 0.16,15.2 C0.16,15.22 0.14,15.24 0.14,15.28 C0.12,15.36 0.1,15.44 0.08,15.52 C0.08,15.56 0.06,15.58 0.06,15.62 C0.04,15.7 0.02,15.8 0.02,15.88 L0.02,15.92 L0.02,15.96 C0.02,16.02 0,16.08 0,16.16 L0,16.26 L0,16.36 L0,16.44 C0,16.54 0.02,16.64 0.02,16.74 C0.04,16.82 0.04,16.9 0.06,16.98 L0.06,17.02 C0.06,17.06 0.08,17.1 0.1,17.14 C0.14,17.3 0.2,17.44 0.26,17.58 C0.3,17.68 0.36,17.8 0.42,17.9 C0.52,18.08 0.66,18.26 0.78,18.42 C1.06,18.76 1.42,19.02 1.82,19.22 C2.04,19.32 2.28,19.4 2.54,19.46 C2.78,19.52 3.02,19.54 3.28,19.54 L3.46,19.54 C3.54,19.54 3.64,19.52 3.72,19.52 C3.8,19.5 3.88,19.48 3.96,19.48 C4,19.48 4.04,19.46 4.1,19.46 C4.22,19.44 4.32,19.4 4.42,19.36 L4.44,19.36 C4.48,19.34 4.52,19.32 4.56,19.3 C4.7,19.24 4.82,19.18 4.94,19.1 L4.96,19.08 C5,19.06 5.02,19.04 5.06,19.02 C4.96,18.68 4.86,18.34 4.78,17.98 C4.9,17.98 4.88,17.94 4.88,17.92"></path>
                    </g>
                    <g transform="translate(23.400000, 17.400000)" id="Shape" fill="#FFFFFF">
                        <path d="M4.22,2.52 C4.06,2.46 3.9,2.42 3.74,2.4 C3.64,2.38 3.52,2.38 3.42,2.38 L3.3,2.38 C2.76,2.4 2.32,2.54 2.32,2.54 C2.22,2.58 2.14,2.62 2.04,2.66 C1.34,2.96 0.9,3.4 0.6,3.88 C0.36,4.26 0.22,4.68 0.16,5.06 C0.16,5.1 0.14,5.12 0.14,5.16 C0.12,5.26 0.12,5.36 0.1,5.46 C0.08,5.78 0.08,6.08 0.1,6.3 C0.12,6.62 0.18,6.82 0.18,6.82 C0.28,6.54 0.38,6.26 0.48,6.02 C0.74,5.4 1.04,4.88 1.36,4.46 C1.98,3.64 2.66,3.16 3.2,2.88 C3.8,2.58 4.22,2.52 4.22,2.52"></path>
                        <path d="M12.68,0.44 L12.66,0.42 C12.56,0.32 12.46,0.24 12.34,0.18 C12.04,0.02 11.66,-0.02 11.14,0.14 C11.14,0.14 10.54,0.36 10.22,0.82 C10.22,0.82 11.24,0.22 12.48,0.9 C12.6,0.96 12.7,1.04 12.82,1.12 C12.94,1.2 13.06,1.3 13.18,1.42 C13.18,1.42 13.08,0.92 12.74,0.54 C12.72,0.48 12.7,0.46 12.68,0.44"></path>
                        <path d="M2.64,7.62 C2.68,7.58 2.72,7.54 2.76,7.52 C2.78,7.5 2.8,7.48 2.82,7.48 C2.86,7.44 2.9,7.42 2.94,7.38 C2.96,7.36 2.98,7.34 3.02,7.32 C3.06,7.3 3.1,7.26 3.14,7.24 C3.16,7.22 3.2,7.2 3.22,7.18 C3.26,7.16 3.3,7.12 3.34,7.1 C3.38,7.08 3.4,7.06 3.44,7.04 C3.48,7.02 3.52,7 3.58,6.98 C3.62,6.96 3.66,6.94 3.7,6.92 C3.74,6.9 3.8,6.88 3.84,6.86 C3.88,6.84 3.94,6.82 3.98,6.82 C4.02,6.8 4.06,6.78 4.12,6.78 L4.14,6.78 C4.2,6.76 4.26,6.74 4.34,6.74 C4.36,6.74 4.38,6.74 4.4,6.72 C4.44,6.72 4.48,6.7 4.52,6.7 L4.58,6.7 C4.62,6.7 4.66,6.7 4.7,6.68 L4.76,6.68 L4.86,6.68 L4.9,6.68 L4.92,6.68 C5,6.68 5.08,6.68 5.16,6.7 L5.2,6.7 C5.28,6.7 5.34,6.72 5.42,6.74 L5.46,6.74 C5.54,6.76 5.6,6.76 5.66,6.78 L5.68,6.78 C5.74,6.8 5.82,6.82 5.88,6.84 C5.96,6.86 6.02,6.9 6.08,6.92 C6.14,6.94 6.2,6.98 6.26,7.02 C6.16,6.66 5.86,5.88 5.02,5.68 C4.9,5.66 4.78,5.64 4.64,5.64 L4.54,5.64 C4.42,5.64 4.28,5.66 4.14,5.7 C2.56,6.04 2.48,7.36 2.5,7.8 C2.54,7.76 2.58,7.7 2.62,7.66 L2.64,7.62"></path>
                    </g>
                    <path d="M43.88,33.54 C43.88,33.52 43.86,33.5 43.86,33.5 C43.84,33.46 43.84,33.44 43.82,33.42 C43.68,33.12 43.52,32.88 43.4,32.72 C43.24,32.52 43.1,32.42 43.1,32.42 C43.12,32.34 43.12,32.26 43.12,32.18 C43.12,32.08 43.14,31.98 43.14,31.88 C43.14,31.14 42.88,30.62 42.68,30.32 C42.64,30.28 42.62,30.24 42.6,30.2 C42.5,30.3 42.4,30.38 42.3,30.48 C40.34,32.18 38.06,33.42 35.5,34.14 C33.74,34.64 31.86,34.9 29.86,34.9 L29.9,34.9 C29.9,34.9 28.74,35.2 28.56,36.38 L28.58,36.38 L28.58,37.16 C28.74,38.18 29.3,38.78 29.88,39.04 C30.46,39.18 31.16,39.26 31.92,39.26 C33.24,39.26 34.72,39.04 36.22,38.6 C38.22,38.08 40.94,36.64 42.8,35 C43.22,34.62 43.6,34.24 43.92,33.84 L43.94,33.82 L43.96,33.8 C43.94,33.7 43.92,33.6 43.88,33.54" id="Shape" fill="#8CD8FD"></path>
                    <g transform="translate(7.600000, 15.800000)" id="Shape">
                        <path d="M20.1775,8.38 C20.0525,8.48 19.9275,8.48 19.74,8.58 C19.9275,8.58 20.0525,8.48 20.1775,8.38 L20.24,8.38 L20.1775,8.38" fill="#FFFFFF"></path>
                        <path d="M20.22,12.66 C20.28,12.62 20.36,12.56 20.42,12.52 C20.44,12.5 20.48,12.48 20.5,12.46 C20.56,12.42 20.64,12.38 20.7,12.32 C20.74,12.3 20.76,12.28 20.8,12.26 C20.86,12.22 20.94,12.18 21,12.14 C21.04,12.12 21.08,12.1 21.1,12.08 C21.16,12.04 21.24,12 21.3,11.96 C21.34,11.94 21.38,11.92 21.42,11.88 C21.48,11.84 21.56,11.8 21.62,11.76 C21.66,11.74 21.72,11.7 21.76,11.68 C21.82,11.64 21.9,11.6 21.96,11.58 C22.02,11.56 22.06,11.52 22.12,11.5 C22.18,11.46 22.26,11.44 22.32,11.4 C22.38,11.38 22.44,11.34 22.5,11.32 C22.56,11.28 22.64,11.26 22.7,11.22 C22.76,11.18 22.82,11.16 22.9,11.12 C22.96,11.1 23.02,11.06 23.1,11.04 C23.18,11 23.24,10.98 23.32,10.94 C23.38,10.92 23.44,10.88 23.5,10.86 C23.58,10.82 23.66,10.8 23.74,10.76 C23.78,10.74 23.82,10.72 23.86,10.7 C24.08,9.84 24.8,7.7 26.42,7.28 C26.6,7.24 26.76,7.2 26.9,7.18 C26.94,7.18 26.98,7.16 27.02,7.16 C26.98,7.04 26.96,6.92 26.94,6.8 C26.78,5.94 26.96,5.18 27.34,5.1 C27.64,5.04 27.92,5.44 27.98,5.58 C28.12,5.84 28.24,6.16 28.32,6.54 C28.38,6.88 28.4,7.2 28.36,7.48 C28.4,7.52 28.42,7.54 28.46,7.58 C28.9,8 29.04,8.64 29.08,9.1 C29.22,9.06 29.38,9.04 29.52,9 C29.56,9 29.6,8.98 29.64,8.98 L29.66,8.98 C29.68,8.98 29.7,8.98 29.72,8.96 C29.9,8.92 30.1,8.88 30.28,8.84 C30.7,8.76 31.16,8.68 31.6,8.6 C31.34,8.46 31.18,8.4 31.18,8.4 C30,7.86 29.82,7.66 29.68,5.84 C29.64,5.18 29.6,4.32 29.52,3.14 C29.52,2.98 29.5,2.84 29.48,2.7 C29.48,2.66 29.48,2.64 29.46,2.6 C29.44,2.46 29.42,2.34 29.4,2.22 L29.4,2.18 L29.4,2.14 C29.38,2.04 29.36,1.94 29.34,1.86 C29.34,1.82 29.32,1.78 29.32,1.74 C29.3,1.64 29.28,1.54 29.24,1.46 C29.22,1.42 29.22,1.36 29.2,1.32 C29.18,1.26 29.16,1.22 29.14,1.18 C29.12,1.14 29.1,1.08 29.08,1.04 C28.9,0.82 28.68,0.64 28.44,0.5 L28.4,0.48 L28.36,0.46 L28.34,0.46 C28.3,0.44 28.26,0.42 28.24,0.4 C28.2,0.38 28.16,0.36 28.12,0.34 C27.78,0.18 27.4,0.1 27,0.1 C26.78,0.1 26.56,0.12 26.34,0.14 C26.24,0.16 26.12,0.18 26.02,0.2 C25.74,0.26 25.46,0.36 25.18,0.48 C25.1,0.56 25,0.64 24.92,0.72 C24.84,0.78 24.76,0.86 24.7,0.92 L24.66,0.96 C24.58,1.02 24.5,1.1 24.42,1.16 L24.38,1.2 C24.3,1.26 24.22,1.32 24.14,1.38 L24.1,1.42 C24.02,1.48 23.94,1.54 23.84,1.6 L23.8,1.62 C23.72,1.68 23.62,1.72 23.54,1.78 L23.5,1.8 C23.4,1.84 23.32,1.9 23.22,1.94 L23.2,1.94 C23.1,1.98 23,2.02 22.88,2.04 C22.7,2.08 22.52,2.12 22.34,2.14 C22.04,2.18 21.74,2.2 21.42,2.18 C21.32,2.18 21.22,2.18 21.1,2.16 L20.98,2.16 C20.7,2.14 20.44,2.12 20.16,2.08 C20.04,2.06 19.92,2.06 19.82,2.04 C19.64,2.02 19.44,2 19.26,1.98 C19.22,1.98 19.18,1.98 19.14,1.96 C18.98,1.98 18.84,2.02 18.68,2.06 L18.64,2.06 C18.2,2.18 17.76,2.34 17.34,2.54 C17.32,2.56 17.3,2.56 17.26,2.58 C17.2,2.62 17.12,2.64 17.06,2.68 C16.98,2.72 16.88,2.78 16.8,2.84 C16.18,3.2 15.6,3.68 15.08,4.24 C14.86,4.46 14.68,4.7 14.5,4.96 C14.22,5.34 13.98,5.74 13.78,6.14 C13.76,6.16 13.76,6.18 13.74,6.2 C13.64,6.42 13.54,6.64 13.46,6.86 C13.44,6.94 13.4,7.02 13.38,7.1 L13.38,7.12 C13.3,7.38 13.22,7.64 13.16,7.92 L13.16,7.96 C13.16,8 13.14,8.04 13.14,8.08 C13.12,8.2 13.1,8.32 13.08,8.44 C13.06,8.56 13.04,8.7 13.04,8.82 L13.04,8.9 C13.04,8.98 13.04,9.06 13.02,9.14 C13.02,9.42 13.02,9.7 13.06,9.98 C13.06,10.04 13.08,10.12 13.08,10.18 C13.26,10.62 13.5,11 13.76,11.36 C14.76,12.68 16.22,13.36 17.24,13.68 C17.64,13.8 18.06,13.9 18.48,13.98 L18.5,14 L18.52,13.98 C18.56,13.94 18.62,13.88 18.66,13.84 C18.68,13.82 18.7,13.8 18.72,13.78 C18.78,13.74 18.82,13.68 18.88,13.64 C18.9,13.62 18.92,13.6 18.94,13.6 C19,13.56 19.04,13.5 19.1,13.46 C19.12,13.44 19.14,13.42 19.16,13.42 C19.22,13.38 19.28,13.32 19.34,13.28 C19.36,13.26 19.38,13.24 19.4,13.24 C19.46,13.2 19.52,13.14 19.58,13.1 C19.6,13.08 19.62,13.06 19.64,13.06 C19.7,13.02 19.76,12.96 19.82,12.92 C19.84,12.9 19.86,12.88 19.88,12.86 C19.94,12.82 20,12.76 20.08,12.72 C20.18,12.7 20.2,12.68 20.22,12.66 M26.92,1.74 C27.42,1.56 27.82,1.62 28.12,1.78 C28.24,1.84 28.36,1.92 28.44,2.02 L28.46,2.04 C28.48,2.06 28.5,2.08 28.52,2.12 C28.86,2.52 28.96,3 28.96,3 C28.84,2.88 28.72,2.8 28.6,2.7 C28.48,2.62 28.36,2.54 28.26,2.48 C27.02,1.8 26,2.4 26,2.4 C26.32,1.96 26.92,1.74 26.92,1.74 M17.18,6.06 C16.86,6.48 16.56,7 16.3,7.62 C16.2,7.88 16.1,8.14 16,8.42 C16,8.42 15.96,8.22 15.92,7.9 C15.9,7.66 15.88,7.38 15.92,7.06 C15.92,6.96 15.94,6.86 15.96,6.76 C15.96,6.72 15.98,6.7 15.98,6.66 C16.06,6.28 16.18,5.86 16.42,5.48 C16.72,5 17.18,4.56 17.86,4.26 C17.94,4.22 18.04,4.18 18.14,4.14 C18.14,4.14 18.58,4 19.12,3.98 L19.24,3.98 C19.34,3.98 19.46,3.98 19.56,4 C19.72,4.02 19.88,4.06 20.04,4.12 C20.04,4.12 19.62,4.18 19.04,4.48 C18.48,4.76 17.8,5.24 17.18,6.06 M18.06,10.02 C18.02,10.04 17.98,10.04 17.96,10.02 C17.9,9.98 17.98,9.72 18.26,9.4 C18.24,8.96 18.32,7.64 19.9,7.3 C20.04,7.28 20.18,7.26 20.3,7.24 L20.4,7.24 C20.54,7.24 20.66,7.26 20.78,7.28 C21.62,7.46 21.92,8.24 22.02,8.62 C22.3,8.78 22.42,8.94 22.38,8.96 C22.36,9 22.32,9 22.26,9 C22.2,9.04 22.04,9.06 21.84,9.08 C21.44,9.12 20.82,9.16 20.14,9.34 C20.1,9.36 20.04,9.36 20,9.38 C19,9.66 18.24,10.1 18.06,10.02" fill="#8CD8FD"></path>
                        <path d="M20.84,8.26 L20.64,8.26 L20.84,8.26" fill="#FFFFFF"></path>
                        <path d="M36.88,20.12 C36.24,20.86 35.54,21.46 34.84,21.96 C34.5,22.22 34.14,22.44 33.8,22.64 C33.02,23.1 32.28,23.44 31.62,23.7 C30.14,24.26 29.08,24.4 29.08,24.4 C29.96,24.76 31.02,24.62 31.74,24.46 C32.22,24.34 32.56,24.22 32.56,24.22 C32.58,24.52 32.58,24.82 32.56,25.08 C32.54,25.38 32.48,25.66 32.42,25.9 L32.42,25.92 C32.34,26.24 32.22,26.52 32.08,26.76 C32.06,26.78 32.06,26.82 32.04,26.84 L32.1,26.8 C32.34,26.62 32.58,26.44 32.82,26.24 C33,26.1 33.18,25.94 33.36,25.78 C33.66,25.52 33.94,25.24 34.22,24.94 C34.24,24.92 34.26,24.9 34.26,24.88 C34.54,24.58 34.78,24.26 35.02,23.96 C35.32,23.54 35.6,23.14 35.84,22.72 L35.86,22.7 C35.92,22.6 35.98,22.5 36.02,22.4 L36.04,22.38 C36.06,22.34 36.08,22.32 36.1,22.28 C36.18,22.14 36.26,22 36.32,21.84 C36.34,21.8 36.36,21.78 36.36,21.74 C36.4,21.66 36.42,21.58 36.46,21.52 C36.48,21.46 36.52,21.4 36.54,21.34 C36.56,21.28 36.6,21.22 36.62,21.16 C36.66,21.04 36.72,20.94 36.76,20.82 C36.78,20.78 36.8,20.74 36.8,20.68 C36.84,20.6 36.86,20.5 36.9,20.42 C36.92,20.38 36.92,20.34 36.94,20.3 L36.96,20.26 C37,20.16 37.04,20.04 37.06,19.94 C36.96,20.02 36.92,20.06 36.88,20.12" fill="#8CD8FD"></path>
                        <path d="M17.78,14.38 C17.58,14.48 17.36,14.58 17.14,14.72 C16.54,15.06 15.86,15.52 15.3,16.12 C15.22,16.2 15.16,16.28 15.08,16.34 C14.96,16.48 14.86,16.62 14.76,16.76 C14.74,16.78 14.74,16.8 14.72,16.8 C14.7,16.82 14.68,16.84 14.68,16.86 C14.64,16.92 14.6,16.98 14.56,17.04 C14.54,17.06 14.54,17.08 14.52,17.12 C14.48,17.2 14.42,17.28 14.38,17.38 C14.34,17.46 14.3,17.56 14.26,17.64 C13.96,18.34 13.84,19.16 14.04,20.1 L14.04,20.06 L14.04,20 L14.04,19.98 L14.04,19.9 L14.04,19.88 C14.04,19.86 14.04,19.82 14.06,19.78 C14.06,19.74 14.08,19.7 14.08,19.68 L14.08,19.66 C14.08,19.62 14.1,19.58 14.1,19.54 L14.1,19.52 C14.1,19.48 14.12,19.44 14.14,19.4 L14.14,19.38 C14.16,19.34 14.16,19.28 14.18,19.24 L14.18,19.2 C14.2,19.16 14.22,19.1 14.24,19.04 L14.24,19.04 C14.26,18.96 14.3,18.88 14.34,18.8 C14.36,18.78 14.36,18.74 14.38,18.72 L14.4,18.7 C14.44,18.64 14.46,18.58 14.5,18.52 C14.52,18.46 14.56,18.42 14.6,18.36 C14.62,18.34 14.62,18.32 14.64,18.32 C14.66,18.28 14.7,18.24 14.72,18.2 C14.74,18.18 14.74,18.16 14.76,18.16 C14.8,18.1 14.84,18.06 14.88,18.02 C14.88,18.02 14.26,20.06 14.82,21.56 C14.82,21.56 14.82,21.56 14.82,21.54 L14.82,21.5 L14.82,21.44 L14.82,21.36 L14.82,21.26 L14.82,21.14 L14.82,21.02 C14.82,21.02 14.82,21.02 14.82,21 L14.82,20.86 L14.82,20.84 L14.82,20.82 C14.82,20.76 14.82,20.7 14.84,20.66 C14.84,20.66 14.84,20.66 14.84,20.64 C14.84,20.58 14.86,20.52 14.86,20.46 C14.86,20.44 14.86,20.42 14.88,20.4 L14.88,20.36 C14.9,20.32 14.9,20.26 14.92,20.22 C14.94,20.16 14.96,20.08 14.98,20.02 C14.98,20 15,19.98 15,19.96 C15.02,19.9 15.06,19.84 15.1,19.78 C15.1,19.78 15.1,20.26 15.2,20.84 C15.22,20.92 15.22,21.02 15.24,21.12 C15.26,21.18 15.26,21.24 15.28,21.3 C15.24,20.68 15.28,20.1 15.38,19.54 C15.4,19.38 15.44,19.24 15.48,19.08 C15.48,19.06 15.48,19.04 15.5,19.02 C15.54,18.88 15.58,18.74 15.62,18.6 C15.62,18.58 15.64,18.54 15.64,18.52 C15.68,18.38 15.72,18.26 15.78,18.12 C15.78,18.1 15.8,18.08 15.8,18.06 C15.9,17.78 16.02,17.54 16.14,17.28 C16.14,17.26 16.16,17.24 16.16,17.22 C16.2,17.12 16.26,17.04 16.3,16.94 C16.32,16.92 16.32,16.9 16.34,16.86 C16.36,16.84 16.36,16.82 16.38,16.8 C16.44,16.7 16.5,16.58 16.56,16.48 C16.56,16.46 16.58,16.44 16.58,16.44 C16.64,16.34 16.72,16.22 16.78,16.12 C16.86,16 16.94,15.88 17.02,15.76 C17.08,15.68 17.14,15.6 17.2,15.52 C17.22,15.5 17.24,15.46 17.26,15.44 C17.4,15.26 17.54,15.08 17.68,14.94 C18.08,14.48 18.4,14.2 18.5,14.1 C18.42,14.12 18.34,14.16 18.26,14.2 C18.12,14.22 17.96,14.28 17.78,14.38" fill="#8CD8FD"></path>
                        <path d="M28.68,8.66 C28.68,8.66 28.66,8.62 28.64,8.54 C28.54,8.26 28.18,7.62 27.08,7.88 C25.94,8.14 25.66,9.12 25.6,9.44 C25.58,9.5 25.58,9.56 25.58,9.56 L25.62,9.58 C25.76,9.44 26.04,9.42 26.3,9.54 C26.42,9.6 26.52,9.68 26.6,9.78 C26.72,9.92 26.76,10.08 26.7,10.2 C26.68,10.22 26.68,10.26 26.66,10.28 C26.66,10.28 26.7,10.3 26.78,10.3 C27.12,10.36 28.02,10.44 28.44,9.74 C28.46,9.7 28.48,9.68 28.5,9.64 C28.4,9.6 28.32,9.48 28.3,9.3 C28.28,9.22 28.28,9.14 28.3,9.04 C28.36,8.78 28.52,8.6 28.68,8.66" fill="#FFFFFF"></path>
                        <path d="M24,17.86 C23.28,18.1 22.64,18.3 22.14,18.44 L22.22,18.44 C23.08,18.44 24.44,18.4 26.06,18.1 C29,17.54 32.8,16.12 35.96,12.48 L35.96,12.46 C35.94,12.2 35.84,11.72 35.46,11.38 C35.4,11.32 35.32,11.26 35.22,11.22 C35.2,11.22 35.2,11.2 35.18,11.2 C35.08,11.16 35,11.12 34.92,11.08 C34.86,11.04 34.78,11.02 34.74,10.98 L34.74,10.96 C34.56,11.3 34.34,11.64 34.1,11.96 C34.02,12.08 33.92,12.18 33.82,12.3 C32.96,13.3 31.78,14.2 30.48,14.98 C28.32,16.24 25.88,17.22 24,17.86" fill="#8CD8FD"></path>
                        <path d="M4.54,15.02 C4.52,15.06 4.48,15.08 4.46,15.12 L4.44,15.16 C4.4,15.2 4.38,15.26 4.36,15.3 L4.34,15.32 C4.3,15.38 4.28,15.44 4.24,15.5 L4.22,15.52 C4.22,15.54 4.2,15.56 4.2,15.56 C4.18,15.6 4.16,15.64 4.16,15.68 L4.16,15.7 L4.16,15.72 C4.14,15.78 4.12,15.84 4.1,15.9 C4.06,16.08 4.02,16.24 4,16.36 C4,16.4 3.98,16.46 3.98,16.5 C3.96,16.58 3.96,16.66 3.96,16.68 L3.96,16.7 L3.96,16.68 L3.96,16.52 C3.96,16.42 3.94,16.3 3.94,16.2 L3.94,15.94 L3.94,15.86 L3.94,15.74 L3.94,15.62 L3.94,15.58 L3.94,15.56 L3.94,15.42 L3.94,15.36 L3.94,15.32 L3.94,15.28 L3.94,15.22 C3.94,15.16 3.96,15.08 3.96,15.02 L3.96,15 C3.96,14.96 3.96,14.9 3.98,14.86 L3.98,14.84 C4,14.74 4,14.64 4.02,14.54 L4.02,14.52 L4.02,14.5 L4.02,14.44 C4.04,14.28 4.08,14.12 4.12,13.96 L4.12,13.94 C4.14,13.8 4.18,13.68 4.22,13.54 L4.22,13.52 C4.24,13.46 4.26,13.4 4.26,13.36 C4.28,13.28 4.3,13.2 4.32,13.1 L4.32,13.08 C4.32,13.06 4.34,13 4.36,12.94 C4.36,12.92 4.38,12.88 4.38,12.86 C4.4,12.82 4.4,12.76 4.42,12.72 L4.44,12.68 C4.42,12.66 4.38,12.66 4.34,12.64 L4.32,12.64 L4.28,12.62 C4.08,12.56 3.88,12.5 3.68,12.48 L3.64,12.48 C3.5,12.46 3.38,12.46 3.24,12.46 C3.16,12.46 3.08,12.46 3,12.48 C2.94,12.48 2.86,12.5 2.8,12.5 C2.7,12.52 2.6,12.54 2.5,12.56 C2.46,12.56 2.44,12.58 2.42,12.58 C2.38,12.6 2.32,12.6 2.28,12.62 C2.26,12.62 2.24,12.64 2.22,12.64 C2.18,12.66 2.16,12.66 2.12,12.68 C2.06,12.7 2,12.74 1.94,12.76 C1.92,12.78 1.88,12.78 1.86,12.8 C1.78,12.84 1.7,12.88 1.62,12.94 C1.58,12.96 1.56,12.98 1.54,13 C1.5,13.02 1.46,13.04 1.44,13.08 L1.4,13.1 C1.36,13.12 1.32,13.16 1.28,13.18 C1.24,13.2 1.22,13.24 1.18,13.26 C1.14,13.3 1.1,13.32 1.06,13.36 C1.04,13.38 1.02,13.4 1,13.42 C0.94,13.48 0.88,13.54 0.82,13.62 C0.8,13.66 0.76,13.68 0.74,13.72 C0.7,13.78 0.64,13.84 0.6,13.9 L0.58,13.94 C0.56,13.98 0.54,14.02 0.52,14.04 C0.5,14.06 0.5,14.08 0.48,14.12 C0.4,14.28 0.32,14.44 0.26,14.6 C0.26,14.62 0.24,14.64 0.24,14.68 C0.22,14.76 0.2,14.84 0.18,14.92 C0.18,14.96 0.16,14.98 0.16,15.02 C0.16,15.04 0.18,15.06 0.18,15.08 C0.22,15.14 0.24,15.22 0.28,15.28 L0.3,15.3 L0.32,15.32 C0.36,15.38 0.38,15.44 0.42,15.52 C0.52,15.7 0.64,15.88 0.74,16.02 C0.76,16.04 0.78,16.06 0.78,16.08 L0.8,16.2 L0.82,16.22 C0.9,16.32 0.98,16.42 1.04,16.5 C1.14,16.62 1.24,16.72 1.3,16.78 C1.32,16.8 1.32,16.8 1.34,16.82 L1.36,16.84 L1.4,16.88 C1.38,16.84 1.38,16.82 1.36,16.78 C1.28,16.54 1.22,16.28 1.18,16.04 L1.18,16.02 L1.18,16 C1.16,15.84 1.14,15.68 1.14,15.54 C1.16,15.6 1.18,15.66 1.22,15.7 C1.26,15.78 1.3,15.86 1.34,15.94 L1.36,15.96 C1.52,16.28 1.7,16.54 1.86,16.76 C2.06,17.02 2.22,17.18 2.32,17.28 C2.34,17.3 2.36,17.32 2.38,17.32 C2.4,17.34 2.42,17.36 2.42,17.36 C2.32,17.1 2.26,16.84 2.22,16.58 C2.2,16.5 2.2,16.4 2.18,16.32 C2.16,16.2 2.16,16.1 2.16,16 C2.24,16.18 2.3,16.34 2.38,16.5 L2.38,16.52 C2.66,17.06 2.98,17.46 3.18,17.68 L3.2,17.7 C3.24,17.74 3.26,17.78 3.3,17.8 C3.32,17.82 3.34,17.84 3.36,17.86 C3.38,17.88 3.4,17.9 3.4,17.9 L3.42,17.92 L3.4,17.88 C3.38,17.84 3.38,17.8 3.36,17.78 C3.32,17.64 3.28,17.52 3.26,17.38 C3.24,17.3 3.22,17.2 3.2,17.12 C3.18,17.04 3.18,16.96 3.16,16.88 L3.16,16.84 C3.16,16.8 3.16,16.76 3.14,16.72 L3.14,16.7 L3.14,16.68 C3.14,16.58 3.12,16.46 3.12,16.36 C3.14,16.42 3.18,16.5 3.2,16.56 C3.22,16.6 3.24,16.66 3.26,16.7 L3.26,16.72 L3.28,16.74 C3.3,16.8 3.34,16.84 3.36,16.9 C3.42,17 3.46,17.08 3.52,17.16 C3.58,17.26 3.66,17.36 3.72,17.44 C3.76,17.48 3.8,17.54 3.82,17.58 C3.86,17.64 3.9,17.68 3.94,17.74 C3.98,17.78 4.02,17.82 4.04,17.86 L4.06,17.88 C4.1,17.92 4.12,17.94 4.14,17.96 C4.16,17.98 4.18,18 4.2,18.02 C4.24,18.06 4.26,18.08 4.28,18.1 L4.3,18.12 L4.3,18.06 L4.3,17.54 L4.3,17.48 C4.3,17.28 4.32,17.1 4.32,16.92 L4.32,16.84 L4.32,16.82 L4.32,16.76 L4.32,16.66 C4.32,16.52 4.34,16.38 4.34,16.24 C4.34,16.12 4.36,16 4.36,15.9 L4.36,15.86 L4.36,15.82 L4.36,15.78 L4.36,15.7 L4.36,15.62 L4.36,15.5 L4.36,15.48 L4.36,15.4 C4.36,15.36 4.36,15.32 4.38,15.3 L4.38,15.24 L4.38,15.2 L4.38,15.12 L4.38,15.1 L4.38,15.08 L4.38,15.06 L4.54,15.02" fill="#8CD8FD"></path>
                        <path d="M29.62,20.32 C29.88,20.18 30.12,20.08 30.3,19.98 C30.66,19.78 30.86,19.64 30.84,19.6 C30.82,19.56 30.6,19.62 30.2,19.76 C30,19.84 29.76,19.9 29.5,20 C29.36,20.06 29.22,20.08 29.06,20.14 C28.9,20.18 28.74,20.24 28.56,20.28 C28.22,20.38 27.82,20.46 27.4,20.58 C27.2,20.62 26.98,20.66 26.76,20.72 C26.54,20.76 26.3,20.8 26.06,20.84 C25.1,20.98 24.06,21.08 22.96,21.02 C22.38,21 21.6,20.82 21.02,20.58 L21,20.58 C21.18,19.4 22.34,19.1 22.34,19.1 L22.3,19.1 L22.24,19.1 L21.78,19.1 L21.54,19.1 L21.4,19.1 C20.68,19.14 20.36,19.8 20.26,20.06 C20.24,20.1 20.24,20.14 20.22,20.18 C20.14,20.42 20.12,20.7 20.12,21 C20.16,21.54 20.36,22.1 20.84,22.56 C21.16,22.86 21.66,23.1 22.3,23.26 C21.72,22.98 21.18,22.4 21,21.38 C21.64,21.56 22.36,21.64 22.9,21.66 C24.06,21.72 25.16,21.62 26.14,21.44 C26.38,21.38 26.62,21.34 26.86,21.28 C27.08,21.22 27.32,21.16 27.52,21.1 C27.94,20.98 28.32,20.86 28.68,20.72 C28.86,20.66 29.02,20.6 29.18,20.52 C29.34,20.44 29.5,20.4 29.62,20.32" fill="#FFFFFF"></path>
                    </g>
                    <g transform="translate(25.400000, 20.800000)" id="Shape" fill="#FFFFFF">
                        <path d="M9.24,2.18 C9.84,2.12 10.26,2.26 10.56,2.5 C10.6,2.22 10.58,1.9 10.52,1.56 C10.46,1.18 10.32,0.86 10.18,0.6 C10.12,0.46 9.84,0.06 9.54,0.12 C9.16,0.2 8.98,0.94 9.14,1.82 C9.18,1.94 9.2,2.06 9.24,2.18"></path>
                        <path d="M2.28,3.98 C2.96,3.78 3.6,3.88 4.02,3.94 C4.22,3.98 4.38,4 4.46,4 C4.52,4 4.56,3.98 4.58,3.96 C4.62,3.92 4.48,3.76 4.22,3.62 C4.16,3.58 4.1,3.56 4.04,3.52 C3.98,3.5 3.9,3.46 3.84,3.44 C3.78,3.42 3.72,3.4 3.64,3.38 L3.62,3.38 C3.56,3.36 3.48,3.34 3.42,3.34 L3.38,3.34 C3.32,3.32 3.24,3.32 3.16,3.3 L3.12,3.3 C3.04,3.3 2.96,3.28 2.88,3.28 L2.82,3.28 L2.72,3.28 L2.66,3.28 C2.62,3.28 2.58,3.28 2.54,3.3 L2.48,3.3 C2.44,3.3 2.4,3.32 2.36,3.32 C2.34,3.32 2.32,3.32 2.3,3.34 C2.24,3.36 2.18,3.36 2.12,3.38 L2.1,3.38 C2.06,3.4 2.02,3.4 1.96,3.42 C1.92,3.44 1.86,3.44 1.82,3.46 C1.78,3.48 1.72,3.5 1.68,3.52 C1.64,3.54 1.6,3.56 1.56,3.58 C1.52,3.6 1.48,3.62 1.42,3.64 C1.38,3.66 1.34,3.68 1.32,3.7 C1.28,3.72 1.24,3.76 1.2,3.78 C1.18,3.8 1.14,3.82 1.12,3.84 C1.08,3.86 1.04,3.9 1,3.92 C0.98,3.94 0.96,3.96 0.92,3.98 C0.88,4.02 0.84,4.04 0.8,4.08 C0.78,4.1 0.76,4.12 0.74,4.12 C0.7,4.16 0.66,4.2 0.62,4.22 L0.58,4.26 C0.54,4.3 0.5,4.36 0.46,4.4 C0.18,4.72 0.1,5 0.16,5.02 C0.18,5.04 0.22,5.04 0.26,5.02 C0.52,4.92 1.16,4.32 2.12,4.02 C2.2,4.02 2.24,4 2.28,3.98"></path>
                        <path d="M10.52,4.3 C10.54,4.46 10.62,4.6 10.72,4.64 C10.88,4.7 11.02,4.52 11.08,4.24 L11.08,4.16 C11.1,3.92 11.02,3.7 10.88,3.64 C10.74,3.58 10.58,3.76 10.52,4.04 C10.52,4.14 10.5,4.22 10.52,4.3"></path>
                        <path d="M7.88,5.06 C7.96,5.16 8.06,5.24 8.2,5.3 C8.48,5.44 8.76,5.4 8.9,5.26 C8.92,5.24 8.94,5.22 8.94,5.18 C9,5.06 8.94,4.9 8.84,4.76 C8.76,4.68 8.66,4.58 8.54,4.52 C8.26,4.4 7.98,4.42 7.86,4.56 C7.84,4.58 7.82,4.6 7.8,4.64 C7.72,4.78 7.76,4.92 7.88,5.06"></path>
                        <path d="M18.26,7.46 L18.16,7.56 C18.16,7.56 18.16,7.56 18.26,7.46"></path>
                        <path d="M18.56,13.02 C18.22,13.42 17.84,13.82 17.42,14.18 C15.56,15.82 12.82,17.26 10.84,17.78 C9.34,18.22 7.86,18.44 6.54,18.44 C5.78,18.44 5.08,18.36 4.5,18.22 C3.86,18.06 3.34,17.82 3.04,17.52 C2.56,17.08 2.36,16.5 2.32,15.96 C2.3,15.68 2.34,15.4 2.42,15.14 C2.44,15.1 2.44,15.06 2.46,15.02 C2.56,14.74 2.88,14.1 3.6,14.06 L3.74,14.06 L3.98,14.06 L4.44,14.06 L4.5,14.06 C6.48,14.06 8.38,13.8 10.14,13.3 C12.7,12.58 14.98,11.36 16.94,9.64 C17.04,9.54 17.14,9.46 17.24,9.36 L18.2,7.46 C15.04,11.1 11.26,12.52 8.3,13.06 C6.68,13.36 5.32,13.4 4.46,13.4 L4.38,13.4 L3.76,13.4 L3.58,13.4 C3.36,13.42 3.14,13.46 2.96,13.56 C2.58,13.74 2.26,14.06 2.04,14.44 C1.78,14.92 1.66,15.52 1.72,16.14 C1.78,16.64 1.96,17.14 2.28,17.58 C2.3,17.6 2.3,17.62 2.32,17.64 C2.36,17.68 2.4,17.74 2.44,17.78 C2.5,17.84 2.56,17.9 2.62,17.96 C3.34,18.64 4.74,19.06 6.56,19.06 C7.78,19.06 9.2,18.88 10.7,18.46 C15.12,17.08 17.08,15.36 17.96,14.2 C18.02,14.12 18.08,14.04 18.14,13.96 C18.44,13.5 18.56,13.18 18.6,13.02 L18.6,13 C18.62,12.96 18.62,12.94 18.62,12.94 L18.56,13.02"></path>
                    </g>
                    <path d="M36.08,2.36 C35.68,2 35.22,1.76 34.74,1.58 C34.66,1.56 34.56,1.54 34.48,1.52 C34.44,1.5 34.38,1.48 34.34,1.46 C33.92,1.36 33.48,1.3 33.04,1.3 C30.86,1.28 28.5,2.36 27.16,3.08 C27.08,3.12 27.02,3.16 26.94,3.2 C26.82,3.26 26.72,3.32 26.6,3.4 C26.4,3.52 26.22,3.64 26.02,3.76 C26,3.78 25.96,3.8 25.94,3.82 L25.5,3.42 L25.3,3.24 L25.12,3.08 L25.04,3 L23.4,1.5 L23.26,1.36 L23.1,1.2 L23.08,1.2 L22.68,1.34 L22.22,1.5 C21.94,1.4 21.62,1.36 21.26,1.36 C20.54,1.36 19.62,1.54 18.62,1.94 C17.62,2.34 16.5,2.92 15.34,3.68 C13,5.22 10.48,7.44 8.12,10.16 C7.3,11.12 6.54,12.08 5.84,13.04 C5.18,13.96 4.56,14.9 4.04,15.8 C2.96,17.64 2.16,19.38 1.72,20.92 C1.42,21.94 1.26,22.86 1.26,23.64 C1.26,24.2 1.34,24.68 1.48,25.08 C1.52,25.2 1.58,25.32 1.64,25.42 C1.76,25.64 1.9,25.84 2.08,26 L3.88,27.48 L4.08,27.64 L4.08,27.62 C4.12,27.56 4.16,27.5 4.22,27.44 L4.24,27.42 C4.26,27.4 4.28,27.38 4.28,27.36 C4.32,27.3 4.36,27.24 4.4,27.2 C4.42,27.16 4.46,27.14 4.48,27.1 C4.5,27.06 4.54,27.04 4.56,27 C4.58,26.98 4.58,26.98 4.6,26.96 C4.62,26.92 4.66,26.9 4.68,26.86 C4.72,26.82 4.76,26.76 4.8,26.72 C4.82,26.7 4.86,26.66 4.88,26.64 L4.9,26.62 C4.94,26.58 5,26.52 5.04,26.48 C5.06,26.46 5.1,26.42 5.12,26.4 C5.16,26.36 5.22,26.32 5.26,26.26 C5.28,26.24 5.32,26.2 5.36,26.18 C5.42,26.14 5.46,26.1 5.52,26.06 C5.56,26.04 5.58,26.02 5.62,25.98 C5.68,25.94 5.74,25.9 5.78,25.86 C5.82,25.84 5.84,25.82 5.88,25.8 L5.92,25.78 C5.96,25.74 6.02,25.72 6.06,25.68 C6.08,25.66 6.12,25.64 6.14,25.62 C6.18,25.6 6.22,25.56 6.26,25.54 C6.3,25.52 6.34,25.5 6.38,25.48 L6.42,25.46 C6.52,25.4 6.6,25.36 6.7,25.32 C6.74,25.3 6.76,25.3 6.8,25.28 C6.84,25.26 6.86,25.24 6.9,25.24 L6.94,25.22 C6.96,25.22 6.98,25.2 7,25.2 C7.04,25.18 7.08,25.16 7.12,25.14 L7.16,25.12 C7.2,25.1 7.26,25.08 7.3,25.06 C7.34,25.04 7.4,25.02 7.44,25 C7.5,24.98 7.56,24.96 7.62,24.94 C7.64,24.94 7.66,24.92 7.7,24.92 C7.72,24.92 7.74,24.9 7.78,24.9 C7.84,24.88 7.9,24.86 7.96,24.86 C8.02,24.84 8.06,24.84 8.12,24.82 C8.16,24.82 8.2,24.8 8.24,24.78 C8.26,24.78 8.28,24.78 8.28,24.76 C8.3,24.76 8.32,24.76 8.34,24.74 L8.38,24.74 C8.58,24.7 8.8,24.68 9.06,24.68 L9.1,24.68 C9.36,24.68 9.62,24.68 9.92,24.7 C9.98,24.7 10.06,24.72 10.12,24.72 C10.14,24.7 10.14,24.66 10.16,24.64 C10.28,24.36 10.4,24.08 10.52,23.8 C11.24,22.2 12.04,20.78 12.88,19.52 C13.16,19.1 13.46,18.68 13.76,18.28 C14.98,16.64 16.26,15.34 17.44,14.32 C17.7,14.1 17.96,13.88 18.22,13.68 C18.56,13.4 18.9,13.16 19.22,12.92 C19.48,12.74 19.72,12.56 19.96,12.4 C20.36,12.14 20.72,11.92 21.04,11.74 C21.14,11.68 21.24,11.62 21.32,11.58 C21.46,11.5 21.58,11.44 21.7,11.38 C21.6,11.38 21.48,11.38 21.38,11.4 C21.28,11.4 21.18,11.42 21.06,11.42 L20.98,11.42 C20.88,11.44 20.76,11.44 20.66,11.46 C20.46,11.5 20.24,11.54 20.04,11.6 C19.96,11.62 19.9,11.64 19.82,11.66 C20.32,11.32 20.82,11.04 21.32,10.84 C21.64,10.7 21.96,10.58 22.28,10.48 C22.7,10.34 23.12,10.24 23.5,10.18 C23.76,10.14 24,10.1 24.22,10.08 C24.44,10.06 24.66,10.04 24.84,10.04 C25.5,10.02 25.9,10.06 25.9,10.06 C25.8,9.94 25.66,9.84 25.52,9.76 C25.26,9.6 24.98,9.52 24.74,9.44 C24.64,9.42 24.56,9.4 24.48,9.38 C24.42,9.36 24.36,9.36 24.3,9.36 C24.4,9.32 24.52,9.3 24.62,9.28 C24.74,9.26 24.84,9.22 24.96,9.2 C25.88,9 26.72,8.98 27.34,9.02 C28.1,9.06 28.56,9.2 28.56,9.2 C28.42,9 28.26,8.84 28.06,8.72 C27.92,8.62 27.78,8.54 27.64,8.48 C27.9,8.5 28.14,8.54 28.38,8.58 C29,8.7 29.52,8.84 29.94,8.98 C30.08,9.02 30.2,9.08 30.32,9.12 C30.36,9.14 30.38,9.14 30.42,9.16 C30.8,9.32 31.02,9.44 31.02,9.44 C30.94,9.24 30.78,9.04 30.62,8.88 C30.58,8.84 30.54,8.8 30.5,8.76 L30.52,8.76 C30.54,8.76 30.56,8.76 30.6,8.78 C30.64,8.78 30.66,8.8 30.72,8.8 C30.88,8.84 31.14,8.9 31.44,9.02 C31.46,9.02 31.46,9.04 31.48,9.04 C31.52,9.06 31.56,9.08 31.6,9.08 C31.7,9.12 31.82,9.16 31.92,9.22 C32.02,9.26 32.12,9.32 32.24,9.38 C32.3,9.4 32.36,9.44 32.4,9.46 C32.52,9.52 32.64,9.6 32.76,9.68 C32.88,9.76 33,9.84 33.12,9.94 C33.14,9.96 33.16,9.98 33.18,10 C33.26,10.06 33.34,10.14 33.42,10.22 C33.58,10.36 33.72,10.52 33.86,10.7 C34.02,10.9 34.16,11.14 34.28,11.4 C34.28,11.42 34.3,11.42 34.3,11.44 C34.36,11.36 34.44,11.24 34.56,11.06 C35.56,9.56 38.48,4.78 36.08,2.36" id="Shape" fill="#FFFFFF"></path>
                    <path d="M21.94,3.28 L21.78,2.5 L22.08,1.58 L22.24,1.52 C21.96,1.42 21.64,1.38 21.28,1.38 C20.56,1.38 19.64,1.56 18.64,1.96 C17.64,2.36 16.52,2.94 15.36,3.7 C13,5.22 10.48,7.44 8.12,10.16 C7.3,11.12 6.54,12.08 5.84,13.04 C5.18,13.96 4.56,14.9 4.04,15.8 C2.96,17.64 2.16,19.38 1.72,20.92 C1.42,21.94 1.26,22.86 1.26,23.64 C1.26,24.2 1.34,24.68 1.48,25.08 C1.52,25.2 1.58,25.32 1.64,25.42 C1.76,25.64 1.9,25.84 2.08,26 L3.88,27.48 L4.08,27.64 L4.08,27.62 C4.12,27.56 4.16,27.5 4.22,27.44 L4.24,27.42 C4.26,27.4 4.28,27.38 4.28,27.36 C4.32,27.3 4.36,27.24 4.4,27.2 C4.42,27.16 4.46,27.14 4.48,27.1 C4.5,27.06 4.54,27.04 4.56,27 L4.6,26.96 C4.62,26.92 4.66,26.9 4.68,26.86 C4.72,26.82 4.76,26.76 4.8,26.72 C4.82,26.7 4.86,26.66 4.88,26.64 L4.9,26.62 C4.94,26.58 5,26.52 5.04,26.48 C5.06,26.46 5.1,26.42 5.12,26.4 C5.16,26.36 5.22,26.32 5.26,26.26 C5.28,26.24 5.32,26.2 5.36,26.18 C5.42,26.14 5.46,26.1 5.52,26.06 C5.56,26.04 5.58,26.02 5.62,25.98 C5.68,25.94 5.74,25.9 5.78,25.86 C5.82,25.84 5.84,25.82 5.88,25.8 L5.92,25.78 C6.18,24.68 6.62,23.46 7.22,22.16 C7.96,20.58 8.94,18.88 10.16,17.18 C10.92,16.1 11.76,15.02 12.68,13.96 C13.88,12.58 15.12,11.32 16.34,10.22 C17.18,9.48 18,8.8 18.82,8.2 C18.9,8.14 18.98,8.08 19.06,8.02 C19.28,7.86 19.5,7.72 19.72,7.56 C20.18,7.24 20.66,6.94 21.1,6.68 L20.84,6.42 L20.8,6.38 L20.46,6.06 L18.56,4.26 L18.4,2.9 L18.38,2.88 L19.5,2.4 L21.94,3.28" id="Shape" fill="#8CD8FD"></path>
                    <path d="M22.46,3.48 L22.61,3.53 L22.46,3.48 Z" id="Shape" fill="#4D9ED7"></path>
                    <path d="M23.1,1.2 L22.06,1.56 L22.52,3.48 L19.5,2.38 L18.38,2.86 L18.4,2.88 L22.32,6.4 L22.36,6.38 L22.4,6.34 C22.5,6.26 22.6,6.18 22.7,6.1 C22.74,6.08 22.76,6.04 22.8,6.02 C22.94,5.9 23.1,5.8 23.24,5.68 L21.58,4.18 L24.1,5.06 C24.16,5.02 24.24,4.96 24.3,4.92 L23.88,3.26 L25.1,4.38 L25.12,4.38 C25.2,4.32 25.28,4.26 25.38,4.22 L25.4,4.2 L25.44,4.18 C25.46,4.18 25.46,4.16 25.48,4.16 C25.52,4.14 25.56,4.12 25.58,4.08 C25.58,4.08 25.6,4.08 25.6,4.06 C25.72,3.98 25.84,3.9 25.96,3.84 L23.1,1.2" id="Shape" fill="#FFFFFF"></path>
                    <g transform="translate(5.800000, 1.200000)" id="Shape">
                        <polyline fill="#907DFC" points="16.36 0.76 16.26 0.36 16.36 0.76"></polyline>
                        <path d="M16.26,0.36 L16.42,0.3 C16.14,0.2 15.82,0.16 15.46,0.16 C14.74,0.16 13.82,0.34 12.82,0.74 C11.82,1.14 10.7,1.72 9.54,2.48 C7.2,4.02 4.68,6.24 2.32,8.96 C1.5,9.92 0.74,10.88 0.04,11.84 L3.72,15.4 C4.48,14.34 5.32,13.28 6.22,12.22 C7.44,10.82 8.7,9.54 9.96,8.4 C11.18,7.3 12.4,6.36 13.6,5.56 L12.74,3.1 L12.6,1.7 L12.58,1.68 L13.7,1.2 L16.12,2.1 L15.96,1.32 L16.26,0.36" fill="#8CD8FD"></path>
                    </g>
                    <g transform="translate(21.400000, 1.400000)" id="Shape" fill="#8CD8FD">
                        <polygon points="0.66 0.16 0.38 1.1 0.54 1.88 1.12 2.1"></polygon>
                        <polygon points="0.16 2.78 2.68 3.66 1.84 4.3"></polygon>
                        <polygon points="2.46 1.86 2.88 3.52 3.7 2.96"></polygon>
                    </g>
                    <path d="M32.76,1.56 C32.9,1.54 33.04,1.52 33.18,1.5 C33.58,1.46 33.96,1.46 34.32,1.52 L34.38,1.52 L34.4,1.52 L34.44,1.52 L34.48,1.52 C34.44,1.5 34.38,1.48 34.34,1.46 C33.92,1.36 33.48,1.3 33.04,1.3 C30.86,1.28 28.5,2.36 27.16,3.08 C27.08,3.12 27.02,3.16 26.94,3.2 C26.82,3.26 26.72,3.32 26.6,3.4 C26.4,3.52 26.22,3.64 26.02,3.76 C26,3.78 25.96,3.8 25.94,3.82 C25.82,3.9 25.7,3.96 25.58,4.04 C25.58,4.04 25.56,4.04 25.56,4.06 C25.52,4.08 25.48,4.1 25.46,4.14 C25.44,4.14 25.44,4.16 25.42,4.16 L25.38,4.18 L25.36,4.2 C25.28,4.26 25.2,4.3 25.1,4.36 L25.08,4.36 L25.08,4.36 C25.06,4.38 25.04,4.38 25.02,4.4 L25,4.4 C24.98,4.42 24.96,4.42 24.96,4.44 C24.82,4.52 24.7,4.62 24.56,4.7 C24.46,4.76 24.38,4.82 24.28,4.88 L24.26,4.9 C24.2,4.94 24.12,5 24.06,5.04 C23.84,5.2 23.62,5.36 23.42,5.52 C23.4,5.54 23.38,5.56 23.36,5.56 C23.34,5.58 23.32,5.58 23.3,5.6 C23.28,5.62 23.26,5.62 23.24,5.64 L23.22,5.66 C23.08,5.78 22.92,5.88 22.78,6 C22.74,6.02 22.7,6.06 22.68,6.08 C22.58,6.16 22.48,6.24 22.38,6.32 L22.34,6.36 L22.3,6.38 C22.02,6.6 21.76,6.84 21.48,7.08 C21.04,7.46 20.6,7.86 20.16,8.28 C20.1,8.34 20.04,8.38 20,8.44 C18.86,9.52 17.78,10.68 16.76,11.86 C15.68,13.1 14.66,14.4 13.7,15.68 C13.18,16.34 12.74,16.94 12.36,17.44 C11.64,18.44 11.24,19.04 11.26,19.06 C11.26,19.06 11.34,19 11.44,18.84 C11.34,18.98 11.26,19.12 11.16,19.26 C12.74,17.1 14.54,14.88 16.48,12.76 C17.66,11.46 18.9,10.22 20.2,9.04 C20.76,8.52 21.34,8.02 21.94,7.54 C22.12,7.38 22.32,7.24 22.5,7.08 C22.6,7 22.7,6.94 22.78,6.86 C22.84,6.82 22.88,6.78 22.94,6.74 C23.04,6.66 23.14,6.58 23.24,6.5 C23.34,6.42 23.44,6.34 23.54,6.28 C23.6,6.24 23.64,6.2 23.7,6.16 C23.82,6.06 23.96,5.98 24.08,5.88 C24.16,5.82 24.24,5.76 24.32,5.72 C24.56,5.54 24.82,5.38 25.06,5.22 C25.08,5.2 25.1,5.2 25.12,5.18 C25.16,5.16 25.2,5.12 25.24,5.1 C25.3,5.06 25.34,5.04 25.4,5 C25.42,4.98 25.44,4.98 25.46,4.96 C25.5,4.94 25.52,4.92 25.56,4.9 C25.56,4.9 25.58,4.9 25.58,4.88 L25.6,4.88 C25.7,4.82 25.82,4.74 25.92,4.68 C25.94,4.66 25.96,4.66 25.98,4.64 C26.02,4.62 26.04,4.6 26.08,4.58 C26.2,4.5 26.32,4.42 26.46,4.34 C26.5,4.32 26.52,4.3 26.56,4.28 C26.58,4.26 26.6,4.26 26.62,4.24 C26.66,4.22 26.68,4.2 26.72,4.18 C26.86,4.1 27,4 27.14,3.92 C27.26,3.84 27.4,3.78 27.52,3.7 C28.24,3.3 28.9,2.94 29.54,2.66 C30.76,2.06 31.82,1.72 32.76,1.56" id="Shape" fill="#8CD8FD"></path>
                </g>
            </g>
        </g>
    </g>
</svg>