<?xml version="1.0" encoding="UTF-8" standalone="no"?>
<svg width="122px" height="40px" viewBox="0 0 122 40" version="1.1" xmlns="http://www.w3.org/2000/svg" xmlns:xlink="http://www.w3.org/1999/xlink">
    <!-- Generator: sketchtool 39.1 (31720) - http://www.bohemiancoding.com/sketch -->
    <title>82BA3C4F-9DA1-4CF6-A8C4-F7C8322199CC</title>
    <desc>Created with sketchtool.</desc>
    <defs></defs>
    <g id="Finals" stroke="none" stroke-width="1" fill="none" fill-rule="evenodd">
        <g id="Services-4" transform="translate(-696.000000, -1757.000000)" fill="#FFFFFF">
            <g id="mixpanel" transform="translate(696.000000, 1757.000000)">
                <g id="Group">
                    <g transform="translate(0.244815, 29.132987)" id="Oval">
                        <ellipse cx="5.30440691" cy="5.26964317" rx="5.26352279" ry="5.26352279"></ellipse>
                        <ellipse cx="24.3045001" cy="5.3271747" rx="3.72290192" ry="3.72290192"></ellipse>
                        <ellipse cx="39.9665406" cy="5.3271747" rx="1.69020286" ry="1.69020286"></ellipse>
                    </g>
                    <g id="Shape">
                        <path d="M23.5465529,23.3746927 C22.6211521,23.3746927 21.9356701,22.6551814 21.9356701,21.7638099 L21.9356701,14.9089895 C21.9356701,12.5440765 20.8046247,10.7275491 18.2683412,10.7275491 C15.7320576,10.7275491 14.189723,12.6811729 14.189723,14.9435084 L14.189723,21.7638099 C14.189723,22.6551814 13.5727892,23.3746927 12.5788402,23.3746927 C11.6191654,23.3746927 10.9679574,22.6551814 10.9679574,21.7638099 L10.9679574,14.9089895 C10.9679574,12.5440765 9.73408978,10.7275491 7.19780622,10.7275491 C4.59297449,10.7275491 3.22201039,12.6811729 3.22201039,14.9435084 L3.22201039,21.7638099 C3.22201039,22.6551814 2.57080246,23.3746927 1.61112761,23.3746927 C0.68548204,23.3746927 0,22.6551814 0,21.7638099 L0,9.59650374 C0,8.63682888 0.616933834,7.95134684 1.61088279,7.95134684 C2.70765406,7.95134684 3.22176559,8.70537709 3.22176559,9.59650374 L3.22176559,10.693275 C4.14716634,8.8767476 6.03224194,7.81425044 8.05441396,7.81425044 C10.5221493,7.81425044 12.3729508,9.04811811 13.2983516,10.8646455 C14.6350415,8.80819938 16.5886653,7.81425044 19.0221266,7.81425044 C23.1692929,7.81425044 25.1571908,10.6590009 25.1571908,14.6690708 L25.1571908,21.7635651 C25.156946,22.6551814 24.5062277,23.3746927 23.5465529,23.3746927 L23.5465529,23.3746927 L23.5465529,23.3746927 Z"></path>
                        <path d="M29.681617,1.85055669 C30.7098402,1.85055669 31.5666928,2.70740923 31.5666928,3.73563231 C31.5666928,4.76385536 30.7098402,5.62070791 29.681617,5.62070791 C28.6533941,5.62070791 27.7965415,4.76385536 27.7965415,3.73563231 C27.7965415,2.70740923 28.6533941,1.85055669 29.681617,1.85055669 L29.681617,1.85055669 L29.681617,1.85055669 Z M29.681617,23.3746927 C28.7219422,23.3746927 28.0707344,22.6551814 28.0707344,21.7638099 L28.0707344,9.56222963 C28.0707344,8.67110298 28.7562163,7.95134684 29.681617,7.95134684 C30.607018,7.95134684 31.2924999,8.67110298 31.2924999,9.56222963 L31.2924999,21.7638099 C31.2920102,22.6551814 30.6412921,23.3746927 29.681617,23.3746927 L29.681617,23.3746927 L29.681617,23.3746927 Z"></path>
                        <path d="M40.3744026,13.5037514 L44.4530206,8.43118426 C44.7272135,8.12271735 45.0699546,7.95134684 45.5155179,7.95134684 C46.4066445,7.95134684 46.9893041,8.53400658 46.9893041,9.35658502 C46.9893041,9.66505193 46.8864819,9.97351886 46.612289,10.2819858 L42.1223818,15.6287457 L46.6808372,21.0095349 C46.920756,21.2837277 47.0578523,21.5579205 47.0578523,21.9692097 C47.0578523,22.7580037 46.3723704,23.3744479 45.6183401,23.3744479 C45.1385027,23.3744479 44.7614876,23.2030774 44.4872947,22.8598467 L40.3744026,17.7534952 L36.2615103,22.8598467 C35.9873174,23.202343 35.6103022,23.3744479 35.1304649,23.3744479 C34.3764346,23.3744479 33.6909527,22.7572693 33.6909527,21.9692097 C33.6909527,21.5579205 33.828049,21.2837277 34.0679678,21.0095349 L38.6264232,15.6287457 L34.136516,10.2822306 C33.8623231,9.97327404 33.7595008,9.66505193 33.7595008,9.35682985 C33.7595008,8.53425138 34.3421605,7.95159164 35.2332871,7.95159164 C35.6788504,7.95159164 36.0215915,8.12296218 36.2957844,8.43142909 L40.3744026,13.5037514 L40.3744026,13.5037514 L40.3744026,13.5037514 Z"></path>
                        <path d="M57.9570168,23.5120339 C55.6606521,23.5120339 53.7755763,22.31293 52.6788052,20.564706 L52.6788052,28.1735567 C52.6788052,29.064928 52.0275972,29.7839498 51.0679224,29.7839498 C50.1082473,29.7839498 49.4570395,29.0646833 49.4570395,28.1735567 L49.4570395,9.56222963 C49.4570395,8.67110298 50.0054251,7.95134684 50.9993742,7.95134684 C51.9933231,7.95134684 52.5759827,8.70537709 52.5759827,9.59650374 L52.5759827,10.7623128 C53.6042059,8.98005953 55.6606521,7.81474007 57.9570168,7.81474007 C61.8985385,7.81474007 65.1203041,11.1045642 65.1203041,15.6635094 C65.1203041,20.3928458 61.8985385,23.5120339 57.9570168,23.5120339 L57.9570168,23.5120339 L57.9570168,23.5120339 Z M57.3060537,10.4878752 C54.5298514,10.4878752 52.6790499,12.9208468 52.6790499,15.6632646 C52.6790499,18.4056824 54.5298514,20.838654 57.3060537,20.838654 C60.0822559,20.838654 61.8985385,18.7481786 61.8985385,15.6632646 C61.8985385,12.5785954 60.0820111,10.4878752 57.3060537,10.4878752 L57.3060537,10.4878752 L57.3060537,10.4878752 Z"></path>
                        <path d="M82.1202587,21.7638099 C82.1202587,22.6551814 81.5033247,23.3746927 80.5093759,23.3746927 C79.5497011,23.3746927 78.9332568,22.6551814 78.9332568,21.7638099 L78.9332568,21.0097797 C77.973582,22.449292 76.1570547,23.5120339 73.9297276,23.5120339 C69.130374,23.5120339 66.3549063,20.0163204 66.3549063,15.6630198 C66.3549063,11.378757 69.4400651,7.81425044 74.2722237,7.81425044 C79.2076944,7.81425044 82.1212379,11.036016 82.1212379,15.6630198 L82.1212379,21.7638099 L82.1202587,21.7638099 L82.1202587,21.7638099 L82.1202587,21.7638099 Z M74.2372151,10.5561786 C71.4950424,10.5561786 69.5756925,12.853033 69.5756925,15.6630198 C69.5756925,18.6105925 71.1865754,20.769861 74.2372151,20.769861 C77.0817209,20.769861 78.8982483,18.3363997 78.8982483,15.6630198 C78.8982483,12.5098024 76.9791434,10.5561786 74.2372151,10.5561786 L74.2372151,10.5561786 L74.2372151,10.5561786 Z"></path>
                        <path d="M91.8200743,7.81474007 C95.966996,7.81474007 99.017146,10.9679574 99.017146,14.9780274 L99.017146,21.7640547 C99.017146,22.655671 98.2976348,23.3749375 97.4062634,23.3749375 C96.5153815,23.3749375 95.7953806,22.655671 95.7953806,21.7640547 L95.7953806,14.6007674 C95.7953806,12.441499 94.0816755,10.762068 91.8200743,10.762068 C89.5579837,10.762068 87.878063,12.4410094 87.878063,14.6007674 L87.878063,21.7640547 C87.878063,22.655671 87.1585517,23.3749375 86.2671801,23.3749375 C85.3762985,23.3749375 84.6562975,22.655671 84.6562975,21.7640547 L84.6562975,14.9777826 C84.6562975,10.9677126 87.6724185,7.81474007 91.8200743,7.81474007 L91.8200743,7.81474007 L91.8200743,7.81474007 Z"></path>
                        <path d="M115.776937,15.6972939 C115.776937,16.2456795 115.46847,16.7940652 114.543314,16.7940652 L104.295603,16.7940652 C104.466728,19.1589782 106.077611,20.9409867 108.922117,20.9409867 C110.704615,20.9409867 111.767112,20.323808 112.897913,19.2615557 C113.17235,18.9873629 113.54912,18.7469545 113.96041,18.7469545 C114.679921,18.7469545 115.297345,19.2615557 115.297345,20.0838893 C115.297345,20.4261407 115.125729,20.7346076 114.886055,21.0088004 C113.58364,22.5168609 111.252511,23.5112995 108.785265,23.5112995 C103.678179,23.5112995 100.97028,19.9463033 100.97028,15.6620405 C100.97028,11.1721332 104.226565,7.81327117 108.647434,7.81327117 C112.966951,7.81474007 115.776937,11.3102088 115.776937,15.6972939 L115.776937,15.6972939 L115.776937,15.6972939 Z M108.648169,10.3852977 C106.283256,10.3852977 104.672373,12.0642391 104.363906,14.189723 L112.79509,14.189723 C112.521142,12.1327873 110.978563,10.3852977 108.648169,10.3852977 L108.648169,10.3852977 L108.648169,10.3852977 Z"></path>
                        <path d="M119.547088,23.3746927 C118.586924,23.3746927 117.936206,22.6551814 117.936206,21.7638099 L117.936206,1.61112761 C117.936206,0.719511325 118.587413,0.000244815013 119.547088,0.000244815013 C120.506763,0.000244815013 121.157482,0.719511325 121.157482,1.61112761 L121.157482,21.7638099 C121.157971,22.6551814 120.506763,23.3746927 119.547088,23.3746927 L119.547088,23.3746927 L119.547088,23.3746927 Z"></path>
                    </g>
                </g>
            </g>
        </g>
    </g>
</svg>