<?xml version="1.0" encoding="UTF-8" standalone="no"?>
<svg width="45px" height="50px" viewBox="0 0 45 50" version="1.1" xmlns="http://www.w3.org/2000/svg" xmlns:xlink="http://www.w3.org/1999/xlink">
    <!-- Generator: sketchtool 39.1 (31720) - http://www.bohemiancoding.com/sketch -->
    <title>07F5C546-21FB-422C-886D-889319CA6CD2</title>
    <desc>Created with sketchtool.</desc>
    <defs></defs>
    <g id="Finals" stroke="none" stroke-width="1" fill="none" fill-rule="evenodd">
        <g id="Services-4" transform="translate(-242.000000, -1120.000000)" fill="#FFFFFF">
            <g id="nodejs-seeklogo.com" transform="translate(242.000000, 1120.000000)">
                <path d="M22.1453285,49.9072268 C21.4575855,49.9072268 20.8156919,49.7238284 20.2196478,49.4028817 L14.1216589,45.7807678 C13.2046678,45.2764228 13.6631636,45.0930246 13.9382605,45.0013254 C15.1761983,44.5886799 15.4054459,44.4969804 16.6892334,43.7633877 C16.8267816,43.6716888 17.01018,43.7175384 17.1477287,43.8092374 L21.8243818,46.6060595 C22.0077803,46.6977587 22.2370279,46.6977587 22.3745766,46.6060595 L40.6685436,36.0148156 C40.851942,35.9231161 40.943641,35.7397182 40.943641,35.5104704 L40.943641,14.3738316 C40.943641,14.1445835 40.851942,13.9611856 40.6685436,13.8694866 L22.3745766,3.3240918 C22.1911782,3.23239282 21.9619306,3.23239282 21.8243818,3.3240918 L3.53041443,13.8694866 C3.34701645,13.9611856 3.25531746,14.1904332 3.25531746,14.3738316 L3.25531746,35.5104704 C3.25531746,35.6938685 3.34701645,35.9231161 3.53041443,36.0148156 L8.52801465,38.9033367 C11.2331378,40.2788227 12.9295709,38.6740889 12.9295709,37.0693548 L12.9295709,16.207813 C12.9295709,15.932716 13.1588185,15.6576187 13.4797652,15.6576187 L15.818092,15.6576187 C16.0931893,15.6576187 16.3682863,15.8868663 16.3682863,16.207813 L16.3682863,37.0693548 C16.3682863,40.6914687 14.3967563,42.8005474 10.9580404,42.8005474 C9.90350107,42.8005474 9.07820938,42.8005474 6.7398826,41.654309 L1.92568074,38.9033367 C0.733592701,38.2155933 0,36.9318062 0,35.5563197 L0,14.4196809 C0,13.0441949 0.733592701,11.7604075 1.92568074,11.0726645 L20.2196478,0.481419986 C21.3658865,-0.160473329 22.9247709,-0.160473329 24.0710097,0.481419986 L42.3649766,11.0726645 C43.5570647,11.7604075 44.2906574,13.0441949 44.2906574,14.4196809 L44.2906574,35.5563197 C44.2906574,36.9318062 43.5570647,38.2155933 42.3649766,38.9033367 L24.0710097,49.4945806 C23.4749652,49.769678 22.7872223,49.9072268 22.1453285,49.9072268 L22.1453285,49.9072268 L22.1453285,49.9072268 Z M27.7848225,35.3729218 C19.7611524,35.3729218 18.110569,31.7049583 18.110569,28.5871894 C18.110569,28.3120922 18.3398168,28.0369952 18.6607633,28.0369952 L21.0449398,28.0369952 C21.3200369,28.0369952 21.5492844,28.2203931 21.5492844,28.4954905 C21.9160808,30.9255163 22.9706206,32.1176043 27.8306718,32.1176043 C31.6820336,32.1176043 33.332617,31.246463 33.332617,29.1832336 C33.332617,27.9911455 32.8741216,27.1200042 26.8678313,26.52396 C21.8702315,26.0196151 18.7524628,24.919226 18.7524628,20.9303159 C18.7524628,17.216503 21.8702315,15.0157249 27.0970794,15.0157249 C32.9658206,15.0157249 35.8543417,17.0331051 36.2211381,21.4346609 C36.2211381,21.5722095 36.1752884,21.7097583 36.0835894,21.8473069 C35.9918905,21.9390059 35.8543417,22.0307048 35.7167931,22.0307048 L33.332617,22.0307048 C33.1033694,22.0307048 32.8741216,21.8473069 32.828272,21.6180592 C32.2780777,19.0963344 30.8567415,18.2710424 27.0970794,18.2710424 C22.8789213,18.2710424 22.3745766,19.7382279 22.3745766,20.8386168 C22.3745766,22.1682536 22.9706206,22.5808997 28.6559638,23.3144924 C34.2954574,24.0480849 36.9547308,25.1026244 36.9547308,29.0456848 C36.9088811,33.0804446 33.6077144,35.3729218 27.7848225,35.3729218 L27.7848225,35.3729218 L27.7848225,35.3729218 Z" id="Shape"></path>
            </g>
        </g>
    </g>
</svg>