<?xml version="1.0" encoding="UTF-8" standalone="no"?>
<svg width="125px" height="28px" viewBox="0 0 125 28" version="1.1" xmlns="http://www.w3.org/2000/svg" xmlns:xlink="http://www.w3.org/1999/xlink">
    <!-- Generator: sketchtool 39.1 (31720) - http://www.bohemiancoding.com/sketch -->
    <title>A3B02695-AA16-40A4-B0F3-23B987D6D298</title>
    <desc>Created with sketchtool.</desc>
    <defs>
        <polygon id="path-1" points="121.60706 27.2880524 0.00350641012 27.2880524 0.00350641012 0.0324927338 121.60706 0.0324927338 121.60706 27.2880524"></polygon>
    </defs>
    <g id="Finals" stroke="none" stroke-width="1" fill="none" fill-rule="evenodd">
        <g id="Services-4" transform="translate(-694.000000, -1619.000000)">
            <g id="pubnub-seeklogo.com-copy" transform="translate(694.000000, 1619.000000)">
                <g id="Group-7" transform="translate(0.000000, 0.058440)">
                    <mask id="mask-2" fill="white">
                        <use xlink:href="#path-1"></use>
                    </mask>
                    <g id="Clip-2"></g>
                    <path d="M42.7740542,17.3671909 C42.7740542,19.3343454 42.779197,21.3014999 42.7675674,23.2685376 C42.7661064,23.5186031 42.8523056,23.6184189 43.0774172,23.6997676 C44.2370454,24.1187836 45.4299261,24.3867902 46.6571697,24.4754439 C47.5216751,24.5379165 48.3888103,24.5333581 49.2389979,24.3091232 C50.8565049,23.88251 51.8078524,22.7883347 52.245803,21.2299107 C52.8851385,18.9553025 52.9434618,16.6427081 52.5610293,14.3191855 C52.4010785,13.347267 52.0683202,12.435016 51.4011673,11.6824235 C50.4269696,10.583573 49.1444417,10.2011405 47.7345142,10.1824397 C46.1227343,10.161109 44.5658298,10.4744068 43.0590085,11.048523 C42.8452928,11.1299301 42.7662817,11.2281096 42.7676258,11.4659027 C42.7789632,13.4329403 42.7740542,15.4000948 42.7740542,17.3671909 L42.7740542,17.3671909 Z M46.2846136,27.2915588 C45.9007786,27.2505338 45.5168851,27.2105607 45.1332254,27.1683669 C43.1253965,26.9476384 41.1630341,26.5314275 39.2649559,25.8264638 C39.0034946,25.7293362 38.9248341,25.5969108 38.9251263,25.3204888 C38.9331326,17.014446 38.9316131,8.70834486 38.9316131,0.402302121 L38.9316131,0.0324927338 L42.7663401,0.0324927338 L42.7663401,8.58871783 C42.9972957,8.50655096 43.1780511,8.44372777 43.3577546,8.37809946 C45.2415735,7.68996648 47.1778716,7.33552686 49.1907263,7.42271959 C52.3730857,7.56063839 54.7465163,9.2715912 55.8778011,12.2504035 C56.3958147,13.6143386 56.5959139,15.031688 56.6195821,16.4796601 C56.6483931,18.237365 56.5178962,19.9776548 56.0419595,21.6810104 C55.1963887,24.7071008 53.1942285,26.4582604 50.1386843,27.045175 C49.6719811,27.1347638 49.194934,27.1698279 48.7231465,27.2335277 C48.6492782,27.243521 48.5778643,27.2717476 48.50534,27.2915588 L46.2846136,27.2915588 L46.2846136,27.2915588 Z" id="Fill-1" fill="#FFFFFF" mask="url(#mask-2)"></path>
                    <path d="M107.753152,17.3552107 C107.753152,19.3419426 107.754905,21.3286746 107.750814,23.3154066 C107.75023,23.4852337 107.768346,23.5981401 107.96003,23.6673917 C109.616224,24.2657606 111.318002,24.5879413 113.081726,24.4861385 C114.111442,24.4267048 115.074536,24.1464842 115.879842,23.4572993 C116.635473,22.8099576 117.046892,21.9535169 117.287665,21.0178898 C117.845769,18.8495842 117.9083,16.6510066 117.567594,14.4447734 C117.419156,13.4854196 117.112345,12.5698374 116.481775,11.8028687 C115.509331,10.6203903 114.189168,10.2044132 112.723488,10.1829072 C111.101774,10.1591805 109.534408,10.4727704 108.019639,11.0568799 C107.813345,11.1365339 107.746723,11.232142 107.747892,11.4533965 C107.757243,13.4206679 107.753152,15.3879393 107.753152,17.3552107 L107.753152,17.3552107 Z M111.270081,27.2915588 C110.886129,27.2507091 110.502762,27.2106191 110.11881,27.1688929 C108.110806,26.9503851 106.148969,26.5327132 104.250833,25.8287429 C103.994865,25.7337776 103.903114,25.6084819 103.903698,25.3253393 C103.912464,17.0098293 103.910711,8.69426078 103.910711,0.378750733 L103.910711,0.0345381397 L107.741464,0.0345381397 L107.741464,8.58667243 C108.005613,8.49451228 108.221842,8.42128675 108.436317,8.34367821 C110.285364,7.67494736 112.186423,7.33389053 114.158779,7.42371307 C117.402793,7.57139138 119.770204,9.30075285 120.895177,12.3494011 C121.515812,14.0310754 121.64964,15.7800144 121.596459,17.5499333 C121.549122,19.0994159 121.372633,20.6311912 120.884658,22.1156299 C120.002211,24.801131 118.137385,26.3797168 115.41232,26.9812415 C114.844866,27.1064788 114.25988,27.1510686 113.683076,27.235164 C113.598922,27.2474365 113.515937,27.2724488 113.432367,27.2915588 L111.270081,27.2915588 L111.270081,27.2915588 Z" id="Fill-3" fill="#FFFFFF" mask="url(#mask-2)"></path>
                    <path d="M3.85868746,12.9127644 C3.93799077,12.9184915 3.98567795,12.9249199 4.03330668,12.9249199 C5.51353772,12.9250368 6.99435315,12.9472441 8.4738829,12.9131734 C9.09142016,12.898914 9.71678841,12.8116044 10.3201247,12.6754388 C11.5717962,12.3929975 12.4987742,11.7080787 12.8415842,10.4017656 C13.1223308,9.33184302 13.1607844,8.24882981 12.9612697,7.16236864 C12.7261065,5.88229518 11.9891175,5.01965985 10.7164659,4.7174073 C9.95575026,4.53676874 9.16628202,4.4216416 8.38552137,4.39323968 C6.98500272,4.34227985 5.58132831,4.3785712 4.17893958,4.3794478 C4.07567581,4.37950624 3.97235359,4.38803851 3.85868746,4.39306436 L3.85868746,12.9127644 L3.85868746,12.9127644 Z M0,1.57788455 C0.125529482,1.58577398 0.251058965,1.60055934 0.376530007,1.60061778 C3.20947562,1.60190346 6.04247968,1.58916351 8.87530842,1.60710464 C10.2198414,1.61557846 11.5516928,1.75624395 12.8468438,2.16006552 C15.1829896,2.88840534 16.5597231,4.57002119 16.8290154,7.00428798 C16.9692133,8.27191368 16.9508631,9.52837731 16.685837,10.7761918 C16.2136404,12.999548 14.8227059,14.3897227 12.715821,15.1231469 C11.527148,15.5369617 10.2948786,15.6929385 9.04519399,15.7059122 C7.43908283,15.7225092 5.83267948,15.7099446 4.22633456,15.7099446 L3.84980455,15.7099446 L3.84980455,26.8240374 L0,26.8240374 L0,1.57788455 L0,1.57788455 Z" id="Fill-4" fill="#FFFFFF" mask="url(#mask-2)"></path>
                    <path d="M26.1811956,27.2915588 C25.7115119,27.2304888 25.2403089,27.1793537 24.7724369,27.1063619 C23.6580413,26.9325608 22.5939043,26.6057634 21.626661,26.0103165 C20.1227033,25.0843905 19.3543319,23.7043259 19.1808815,21.9746722 C19.1314996,21.4820216 19.1233764,20.9837023 19.1228504,20.4878959 C19.1185259,16.3974932 19.120396,12.3070904 19.120396,8.21668772 L19.120396,7.85394959 L22.962837,7.85394959 L22.962837,8.23386913 C22.962837,11.9054896 22.9583956,15.5771101 22.9659344,19.2487306 C22.9678629,20.1648971 23.0465818,21.0767975 23.3191468,21.9591856 C23.7689607,23.4153393 24.7764108,24.2441962 26.2672195,24.421679 C28.0945851,24.6391348 29.8961202,24.4254776 31.6677924,23.934288 C31.9195526,23.8645104 31.9965768,23.7451171 31.9962261,23.4856428 C31.988512,18.4018741 31.990499,13.3180469 31.990499,8.23427821 L31.990499,7.84933282 L35.8319466,7.84933282 L35.8319466,8.22860951 C35.8319466,14.0136603 35.8299012,19.7986526 35.8381413,25.5836449 C35.8384919,25.8642161 35.762695,25.9834925 35.4821822,26.0598738 C33.232937,26.6722683 30.950264,27.0805898 28.6239362,27.2414756 C28.5491328,27.2466767 28.4759072,27.2743774 28.401922,27.2915588 L26.1811956,27.2915588" id="Fill-5" fill="#FFFFFF" mask="url(#mask-2)"></path>
                    <path d="M91.1666632,27.2915588 C90.6968042,27.2307226 90.2257765,27.1787108 89.7576707,27.1072385 C88.6619175,26.9398074 87.6152541,26.6187956 86.6597574,26.0446793 C85.137391,25.1297401 84.3472799,23.7523637 84.165531,22.0097363 C84.1181944,21.5560653 84.108844,21.096784 84.1082596,20.6400741 C84.1041688,16.5006985 84.105922,12.3612645 84.105922,8.22188889 L84.105922,7.85581968 L87.9483631,7.85581968 L87.9483631,8.22896015 C87.9483631,11.9690141 87.9436879,15.709068 87.9518695,19.4491219 C87.9536227,20.3267764 88.052971,21.1965414 88.326471,22.0380214 C88.7928235,23.4697471 89.8096825,24.2526116 91.2712711,24.4253023 C93.0601246,24.6365635 94.8232645,24.4170622 96.5618595,23.9663132 C96.8715924,23.8860748 96.9855508,23.7430717 96.9849664,23.4035344 C96.9721095,18.3486351 96.9762003,13.2937358 96.9762003,8.23883654 L96.9762003,7.8512029 L100.799356,7.8512029 C100.8052,7.9600185 100.816888,8.06299008 100.816888,8.16596165 C100.817473,13.9902842 100.815719,19.8146652 100.822732,25.6389877 C100.823317,25.8768976 100.752604,25.9776485 100.524103,26.040647 C98.2671437,26.6623919 95.9751203,27.0759146 93.6386823,27.2383198 C93.5539441,27.2442222 93.470959,27.273267 93.3873896,27.2915588 L91.1666632,27.2915588" id="Fill-6" fill="#FFFFFF" mask="url(#mask-2)"></path>
                </g>
                <path d="M124.325615,2.44987031 C124.326199,1.35429247 123.485245,0.474417289 122.439166,0.476696456 C121.40945,0.478975623 120.562652,1.35750668 120.557977,2.42941625 C120.553302,3.51652027 121.393087,4.38289577 122.456114,4.3871619 C123.510959,4.3913696 124.324446,3.54837016 124.325615,2.44987031 L124.325615,2.44987031 Z M124.945081,2.8051281 C124.87729,3.00563632 124.822941,3.21193011 124.739371,3.40577615 C124.276525,4.4825947 123.11415,5.06839895 121.925477,4.83171627 C120.786478,4.60490997 119.957212,3.60505713 119.943771,2.44256529 C119.93033,1.32454642 120.743233,0.322765052 121.865868,0.0699528819 C121.939503,0.0534143142 122.009631,0.0236098282 122.081512,0 L122.841235,0 C122.866364,0.0147853627 122.889156,0.037401708 122.916038,0.0431872847 C123.995428,0.275253195 124.663399,0.923529986 124.90651,2.00420559 C124.910017,2.02004287 124.931639,2.03178935 124.945081,2.0454059 L124.945081,2.8051281 L124.945081,2.8051281 Z" id="Fill-8" fill="#FFFFFF"></path>
                <path d="M80.3897117,26.8783283 L76.8219394,26.8783283 C76.1498774,26.8783283 75.4778155,26.8689779 74.8063379,26.883588 C74.5842653,26.8883801 74.4597877,26.8272516 74.354011,26.6220682 C72.7948273,23.5970882 71.2268776,20.5763743 69.6600967,17.5553682 C67.5200177,13.4294923 65.3787699,9.30420082 63.2375221,5.17902619 C63.199536,5.10620974 63.1521995,5.03830226 63.056942,4.98155686 L63.056942,26.8589262 L59.6954635,26.8589262 L59.6954635,1.6768822 C59.784877,1.67144726 59.8783813,1.66086959 59.9724699,1.66081115 C61.7250906,1.65981767 63.4782956,1.66314876 65.2309163,1.65590218 C65.4325349,1.65508402 65.5371428,1.71574491 65.6329847,1.90053273 C69.357961,9.08166066 73.0899502,16.2592822 76.821355,23.4371959 C76.8605099,23.5119993 76.9055088,23.5837638 77.0048571,23.6460611 L77.0048571,1.68395346 L80.3897117,1.68395346 L80.3897117,26.8783283" id="Fill-9" fill="#FFFFFF"></path>
                <path d="M122.082097,2.32521743 C122.390077,2.34672341 122.685784,2.39511187 122.866948,2.11518347 C122.917207,2.03687364 122.897922,1.84630025 122.834222,1.77336692 C122.632019,1.54054129 122.360856,1.56672248 122.082097,1.64918156 L122.082097,2.32521743 L122.082097,2.32521743 Z M121.508214,3.66747123 C121.508214,2.90324914 121.504124,2.16520825 121.515227,1.42740112 C121.516396,1.36516234 121.615744,1.25465198 121.674769,1.25108713 C122.051708,1.22847079 122.432153,1.20188051 122.807339,1.23004867 C123.228693,1.2616648 123.440831,1.45755625 123.501609,1.77821745 C123.558295,2.07713892 123.45135,2.24743357 123.039347,2.49142127 C123.487583,2.7521813 123.416286,3.24570853 123.585178,3.63503693 C123.096034,3.77985167 123.00662,3.73158009 122.886818,3.26885084 C122.753574,2.75434359 122.656564,2.69152041 122.057552,2.76492126 L122.057552,3.21385864 L122.057552,3.66747123 L121.508214,3.66747123 L121.508214,3.66747123 Z" id="Fill-10" fill="#FFFFFF"></path>
            </g>
        </g>
    </g>
</svg>