<?xml version="1.0" encoding="UTF-8" standalone="no"?>
<svg width="39px" height="50px" viewBox="0 0 39 50" version="1.1" xmlns="http://www.w3.org/2000/svg" xmlns:xlink="http://www.w3.org/1999/xlink">
    <!-- Generator: sketchtool 39.1 (31720) - http://www.bohemiancoding.com/sketch -->
    <title>838FC813-CCF4-4315-8920-8D48B9A0D258</title>
    <desc>Created with sketchtool.</desc>
    <defs>
        <linearGradient x1="35.2043092%" y1="65.0793604%" x2="101.159369%" y2="49.9999949%" id="linearGradient-1">
            <stop stop-color="#FFFFFF" offset="0%"></stop>
            <stop stop-color="#C0815E" offset="100%"></stop>
        </linearGradient>
    </defs>
    <g id="Finals" stroke="none" stroke-width="1" fill="none" fill-rule="evenodd">
        <g id="Services-4" transform="translate(-1012.000000, -1263.000000)">
            <g id="rails" transform="translate(1012.000000, 1263.000000)">
                <g id="Group">
                    <path d="M0.620617932,49.3125476 C0.620617932,49.3125476 0.695867085,37.4968508 0.695867085,25.4854221 C0.695867085,2.22009615 -1.26450805,0.487244517 9.17429286,0.487244517 L38.2301121,0.487244517 L38.2301121,34.0453274 C38.2301121,45.0923424 40.2950997,49.4198826 28.6856741,49.4198826 C17.0762485,49.4198826 0.620617932,49.3125476 0.620617932,49.3125476 L0.620617932,49.3125476 L0.620617932,49.3125476 Z" id="Shape" fill="#FFFFFF"></path>
                    <g transform="translate(24.442112, 0.646371)" id="Shape" fill="#FFFFFF">
                        <path d="M0.134386673,4.22987874 C0.134386673,4.22987874 1.99624364,4.6022495 3.60985342,7.33297156 C5.22346005,10.0636936 13.7880002,31.2888555 13.7880002,31.2888555 L13.7880002,14.0356547 L5.84408115,1.12678591 L8.07830571,3.85750798 L12.298514,0.382041224 L6.83706985,0.00967046515 L0.134386673,4.22987874 L0.134386673,4.22987874 Z"></path>
                    </g>
                    <g transform="translate(7.749562, 0.645537)" id="Shape" fill="#FFFFFF">
                        <path d="M0.318481008,0.134627886 C0.318481008,0.134627886 12.6067319,8.32679726 18.5646705,9.94040388 C24.5226089,11.5540137 30.6046739,13.2965812 30.6046739,13.2965812 L16.5786898,48.0463924 L22.660755,48.2946395 L30.6046739,28.8092594 L30.356427,0.0105042992 L0.318481008,0.134627886 L0.318481008,0.134627886 Z" opacity="0.66822426"></path>
                        <path d="M11.7378636,36.7511333 L24.2255511,48.7541318 L0.690851767,48.5428868 C0.690851767,48.5428868 -0.053889752,40.9713385 0.194357421,36.9993806 C0.442604594,33.0274194 1.68384362,33.0274194 1.68384362,33.0274194 L11.7378636,36.7511333 L11.7378636,36.7511333 Z"></path>
                    </g>
                    <g transform="translate(0.619616, 0.645537)" id="Shape" fill="#FFFFFF">
                        <polygon points="30.6595662 48.7911339 19.1160568 36.875257 8.56553933 32.9032959 0.37337312 14.6571065 9.06203683 0.134627886 3.49599291 0.134627883 0.869867465 2.12060844 0.00100236061 3.85834182 0.00100237121 48.7911336"></polygon>
                        <path d="M37.7346202,29.800203 C37.7346202,29.800203 26.0669871,33.5239138 19.1160568,36.9993806 C12.1651297,40.4748441 8.44141574,48.9152576 8.44141574,48.9152576 C8.44141574,48.9152576 23.3362652,48.1705161 28.9218329,48.4187632 C34.5074006,48.6670103 37.1140023,48.6670103 37.6104965,40.8472148 C38.1069909,33.0274194 37.7346202,29.800203 37.7346202,29.800203 L37.7346202,29.800203 L37.7346202,29.800203 Z" opacity="0.5"></path>
                    </g>
                    <g transform="translate(4.180655, 37.851918)" fill="#8CD8FD">
                        <path d="M0.0364573515,0.00677748333 L0.0364573515,7.33770512 L1.90628911,7.33770512 L1.90628911,5.42830021 L3.60793492,7.12994605 L6.47698892,7.12994605 L4.2015323,4.85448942 C4.2015323,4.85448942 5.83855358,4.82805455 5.96253786,2.46031332 C5.96253786,0.288148973 4.32352211,0.00677748333 2.43063345,0.00677748333 L0.0364573515,0.00677748333 L0.0364573515,0.00677748333 L0.0364573515,0.00677748333 Z M1.99532871,1.99532871 L3.60793492,1.99532871 L3.60793492,3.30124294 L1.99532871,3.30124294 L1.99532871,1.99532871 L1.99532871,1.99532871 L1.99532871,1.99532871 Z" id="Shape"></path>
                        <path d="M10.0880397,0.0364573515 C9.0642947,0.0306955 7.64439711,0.125601432 7.64439711,2.05468844 L7.64439711,7.14973262 L9.5636953,7.14973262 L9.5636953,5.90317812 L11.4236338,5.90317812 L11.4236338,7.12005276 L13.3528252,7.12005276 L13.3528252,1.77767633 C13.3528252,0.102006332 11.4911424,0.0364573515 10.4936645,0.0364573515 C10.3689806,0.0364573515 10.2342894,0.0374071076 10.0880397,0.0364573515 L10.0880397,0.0364573515 L10.0880397,0.0364573515 Z M9.59337517,1.87660923 L11.3939539,1.87660923 L11.3939539,3.88494703 L9.59337517,3.88494703 L9.59337517,1.87660923 L9.59337517,1.87660923 L9.59337517,1.87660923 Z" id="Shape"></path>
                        <rect id="Rectangle-path" x="15.2757356" y="0.041250453" width="1.98597979" height="7.0129915"></rect>
                        <polygon id="Shape" points="19.3407918 0.134339186 19.3407918 7.14732974 24.1195579 7.14732974 24.1195579 5.28547594 21.2957439 5.28547594 21.2957439 0.103307497"></polygon>
                        <path d="M30.4498671,0.0722758091 L30.4498671,1.96516445 L27.2536824,1.96516445 L27.2536824,2.64784577 L28.6190418,2.64784577 C29.3327548,2.64784577 30.8222379,2.61682041 30.8222379,4.8510418 C30.8222379,7.08526953 29.7982174,7.20939312 27.719145,7.20939312 L25.2056415,7.20939312 L25.2056415,5.50269142 L28.0915158,5.50269142 C28.9603841,5.50269142 29.0083024,5.21985098 29.0083024,4.97338618 C29.0083024,4.72691821 28.564073,4.61227636 27.6606306,4.61227636 C26.757188,4.61227636 25.0815148,4.1683605 25.0815148,2.43062712 C25.0815148,0.692896908 25.9503832,0.0412472879 27.6881165,0.0412472879 C29.4258467,0.0412472879 30.4498671,0.0722726439 30.4498671,0.0722726439 L30.4498671,0.0722758091 L30.4498671,0.0722758091 Z" id="Shape"></path>
                    </g>
                    <g transform="translate(2.281143, 2.559438)" id="Shape" fill="#8CD8FD">
                        <path d="M3.67679538,33.2236232 L20.1852545,33.2236232 C20.1852545,33.2236232 16.5236039,24.9073333 17.4545292,17.2737218 C18.3854577,9.64011326 24.4054597,6.1646465 27.818863,5.79227574 C31.2322664,5.41990498 33.0941233,7.53000912 33.0941233,7.53000912 L33.8388648,6.41289685 C33.8388648,6.41289685 28.9359753,1.44794705 22.7297897,2.00650161 C16.5236039,2.56505933 12.2413323,6.66114402 9.57267365,11.6260938 C6.9040118,16.5910436 5.35246538,20.0665071 4.29741332,25.2797041 C3.24236124,30.4929011 3.67679538,33.2236232 3.67679538,33.2236232 L3.67679538,33.2236232 L3.67679538,33.2236232 Z"></path>
                        <polygon points="0.387515591 24.9073333 3.61473517 25.1555806 3.05617745 28.382797 0.0151448318 28.0104262"></polygon>
                        <polygon points="5.47658897 18.0805267 6.34545724 15.6601152 3.49061159 14.5429997 2.55968311 17.1495982"></polygon>
                        <polygon points="9.51061029 9.76423685 11.1862835 7.77825629 9.01411594 6.35083347 7.27638573 8.27475064"></polygon>
                        <polygon points="13.9170055 2.06856498 15.4064885 3.86835858 17.4545292 2.68918291 15.9650462 1.01351292"></polygon>
                        <polygon points="21.1782432 0.020524223 21.5506139 1.8203178 24.0951523 1.75825444 23.846902 0.14464781"></polygon>
                        <polygon points="29.8048436 1.94444139 29.7427802 3.06155368 31.4805136 3.99248215 31.8528844 3.43392444"></polygon>
                        <polygon points="29.4324729 6.72320423 29.4324729 7.65413271 31.1081429 7.84031967 31.1081429 7.09557498"></polygon>
                        <polygon points="24.0951523 7.53000912 24.9019539 9.01949532 26.0811297 8.08856685 25.8328824 7.09557498"></polygon>
                        <polygon points="21.5506139 9.45392629 22.791853 11.3157833 22.0471083 12.6190825 20.2473147 10.633102"></polygon>
                        <polygon points="19.0681391 14.605063 18.2613342 16.2186697 20.3714383 18.0184664 20.8679327 15.9704226"></polygon>
                        <polygon points="18.1992739 20.2526911 18.0751505 22.4248585 20.6817489 23.5419708 20.5576253 21.49393"></polygon>
                        <polygon points="18.9440155 27.9483629 19.5646335 30.1825906 22.8539132 30.3687776 21.6747376 27.9483629"></polygon>
                    </g>
                    <path d="M1.09548621,49.3155718 C1.09563348,49.2924458 1.09563348,49.2924458 1.09633191,49.1798444 C1.09728754,49.0239238 1.09728754,49.0239238 1.09872083,48.7842015 C1.10129328,48.3509433 1.10415965,47.8480691 1.10724647,47.2812524 C1.11606575,45.6618153 1.12488495,43.8546939 1.13311618,41.9052756 C1.15663415,36.3354656 1.17074499,30.7411662 1.17074499,25.4854221 C1.17074499,22.7772671 1.14749574,20.4123145 1.09761655,17.1032532 C0.94521152,6.99246989 1.01851201,5.06679179 1.86244311,3.24967217 C2.71023077,1.42424873 4.30193344,0.96212242 9.17429286,0.96212242 L38.2301121,0.96212242 L37.7552342,0.487244517 L37.7552342,34.0453274 C37.7552342,35.0752236 37.7663894,35.96385 37.793317,37.4606715 C37.8971027,43.2298095 37.76939,44.8702291 36.8381967,46.3906529 C35.7490668,48.1689503 33.4043923,48.9450047 28.6856741,48.9450047 C26.0214508,48.9450047 22.8873156,48.9388627 19.3791597,48.9274809 C16.5572894,48.9183258 13.5660638,48.9060205 10.4880625,48.8913426 C8.02634311,48.8796035 5.6492235,48.8670259 3.44573802,48.8544485 C2.67452385,48.8500464 1.9801038,48.8459586 1.37360684,48.8422903 C1.16133814,48.8410065 1.03725856,48.8402465 0.816653805,48.8388841 C0.656703035,48.8378886 0.656703035,48.8378886 0.623624636,48.8376791 L1.09548621,49.3155718 L1.09548621,49.3155718 L1.09548621,49.3155718 Z M0.142725313,49.7844091 L0.617611229,49.7874159 C0.65075208,49.7876258 0.65075208,49.7876258 0.810768985,49.7886217 C1.03144183,49.7899845 1.15554638,49.7907445 1.36786241,49.7920288 C1.97446467,49.7956977 2.66899223,49.7997861 3.44031688,49.8041888 C5.64408517,49.8167679 8.02149835,49.829347 10.4835335,49.8410876 C13.5619889,49.8557676 16.5536874,49.8680748 19.3760783,49.8772318 C22.8851826,49.8886167 26.0202983,49.8947605 28.6856741,49.8947605 C33.7019953,49.8947605 36.34072,49.0213797 37.6481208,46.8866962 C38.7192653,45.1377647 38.8509153,43.4467715 38.7429191,37.4435883 C38.716087,35.9520717 38.70499,35.0680827 38.70499,34.0453274 L38.70499,0.487244517 L38.70499,0.0123666121 L38.2301121,0.0123666121 L9.17429286,0.0123666121 C3.94983123,0.0123666121 2.06455477,0.559727552 1.00105468,2.84961459 C0.469458368,3.99422711 0.212578561,5.57891615 0.119387271,8.02714564 C0.0475644668,9.91400338 0.0550597273,10.9538492 0.147968626,17.1175677 C0.197782045,20.4222664 0.220989182,22.7829347 0.220989182,25.4854221 C0.220989182,30.739678 0.206881585,36.3326935 0.183368838,41.9012655 C0.175139312,43.8502808 0.166321992,45.657017 0.15750475,47.2760803 C0.154418791,47.8427386 0.151553298,48.3454574 0.148981761,48.7785624 C0.147549116,49.0181768 0.147549116,49.0181768 0.146594121,49.1739941 C0.145896322,49.2864942 0.142725313,49.7844091 0.142725313,49.7844091 L0.142725313,49.7844091 Z" id="Shape" fill="#FFFFFF"></path>
                </g>
            </g>
        </g>
    </g>
</svg>