<?xml version="1.0" encoding="UTF-8" standalone="no"?>
<svg width="56px" height="50px" viewBox="0 0 56 50" version="1.1" xmlns="http://www.w3.org/2000/svg" xmlns:xlink="http://www.w3.org/1999/xlink">
    <!-- Generator: sketchtool 39.1 (31720) - http://www.bohemiancoding.com/sketch -->
    <title>AD14E7EC-C9EE-4F0C-B2E0-3F35B2601FC3</title>
    <desc>Created with sketchtool.</desc>
    <defs></defs>
    <g id="Finals" stroke="none" stroke-width="1" fill="none" fill-rule="evenodd">
        <g id="Services-4" transform="translate(-1151.000000, -1263.000000)">
            <g id="react" transform="translate(1151.000000, 1263.000000)">
                <g id="Group">
                    <path d="M46.0456814,16.2559698 C45.4654787,16.0562638 44.86427,15.8673096 44.2452411,15.6886096 C44.3469859,15.2733684 44.4403676,14.8635032 44.523396,14.4606068 C45.886295,7.84492233 44.9951842,2.51528082 41.9523057,0.76053604 C39.0345671,-0.922031832 34.2628282,0.832314728 29.4436017,5.0263399 C28.9801762,5.42963453 28.5154564,5.85662309 28.0509361,6.30411983 C27.7414215,6.00804522 27.432405,5.72192606 27.1241849,5.44825119 C22.0734946,0.963726436 17.0109572,-0.926113564 13.9710655,0.83370849 C11.0561144,2.52115453 10.1928788,7.53152527 11.4196869,13.8012584 C11.5381565,14.4068475 11.6766366,15.025279 11.8332356,15.6540642 C11.116743,15.8574537 10.4250395,16.0742831 9.76320223,16.3049505 C3.8418097,18.3694088 0.0601385891,21.6049248 0.0601385891,24.961001 C0.0601385891,28.4271847 4.11976542,31.9038213 10.2873558,34.0118842 C10.774077,34.1782396 11.2791161,34.3355354 11.7995862,34.4848668 C11.6306425,35.1649228 11.4837003,35.8313394 11.3603525,36.4813297 C10.190589,42.64225 11.1040996,47.5342505 14.0112854,49.2110443 C17.0141429,50.9426926 22.0537827,49.1627604 26.9611146,44.8731631 C27.3489785,44.5340809 27.7382359,44.1744908 28.1281901,43.7975782 C28.6336277,44.2842993 29.1382683,44.7449371 29.6402215,45.177003 C34.3935431,49.2673921 39.088227,50.9190983 41.9927248,49.2376255 C44.9925955,47.5009993 45.9675314,42.2458245 44.7017973,35.8520468 C44.60513,35.3637327 44.4926337,34.8648658 44.3662993,34.3571389 C44.7202149,34.2525069 45.0676597,34.1444906 45.4064431,34.0321933 C51.8182403,31.9078035 55.9899651,28.4734772 55.9899651,24.961001 C55.9899651,21.5927792 52.0863399,18.3354608 46.0456814,16.2559698 L46.0456814,16.2559698 L46.0456814,16.2559698 L46.0456814,16.2559698 Z" id="Shape" fill="#FFFFFF"></path>
                    <path d="M44.6550069,31.764246 C44.349176,31.8654926 44.0353807,31.9633547 43.7156121,32.05823 C43.0077809,29.8173614 42.0524574,27.4345282 40.8833908,24.972649 C41.9989968,22.5694072 42.9173854,20.2170378 43.6054054,17.9907041 C44.1775443,18.156263 44.7328584,18.3308813 45.2679631,18.5151564 C50.4435938,20.2968804 53.6006611,22.9311876 53.6006611,24.961001 C53.6006611,27.1231223 50.1911243,29.9298577 44.6550069,31.764246 L44.6550069,31.764246 L44.6550069,31.764246 L44.6550069,31.764246 Z M42.3578901,36.3160693 C42.9175844,39.1433131 42.9975265,41.6994703 42.6267861,43.697725 C42.2936775,45.4932871 41.6237762,46.690428 40.7954842,47.1698817 C39.0328745,48.1901146 35.2635485,46.8639512 31.198446,43.3658109 C30.7324322,42.9648059 30.2630334,42.5366228 29.7921413,42.0834512 C31.3680866,40.3598671 32.9431359,38.3561371 34.4803545,36.1307988 C37.1841505,35.890873 39.7386156,35.4986287 42.0551453,34.963126 C42.1692347,35.4233656 42.2705809,35.874745 42.3578901,36.3160693 L42.3578901,36.3160693 L42.3578901,36.3160693 L42.3578901,36.3160693 Z M19.1278807,46.993571 C17.4057897,47.6017485 16.0342296,47.6191705 15.205141,47.1411104 C13.4409386,46.1235656 12.7075218,42.1957488 13.7079433,36.9269349 C13.8225304,36.3235359 13.9589199,35.7037109 14.1161161,35.070147 C16.4072597,35.576779 18.9430082,35.9413468 21.6532755,36.1610634 C23.2008478,38.3386156 24.8213933,40.3401554 26.4544827,42.0927099 C26.09768,42.4371678 25.7422708,42.7651 25.388853,43.0741166 C23.2188671,44.9709255 21.0443017,46.316701 19.1278807,46.993571 L19.1278807,46.993571 L19.1278807,46.993571 L19.1278807,46.993571 Z M11.0600966,31.7510052 C8.33290505,30.818878 6.08068725,29.6074012 4.53689809,28.2854193 C3.14970797,27.0974374 2.44934317,25.9180171 2.44934317,24.961001 C2.44934317,22.9244181 5.48565097,20.3267467 10.5496815,18.5611505 C11.1641309,18.3469095 11.8073515,18.1450133 12.4748633,17.9553623 C13.1747303,20.2319709 14.0928204,22.6122156 15.2007607,25.0191408 C14.0784846,27.4618059 13.1473529,29.8799812 12.4406166,32.18327 C11.9647469,32.0464824 11.5037107,31.902527 11.0600966,31.7510052 L11.0600966,31.7510052 L11.0600966,31.7510052 L11.0600966,31.7510052 Z M13.7644902,13.3424125 C12.7133955,7.97065948 13.4114705,3.91839968 15.1681068,2.90155166 C17.0392306,1.81830089 21.1768084,3.36278688 25.5376869,7.2349529 C25.8164389,7.482445 26.0962861,7.74148537 26.37693,8.00948567 C24.7519045,9.75437455 23.1461926,11.7408818 21.6123589,13.9055914 C18.981934,14.1494 16.4640056,14.5410467 14.1489691,15.065499 C14.0034206,14.4800199 13.8744977,13.904795 13.7644902,13.3424125 L13.7644902,13.3424125 L13.7644902,13.3424125 L13.7644902,13.3424125 Z M37.8900903,19.2996446 C37.3366681,18.3437238 36.7685111,17.4104019 36.1893042,16.5025659 C37.9738158,16.728156 39.6835616,17.0276154 41.2891743,17.394075 C40.8071319,18.9389592 40.2063218,20.5542283 39.4990876,22.2101156 C38.9917589,21.2469274 38.4551609,20.2757749 37.8900903,19.2996446 L37.8900903,19.2996446 L37.8900903,19.2996446 L37.8900903,19.2996446 Z M28.0517324,9.71704168 C29.153799,10.9109969 30.2574584,12.2440295 31.342999,13.6903549 C30.2490958,13.6386862 29.1416532,13.6118065 28.025052,13.6118065 C26.9190032,13.6118065 25.8197243,13.6380889 24.7325908,13.6888616 C25.8192265,12.255976 26.9324431,10.9247353 28.0517324,9.71704168 L28.0517324,9.71704168 L28.0517324,9.71704168 L28.0517324,9.71704168 Z M18.1503566,19.3161706 C17.5975314,20.2747793 17.0708889,21.2406555 16.5715244,22.2083238 C15.8757391,20.5582105 15.2805037,18.9355743 14.7942803,17.3687881 C16.3900368,17.0116867 18.0917191,16.7196939 19.8648814,16.4983846 C19.2775108,17.4145831 18.7046751,18.3547743 18.1503566,19.3159715 L18.1503566,19.3161706 L18.1503566,19.3161706 L18.1503566,19.3161706 Z M19.9159528,33.5940547 C18.0839539,33.3896696 16.3566861,33.1127097 14.7613278,32.7654639 C15.2553164,31.170703 15.863693,29.513422 16.5742123,27.8277678 C17.0748711,28.7947391 17.6036042,29.7610136 18.1598143,30.7217131 L18.1599138,30.7217131 C18.7264776,31.7004317 19.31345,32.6591399 19.9159528,33.5940547 L19.9159528,33.5940547 L19.9159528,33.5940547 L19.9159528,33.5940547 Z M28.1178366,40.3734064 C26.9854059,39.151576 25.8558624,37.8000265 24.7527007,36.3462344 C25.8236067,36.3882463 26.9154191,36.4097502 28.025052,36.4097502 C29.1650488,36.4097502 30.2920037,36.3840651 31.4012384,36.3346861 C30.3121136,37.8146611 29.2124366,39.1683012 28.1178366,40.3734064 L28.1178366,40.3734064 L28.1178366,40.3734064 L28.1178366,40.3734064 Z M39.5218856,27.7418525 C40.2694391,29.445725 40.8996181,31.0943448 41.3999782,32.6619275 C39.7783376,33.0318713 38.0274755,33.3298376 36.1827337,33.5512465 C36.7633347,32.6311651 37.3364688,31.6818149 37.8996475,30.7052864 C38.4693973,29.7173094 39.0103755,28.7278389 39.5218856,27.7418525 L39.5218856,27.7418525 L39.5218856,27.7418525 L39.5218856,27.7418525 Z M35.8300124,29.51163 C34.9557262,31.0275438 34.0581443,32.4746656 33.1469235,33.840651 C31.487253,33.9593196 29.7726287,34.020446 28.025052,34.020446 C26.2845436,34.020446 24.5915223,33.9663879 22.9612205,33.8605616 C22.0132641,32.4766569 21.0961696,31.0252542 20.2274583,29.5246715 L20.2276575,29.5246715 C19.361236,28.0281708 18.5638058,26.5190265 17.8412404,25.0183446 C18.5636067,23.514178 19.3589463,22.0033413 20.22039,20.5095284 L20.2201909,20.5098271 C21.0839243,19.0120321 21.992955,17.5676977 22.9321505,16.1924541 C24.5955045,16.066717 26.3011691,16.0011107 28.0249525,16.0011107 L28.025052,16.0011107 C29.7566005,16.0011107 31.4644552,16.0672147 33.1273111,16.194047 C34.052171,17.5592356 34.9550295,18.9988909 35.8221478,20.496885 C36.699122,22.011704 37.5047156,23.5124854 38.2332542,24.9843965 C37.5069059,26.4815941 36.7031042,27.9975082 35.8300124,29.51163 L35.8300124,29.51163 L35.8300124,29.51163 L35.8300124,29.51163 Z M40.7588483,2.83046985 C42.6317641,3.91053488 43.3601035,8.26643542 42.1833713,13.9783656 C42.1083072,14.342834 42.0237859,14.7140722 41.9319965,15.090288 C39.6115839,14.5548848 37.0918636,14.1564683 34.4537735,13.9089762 C32.916953,11.7204732 31.3243822,9.73087973 29.7258381,8.00839054 C30.1556144,7.59494141 30.5847931,7.20070621 31.0121797,6.82867166 C35.1412955,3.2352578 39.0005196,1.81650891 40.7588483,2.83046985 L40.7588483,2.83046985 L40.7588483,2.83046985 L40.7588483,2.83046985 Z" id="Shape" fill="#8CD8FD"></path>
                    <path d="M28.025052,19.9666586 C30.7833045,19.9666586 33.0193943,22.202649 33.0193943,24.961001 C33.0193943,27.7192535 30.7833045,29.9553438 28.025052,29.9553438 C25.2667995,29.9553438 23.0307094,27.7192535 23.0307094,24.961001 C23.0307094,22.202649 25.2667995,19.9666586 28.025052,19.9666586" id="Shape" fill="#FFFFFF"></path>
                </g>
            </g>
        </g>
    </g>
</svg>