<?xml version="1.0" encoding="UTF-8" standalone="no"?>
<svg width="53px" height="50px" viewBox="0 0 53 50" version="1.1" xmlns="http://www.w3.org/2000/svg" xmlns:xlink="http://www.w3.org/1999/xlink">
    <!-- Generator: sketchtool 39.1 (31720) - http://www.bohemiancoding.com/sketch -->
    <title>5EAB75A6-6ACB-4B90-B2EA-2C716C32D4BA</title>
    <desc>Created with sketchtool.</desc>
    <defs></defs>
    <g id="Finals" stroke="none" stroke-width="1" fill="none" fill-rule="evenodd">
        <g id="Services-4" transform="translate(-708.000000, -1263.000000)" fill="#FFFFFF">
            <g id="redux-seeklogo.com" transform="translate(708.000000, 1263.000000)">
                <path d="M36.3485559,34.7813016 C38.2844887,34.5810256 39.7531275,32.9120572 39.6863711,30.9092951 C39.6196148,28.906533 37.9507072,27.3043232 35.948018,27.3043232 L35.8145055,27.3043232 C33.74506,27.371082 32.1429088,29.1068092 32.2096652,31.1763299 C32.2764215,32.1777111 32.6769592,33.0455746 33.277766,33.6464033 C31.0080516,38.1192385 27.536724,41.3904166 22.3297322,44.1275248 C18.7916481,45.9967695 15.1200515,46.6643568 11.4484548,46.1970457 C8.44442111,45.7964932 6.10795049,44.4613184 4.63931182,42.2582803 C2.5031101,38.987102 2.30284119,35.4488891 4.10526139,31.910676 C5.37363115,29.3738441 7.37632025,27.5045994 8.64469002,26.569977 C8.37766482,25.7021135 7.97712699,24.2334213 7.77685807,23.1652816 C-1.90280592,30.174949 -0.901461367,39.6546895 2.03581598,44.1275248 C4.238774,47.4654617 8.71144633,49.5349826 13.6514128,49.5349826 C14.9865389,49.5349826 16.3216649,49.401465 17.656791,49.0676713 C26.2015977,47.3987029 32.6769592,42.3250389 36.3485559,34.7813016 L36.3485559,34.7813016 Z M48.0976654,26.5032184 C43.0241863,20.5616908 35.5474803,17.2905128 27.0026734,17.2905128 L25.9345725,17.2905128 C25.3337658,16.0888555 24.0653961,15.2877507 22.6635137,15.2877507 L22.5300012,15.2877507 C20.4605557,15.3545094 18.8584044,17.0902366 18.9251607,19.1597574 C18.991917,21.1625195 20.6608246,22.7647291 22.6635137,22.7647291 L22.7970264,22.7647291 C24.265665,22.6979705 25.5340348,21.7633482 26.0680852,20.4949322 L27.2696988,20.4949322 C32.3431777,20.4949322 37.1496316,21.9636244 41.4887914,24.83425 C44.8266066,27.0372883 47.2298334,29.9079139 48.5649594,33.3793682 C49.6998166,36.1832352 49.6330602,38.9203434 48.4314469,41.2568992 C46.5622703,44.7951123 43.4247242,46.7311156 39.2858332,46.7311156 C36.6155811,46.7311156 34.0788416,45.9300107 32.7437156,45.3291822 C32.0093963,45.9967695 30.6742701,47.0649092 29.739682,47.7324967 C32.6102029,49.0676713 35.5474803,49.8020174 38.3512451,49.8020174 C44.7598502,49.8020174 49.4995477,46.2638045 51.3019678,42.7255914 C53.2379006,38.8535846 53.1043881,32.1777111 48.0976654,26.5032184 L48.0976654,26.5032184 Z M14.1854632,35.9162002 C14.2522195,37.9189623 15.9211271,39.5211721 17.9238162,39.5211721 L18.0573288,39.5211721 C20.1267742,39.4544133 21.7289254,37.7186861 21.6621693,35.6491654 C21.5954129,33.6464033 19.9265053,32.0441934 17.9238162,32.0441934 L17.7903036,32.0441934 C17.656791,32.0441934 17.4565221,32.0441934 17.3230095,32.1109523 C14.586001,27.5713582 13.4511439,22.6312117 13.8516817,17.2905128 C14.1187069,13.2849886 15.453833,9.81353426 17.7903036,6.94290861 C19.7262364,4.47283535 23.4645893,3.27117809 26.0013289,3.20441934 C33.0774971,3.07090189 36.0815307,11.8830551 36.2817996,15.4212681 C37.1496316,15.6215443 38.6182703,16.0888555 39.6196148,16.4226492 C38.8185391,5.60773387 32.1429088,0 25.7343037,0 C19.7262364,0 14.1854632,4.33931787 11.9825052,10.7481566 C8.91171523,19.2932749 10.9144043,27.5045994 14.6527573,33.9801969 C14.3189758,34.447508 14.1187069,35.1818541 14.1854632,35.9162002 L14.1854632,35.9162002 Z" id="Shape"></path>
            </g>
        </g>
    </g>
</svg>