<?xml version="1.0" encoding="UTF-8" standalone="no"?>
<svg width="50px" height="50px" viewBox="0 0 50 50" version="1.1" xmlns="http://www.w3.org/2000/svg" xmlns:xlink="http://www.w3.org/1999/xlink">
    <!-- Generator: sketchtool 39.1 (31720) - http://www.bohemiancoding.com/sketch -->
    <title>F1AE9BAD-A23D-4340-88A1-C16D9A260C7A</title>
    <desc>Created with sketchtool.</desc>
    <defs></defs>
    <g id="Finals" stroke="none" stroke-width="1" fill="none" fill-rule="evenodd">
        <g id="Services-4" transform="translate(-1154.000000, -1120.000000)" fill="#FFFFFF">
            <g id="ruby-copy" transform="translate(1154.000000, 1120.000000)">
                <g id="Group">
                    <polygon id="Shape" fill-opacity="0.5" points="38.7190857 32.8948271 10.1855158 49.8378953 47.1310908 47.3308661 49.9766282 10.0770519"></polygon>
                    <polygon id="Shape" points="47.1916288 47.3053896 44.0161592 25.3881171 35.3665425 36.8096167"></polygon>
                    <polygon id="Shape" points="47.2345098 47.3053896 23.9705192 45.4791606 10.3091142 49.7902218"></polygon>
                    <polygon id="Shape" fill-opacity="0.5" points="10.336988 49.7950143 16.1486345 30.7558182 3.35998535 33.4903694"></polygon>
                    <polygon id="Shape" fill-opacity="0.5" points="35.3642724 36.8726771 30.0167504 15.9265346 14.7132525 30.2715145"></polygon>
                    <polygon id="Shape" fill-opacity="0.5" points="48.7643736 16.2216573 34.298318 4.40666075 30.2700195 17.4298946"></polygon>
                    <polygon id="Shape" fill-opacity="0.5" points="41.9958055 0.194226032 33.4876963 4.89600945 28.1199951 0.131165632"></polygon>
                    <polygon id="Shape" fill-opacity="0.5" points="0 39.8768745 3.5641738 33.3766086 0.68105232 25.6327914"></polygon>
                    <path d="M0.489348704,25.3881171 L3.3901271,33.616238 L15.9946399,30.7883575 L30.3850231,17.4145078 L34.4461129,4.51512465 L28.0515361,0 L17.1799231,4.06865702 C13.7547345,7.25446841 7.10816829,13.557986 6.86853876,13.6765396 C6.63143167,13.7976155 2.47953492,21.6448518 0.489348704,25.3881171 L0.489348704,25.3881171 L0.489348704,25.3881171 Z" id="Shape"></path>
                    <path d="M10.6748645,10.6067593 C18.0983348,3.24634939 27.6683812,-1.10229579 31.3410188,2.60313331 C35.0113863,6.30856241 31.1190463,15.3135875 23.6955759,22.6714751 C16.2721056,30.0293625 6.82061286,34.6176373 3.15049759,30.912208 C-0.522140112,27.2093014 3.25139424,17.9646468 10.6748645,10.6067593 L10.6748645,10.6067593 L10.6748645,10.6067593 Z" id="Shape"></path>
                    <path d="M10.3419056,49.7874471 L16.1081486,30.6877131 L35.2583308,36.8398857 C28.334299,43.3325845 20.6333629,48.8213618 10.3419056,49.7874471 L10.3419056,49.7874471 L10.3419056,49.7874471 Z" id="Shape"></path>
                    <path d="M30.4102473,17.3769238 L35.3264361,36.8499753 C41.1103361,30.7684304 46.301468,24.230328 48.8438112,16.1434624 L30.4102473,17.3769238 L30.4102473,17.3769238 L30.4102473,17.3769238 Z" id="Shape"></path>
                    <path d="M48.7936151,16.2418366 C50.7610996,10.3040694 51.2151345,1.78587053 41.9374363,0.204315696 L34.3247847,4.40918318 L48.7936151,16.2418366 L48.7936151,16.2418366 L48.7936151,16.2418366 Z" id="Shape"></path>
                    <path d="M0,39.7911124 C0.272420927,49.5909508 7.34275298,49.7369986 10.3545177,49.8230131 L3.39769435,33.5758794 L0,39.7911124 L0,39.7911124 L0,39.7911124 Z" id="Shape"></path>
                    <path d="M30.4377416,17.4071928 C34.8822386,20.1389694 43.8395902,25.6252241 44.0212041,25.7261208 C44.3034624,25.8850329 47.8830229,19.6899792 48.695241,16.1888659 L30.4377416,17.4071928 L30.4377416,17.4071928 L30.4377416,17.4071928 Z" id="Shape"></path>
                    <path d="M16.1005813,30.6877131 L23.8090847,45.5598778 C28.3670904,43.0879102 31.936309,40.0761455 35.2053602,36.8499753 L16.1005813,30.6877131 L16.1005813,30.6877131 L16.1005813,30.6877131 Z" id="Shape"></path>
                    <path d="M3.36742535,33.5960586 L2.27521924,46.6016357 C4.3360331,49.416652 7.17122869,49.6613263 10.1451572,49.4418761 C7.99353631,44.0867869 3.69533945,33.379131 3.36742535,33.5960586 L3.36742535,33.5960586 L3.36742535,33.5960586 Z" id="Shape"></path>
                    <path d="M34.2796335,4.44197459 L49.593221,6.59107302 C48.7759582,3.12779584 46.2661543,0.892935265 41.9881367,0.194226032 L34.2796335,4.44197459 L34.2796335,4.44197459 L34.2796335,4.44197459 Z" id="Shape"></path>
                </g>
            </g>
        </g>
    </g>
</svg>