<?xml version="1.0" encoding="UTF-8" standalone="no"?>
<svg width="50px" height="50px" viewBox="0 0 50 50" version="1.1" xmlns="http://www.w3.org/2000/svg" xmlns:xlink="http://www.w3.org/1999/xlink">
    <!-- Generator: sketchtool 39.1 (31720) - http://www.bohemiancoding.com/sketch -->
    <title>CFA5A9B1-C1B3-4EB7-821D-61CE40A80C6C</title>
    <desc>Created with sketchtool.</desc>
    <defs></defs>
    <g id="Finals" stroke="none" stroke-width="1" fill="none" fill-rule="evenodd">
        <g id="Services-4" transform="translate(-1073.000000, -1609.000000)" fill="#FFFFFF">
            <g id="slack-1" transform="translate(1073.000000, 1609.000000)">
                <g id="Group">
                    <path d="M32.4147541,3.09344262 C31.654918,0.754508197 29.1430328,-0.525409836 26.8045082,0.234836066 C24.4655738,0.994672131 23.1856557,3.50655738 23.9459016,5.84508197 L35.4590164,41.2680328 C36.2495902,43.4528689 38.6098361,44.6807377 40.8754098,44.0286885 C43.2385246,43.3483607 44.6790984,40.8385246 43.925,38.517623 C43.8963115,38.4290984 32.4147541,3.09344262 32.4147541,3.09344262" id="Shape"></path>
                    <path d="M14.5754098,8.8897541 C13.8151639,6.55122951 11.3032787,5.27131148 8.9647541,6.03114754 C6.62581967,6.79098361 5.34590164,9.30286885 6.10614754,11.6418033 L17.6192623,47.0647541 C18.4098361,49.2495902 20.770082,50.477459 23.0356557,49.825 C25.3987705,49.145082 26.8393443,46.6352459 26.0852459,44.3139344 C26.0565574,44.2258197 14.5754098,8.8897541 14.5754098,8.8897541" id="Shape"></path>
                    <path d="M46.9065574,32.4307377 C49.2454918,31.6709016 50.525,29.1590164 49.7651639,26.820082 C49.0053279,24.4815574 46.4934426,23.2016393 44.154918,23.9614754 L8.73196721,35.475 C6.54713115,36.2651639 5.3192623,38.6254098 5.97131148,40.8909836 C6.65163934,43.2540984 9.16147541,44.6946721 11.4823771,43.9405738 C11.5709016,43.9118852 46.9065574,32.4307377 46.9065574,32.4307377" id="Shape"></path>
                    <path d="M16.1147541,42.4356557 C18.4204918,41.6864754 21.3922131,40.7209016 24.5811475,39.6848361 C23.8319672,37.3790984 22.8663934,34.4069672 21.829918,31.217623 L13.3631147,33.9696721 L16.1147541,42.4356557" id="Shape"></path>
                    <path d="M33.9545082,36.6389344 C37.1553279,35.5991803 40.1303279,34.632377 42.4209016,33.8881148 C41.6717213,31.582377 40.7057377,28.6094262 39.6692623,25.4192623 L31.202459,28.1713115 L33.9545082,36.6389344" id="Shape"></path>
                    <path d="M41.1102459,14.5909836 C43.4487705,13.8311475 44.7286885,11.3192623 43.9688525,8.98032787 C43.2090164,6.64180328 40.6971311,5.36188525 38.3581967,6.12172131 L2.9352459,17.6352459 C0.750409836,18.4254098 -0.477459016,20.7856557 0.175,23.0512295 C0.854918033,25.4143443 3.3647541,26.854918 5.68606557,26.1008197 C5.77418033,26.0721311 41.1102459,14.5909836 41.1102459,14.5909836" id="Shape"></path>
                    <path d="M10.3168033,24.5963115 C12.622541,23.8471311 15.595082,22.8811475 18.7844262,21.845082 C17.7446721,18.6438525 16.7778688,15.6688525 16.0336066,13.3778688 L7.5647541,16.1303279 L10.3168033,24.5963115" id="Shape"></path>
                    <path d="M28.1561475,18.8 C31.3577869,17.7598361 34.3331967,16.7930328 36.6241803,16.0483607 C35.5840164,12.8467213 34.6172131,9.87090164 33.872541,7.5795082 L25.4040984,10.3319672 L28.1561475,18.8" id="Shape"></path>
                </g>
            </g>
        </g>
    </g>
</svg>