<?xml version="1.0" encoding="UTF-8" standalone="no"?>
<svg width="50px" height="50px" viewBox="0 0 50 50" version="1.1" xmlns="http://www.w3.org/2000/svg" xmlns:xlink="http://www.w3.org/1999/xlink">
    <!-- Generator: sketchtool 39.1 (31720) - http://www.bohemiancoding.com/sketch -->
    <title>BE299C12-988D-42BB-8F8B-BD9BB2E4497A</title>
    <desc>Created with sketchtool.</desc>
    <defs>
        <path d="M16.9999997,-7.10542736e-15 C11.4583333,-7.10542736e-15 9.6875,-3.89024043e-09 7.1875,0.833333333 C4.24166679,1.875 1.875,4.24166679 0.833333333,7.1875 C1.42108547e-14,9.6875 1.42108547e-14,11.4583333 1.42108547e-14,16.9999997 C1.42108547e-14,16.9999997 3.09497311e-08,32.9999987 1.42108547e-14,32.9999987 C3.09497311e-08,38.5416667 2.48331956e-08,40.3125 0.833333333,42.8125 C1.87693278,45.7583332 4.24166679,48.125 7.1875,49.1666667 C9.6875,50 11.4583333,50 16.9999997,50 L32.9999987,50 C38.5416667,50 40.3125,50 42.8125,49.1666667 C45.7583332,48.125 48.125,45.7583332 49.1666667,42.8125 C50,40.3125 50,38.5416667 50,32.9999987 L50,16.9999997 C50,11.4583333 50,9.6875 49.1666667,7.1875 C48.125,4.27083333 45.7249991,1.875 42.8083324,0.833333333 C40.3083324,2.33454026e-09 38.5416667,8.79436849e-09 32.9999987,-7.10542736e-15 C35.9166654,8.79436849e-09 16.9999997,-7.10542736e-15 16.9999997,-7.10542736e-15 Z" id="path-1"></path>
    </defs>
    <g id="Finals" stroke="none" stroke-width="1" fill="none" fill-rule="evenodd">
        <g id="Services-4" transform="translate(-710.000000, -1120.000000)">
            <g id="swift-icon" transform="translate(710.000000, 1120.000000)">
                <mask id="mask-2" fill="white">
                    <use xlink:href="#path-1"></use>
                </mask>
                <use id="iconbase" fill="#FFFFFF" transform="translate(25.000000, 25.000000) scale(-1, -1) translate(-25.000000, -25.000000) " xlink:href="#path-1"></use>
                <rect id="shdw-2" fill="#FFFFFF" mask="url(#mask-2)" transform="translate(10.947752, 12.453418) rotate(44.000000) translate(-10.947752, -12.453418) " x="-14.6986241" y="-3.32783244" width="51.2927529" height="31.5625" rx="15.78125"></rect>
                <path d="M28.4667969,7.421875 C44.4042969,17.734375 39.5312494,30.703125 39.5312494,30.703125 C39.5312494,30.703125 41.2499994,32.65625 42.1093744,35.078125 C42.9687494,37.5 42.9592803,40.46875 42.8030303,40.546875 C42.6467803,40.625 40.6321622,37.1875 37.1093744,37.1875 C33.5865866,37.1875 31.7968732,40.546875 25.5468744,40.546875 C11.474392,40.546875 5.37109375,29.0039065 5.37109375,29.0039065 C5.37109375,29.0039065 11.5625,33.4375 18.0468756,33.28125 C24.5312511,33.125 26.3281244,31.25 26.3281244,31.25 C26.3281244,31.25 23.4287426,28.8238986 18.4375,23.9453125 C13.4462574,19.0667264 8.75,12.34375 8.75,12.34375 C8.75,12.34375 16.2739676,18.3068648 18.6873156,20.0609631 C21.1006637,21.8150615 23.5140118,23.4047131 23.5140118,23.4047131 C23.5140118,23.4047131 21.1767146,20.8831972 19.53125,18.855021 C17.8857854,16.8268448 13.671875,10.703125 13.671875,10.703125 C13.671875,10.703125 20.1348175,16.538166 23.0752212,18.8550205 C26.015625,21.171875 31.640625,25.078125 31.640625,25.078125 C31.640625,25.078125 35.0292969,17.34375 28.4667969,7.421875 Z" id="countour" fill="#8CD8FD" mask="url(#mask-2)"></path>
            </g>
        </g>
    </g>
</svg>