<?xml version="1.0" encoding="UTF-8" standalone="no"?>
<svg width="50px" height="50px" viewBox="0 0 50 50" version="1.1" xmlns="http://www.w3.org/2000/svg" xmlns:xlink="http://www.w3.org/1999/xlink">
    <!-- Generator: sketchtool 39.1 (31720) - http://www.bohemiancoding.com/sketch -->
    <title>EA4E3FB4-9896-43CF-9B02-EC9EEB39F6A4</title>
    <desc>Created with sketchtool.</desc>
    <defs></defs>
    <g id="Finals" stroke="none" stroke-width="1" fill="none" fill-rule="evenodd">
        <g id="Services-4" transform="translate(-543.000000, -1609.000000)" fill="#FFFFFF">
            <g id="twilio" transform="translate(543.000000, 1609.000000)">
                <g id="Group">
                    <path d="M24.9726141,43.4186723 C14.8153527,43.4186723 6.58132779,35.1846473 6.58132779,25.0275934 C6.58132779,14.870332 14.8153527,6.63630705 24.9726141,6.63630705 C35.129668,6.63630705 43.363693,14.870332 43.363693,25.0275934 C43.363693,35.1846473 35.129668,43.4186723 24.9726141,43.4186723 L24.9726141,43.4186723 L24.9726141,43.4186723 Z M24.9726141,0.0549792531 C11.1807054,0.0549792531 0,11.2356846 0,25.0275934 C0,38.8195021 11.1807054,50 24.9726141,50 C38.7645229,50 49.9450207,38.8195021 49.9450207,25.0275934 C49.9450207,11.2356846 38.7645229,0.0549792531 24.9726141,0.0549792531 L24.9726141,0.0549792531 L24.9726141,0.0549792531 Z" id="Shape"></path>
                    <path d="M25.9991701,18.8080913 C25.9991701,15.9404564 28.3240664,13.6155602 31.1917012,13.6155602 C34.0595436,13.6155602 36.3842324,15.9404564 36.3842324,18.8080913 C36.3842324,21.6759336 34.0595436,24.0006225 31.1917012,24.0006225 C28.3240664,24.0006225 25.9991701,21.6759336 25.9991701,18.8080913" id="Shape"></path>
                    <path d="M25.9991701,31.2466805 C25.9991701,28.3790457 28.3240664,26.0541494 31.1917012,26.0541494 C34.0595436,26.0541494 36.3842324,28.3790457 36.3842324,31.2466805 C36.3842324,34.1145229 34.0595436,36.4392115 31.1917012,36.4392115 C28.3240664,36.4392115 25.9991701,34.1145229 25.9991701,31.2466805" id="Shape"></path>
                    <path d="M13.5607884,31.2466805 C13.5607884,28.3790457 15.8856846,26.0541494 18.7533195,26.0541494 C21.6211619,26.0541494 23.9458506,28.3790457 23.9458506,31.2466805 C23.9458506,34.1145229 21.6211619,36.4392115 18.7533195,36.4392115 C15.8856846,36.4392115 13.5607884,34.1145229 13.5607884,31.2466805" id="Shape"></path>
                    <path d="M13.5607884,18.8082987 C13.5607884,15.9404564 15.8856846,13.6157676 18.7533195,13.6157676 C21.6211619,13.6157676 23.9458506,15.9404564 23.9458506,18.8082987 C23.9458506,21.676141 21.6211619,24.0008299 18.7533195,24.0008299 C15.8856846,24.0008299 13.5607884,21.676141 13.5607884,18.8082987" id="Shape"></path>
                </g>
            </g>
        </g>
    </g>
</svg>