<?xml version="1.0" encoding="UTF-8" standalone="no"?>
<svg width="740px" height="195px" viewBox="0 0 740 195" version="1.1" xmlns="http://www.w3.org/2000/svg" xmlns:xlink="http://www.w3.org/1999/xlink">
    <!-- Generator: sketchtool 42 (36781) - http://www.bohemiancoding.com/sketch -->
    <title>11332910-20A2-420F-956A-9ED6A47C8044</title>
    <desc>Created with sketchtool.</desc>
    <defs>
        <path d="M138.689835,186.686126 C126.851784,192.212655 113.276036,194.865388 97.8539871,194.865388 C83.8438158,194.865388 70.9197043,192.544246 58.9730466,187.791432 C47.1349949,183.038618 36.8174269,176.406784 28.0203426,167.7854 C19.3318643,159.164015 12.4896876,148.884673 7.49381255,136.836841 C2.49793752,124.789009 -1.42108547e-14,111.635872 -1.42108547e-14,97.1563678 C-1.42108547e-14,82.3452719 2.49793752,68.9710734 7.60241853,56.9232416 C12.5982936,44.8754099 19.6576822,34.7065978 28.5633725,26.1957442 C37.4690628,17.7954212 47.8952368,11.2741178 59.8418944,6.74236454 C71.7885521,2.21061133 84.7126636,0 98.614229,0 C111.429734,0 124.028028,2.32114189 136.40911,6.96342568 C148.790191,11.6057095 158.890547,18.348074 166.601572,27.1905193 L136.843534,57.4758945 C132.716506,51.728305 127.394813,47.4176129 120.661243,44.6543488 C114.036278,41.8910846 107.194101,40.4541873 100.134713,40.4541873 C92.4236882,40.4541873 85.3642995,41.8910846 78.9565468,44.7648793 C72.548794,47.6386741 67.0098891,51.6177745 62.4484379,56.5916499 C57.7783808,61.676056 54.1943835,67.6447066 51.696446,74.4976017 C49.0899025,81.3504968 47.8952368,88.8665753 47.8952368,97.0458372 C47.8952368,105.44616 49.1985085,113.072769 51.696446,120.036195 C54.3029895,126.999621 57.7783808,132.968271 62.339832,137.942147 C66.9012831,142.916022 72.331582,146.784592 78.6307288,149.547856 C84.9298756,152.31112 91.8806583,153.748018 99.3744708,153.748018 C108.062949,153.748018 115.665368,151.979529 122.181726,148.553081 C128.698085,145.126634 133.911172,140.59488 137.820987,134.957821 L168.339267,164.248422 C160.411031,173.864581 150.527887,181.270129 138.689835,186.686126 L138.689835,186.686126 Z" id="path-1"></path>
        <linearGradient x1="10.687859%" y1="80.3698297%" x2="78.8368418%" y2="8.30573479%" id="linearGradient-3">
            <stop stop-color="#F254CE" offset="0%"></stop>
            <stop stop-color="#F54747" offset="100%"></stop>
        </linearGradient>
        <path d="M82.8352388,39.5985391 C80.9889371,39.0458863 79.1426355,38.7142946 77.2963338,38.603764 C75.4500322,38.3827029 73.7123365,38.3827029 72.0832468,38.3827029 C66.4357359,38.3827029 61.6570728,39.377478 57.8558636,41.4775587 C54.0546543,43.5776395 50.9050809,46.1198425 48.6243554,48.9936373 C46.3436298,51.9779625 44.6059341,55.183349 43.6284803,58.6097965 C42.6510265,62.0362441 42.1079966,65.1310999 42.1079966,67.673303 L42.1079966,134.323234 L0.0774827333,134.323234 L0.0774827333,4.56034961 L40.5875129,4.56034961 L40.5875129,23.3505459 L41.1305428,23.3505459 C44.3887222,16.7187119 48.9501733,11.3027142 55.0321081,7.10255263 C61.005437,2.90239111 67.9562196,0.802310354 75.7758501,0.802310354 C77.5135458,0.802310354 79.1426355,0.91284092 80.7717252,1.02337149 C82.4008148,1.24443262 83.7040866,1.46549375 84.7901464,1.79708545 L82.8352388,39.5985391 L82.8352388,39.5985391 Z" id="path-4"></path>
        <path d="M133.943617,70.98922 L133.943617,76.1841566 C133.943617,77.9526456 133.835011,79.6106041 133.726405,81.158032 L41.0855052,81.158032 C41.4113231,84.8055407 42.4973829,88.1214577 44.3436846,91.105783 C46.1899862,94.0901083 48.4707118,96.6323113 51.2944672,98.8429227 C54.1182227,101.053534 57.2677961,102.711492 60.7431874,103.927329 C64.2185787,105.143165 67.911182,105.806348 71.6037853,105.806348 C78.22875,105.806348 83.8762609,104.590512 88.546318,102.048309 C93.2163751,99.5061061 96.9089784,96.3007196 99.8413399,92.2110887 L129.056348,111.001285 C123.083019,119.84373 115.154783,126.696625 105.271639,131.44944 C95.3884947,136.202254 83.9848669,138.633927 71.0607554,138.633927 C61.5034293,138.633927 52.380527,137.086499 43.9092607,134.102173 C35.3293883,131.007317 27.8355758,126.586095 21.427823,120.838505 C15.0200702,114.980385 9.91558923,107.795899 6.33159192,99.2850449 C2.63898863,90.7741913 0.792686987,81.0475015 0.792686987,69.9944449 C0.792686987,59.3835105 2.63898863,49.7673512 6.22298594,41.1459671 C9.80698325,32.5245829 14.6942523,25.2295655 20.8847931,19.2609149 C27.0753339,13.2922643 34.3519345,8.64998056 42.7145949,5.33406357 C51.0772553,2.01814658 60.2001575,0.360188089 69.8660897,0.360188089 C79.3148098,0.360188089 87.8946822,2.01814658 95.8229186,5.22353301 C103.642549,8.42891943 110.484726,13.0712032 116.132237,19.1503844 C121.779748,25.2295655 126.123987,32.6351134 129.382166,41.3670282 C132.314528,49.8778818 133.943617,59.8256328 133.943617,70.98922 L133.943617,70.98922 Z M95.1712828,54.5201656 C95.1712828,47.777801 93.1077692,41.919681 88.872136,37.0563361 C84.6365028,32.1929912 78.445962,29.7613187 69.9746956,29.7613187 C65.8476684,29.7613187 62.1550651,30.4245021 58.6796738,31.7508689 C55.2042825,33.0772357 52.271921,34.8457248 49.6653776,37.0563361 C47.0588341,39.2669474 44.9953205,42.0302116 43.4748367,45.0145369 C41.954353,48.1093927 41.0855052,51.2042486 40.8682932,54.5201656 L95.1712828,54.5201656 L95.1712828,54.5201656 Z" id="path-6"></path>
        <path d="M164.049895,134.433765 L164.049895,63.3626109 C164.049895,59.7151022 163.832683,56.1781241 163.289653,52.7516765 C162.746623,49.325229 161.877775,46.4514342 160.465897,44.0197618 C159.05402,41.5880893 157.207718,39.5985391 154.926992,38.1616418 C152.646267,36.7247444 149.605299,35.9510304 145.80409,35.9510304 C142.220093,35.9510304 139.070519,36.7247444 136.463976,38.2721723 C133.857432,39.8196003 131.576707,41.919681 129.839011,44.5724146 C127.99271,47.2251482 126.689438,50.2094735 125.82059,53.635921 C124.951742,57.0623686 124.517318,60.5993467 124.517318,64.2468554 L124.517318,134.433765 L82.4868044,134.433765 L82.4868044,60.267755 C82.4868044,52.7516765 81.0749267,46.8935565 78.1425652,42.4723338 C75.2102038,38.1616418 70.6487527,35.9510304 64.2409999,35.9510304 C57.6160352,35.9510304 52.4029482,38.603764 48.7103449,44.0197618 C45.0177416,49.4357595 43.17144,56.0675935 43.17144,63.9152637 L43.17144,134.433765 L0.815108172,134.433765 L0.815108172,4.44981904 L41.6509563,4.44981904 L41.6509563,22.4663013 L42.1939862,22.4663013 C43.7144699,19.7030372 45.6693775,16.939773 47.9501031,14.39757 C50.2308286,11.7448364 53.0545841,9.53422509 56.3127635,7.43414433 C59.5709428,5.44459414 63.1549401,3.78663564 67.1733614,2.57079941 C71.1917826,1.35496319 75.6446277,0.691779788 80.4232908,0.691779788 C89.654799,0.691779788 97.4744295,2.57079941 103.882182,6.43936924 C110.289935,10.3079391 115.28581,15.7239368 118.869807,22.9084236 C123.105441,16.1660591 128.644345,10.7500613 135.26931,6.77096093 C141.894275,2.79186055 150.039723,0.802310354 159.59705,0.802310354 C168.285528,0.802310354 175.670734,2.46026885 181.535457,5.66565527 C187.40018,8.87104169 192.178843,13.0712032 195.762841,18.1556093 C199.346838,23.2400153 201.953381,28.9876048 203.582471,35.3983776 C205.211561,41.8091504 205.971803,47.9988622 205.971803,54.0780433 L205.971803,134.544296 L164.049895,134.544296 L164.049895,134.433765 Z" id="path-8"></path>
        <path d="M6.51603336,22.1347096 C14.0098459,14.8396923 22.8069302,9.31316396 32.7986803,5.66565527 C42.7904304,2.01814658 52.9993924,0.139126956 63.4255664,0.139126956 C74.1775583,0.139126956 83.3004605,1.46549375 90.7942731,4.22875791 C98.2880856,6.8814915 104.261414,11.081653 108.931472,16.7187119 C113.601529,22.3557708 116.968314,29.5402576 119.031828,38.1616418 C121.203947,46.7830259 122.290007,56.951838 122.290007,68.8891392 L122.290007,134.433765 L83.8434904,134.433765 L83.8434904,120.617444 L83.0832486,120.617444 C79.8250692,126.033442 74.9378001,130.233603 68.3128354,133.107398 C61.6878707,136.091723 54.6284821,137.528621 46.9174576,137.528621 C41.8129765,137.528621 36.4912836,136.865437 31.0609846,135.42854 C25.6306857,133.991643 20.6348106,131.781031 16.0733595,128.686176 C11.5119084,125.59132 7.81930511,121.391158 4.88694368,116.196222 C1.95458224,111.001285 0.542704514,104.590512 0.542704514,96.8533725 C0.542704514,87.4582743 3.04064203,79.8316653 8.14512305,74.0840758 C13.1409981,68.3364864 19.6573568,63.9152637 27.6941993,60.8204079 C35.6224357,57.725552 44.528126,55.6254712 54.1940582,54.5201656 C63.9685963,53.5253905 73.4173164,52.9727376 82.6488247,52.9727376 L82.6488247,50.8726569 C82.6488247,44.461884 80.4767051,39.7090697 76.0238599,36.6142138 C71.5710148,33.519358 66.1407158,32.0824606 59.6243571,32.0824606 C62.7739305,32.0824606 47.8949114,33.4088274 42.3560064,35.9510304 C36.8171015,38.603764 32.0384384,41.6986199 28.1286232,45.3461286 L6.51603336,22.1347096 L6.51603336,22.1347096 Z M83.7348845,77.7315845 L78.3045855,77.7315845 C73.6345284,77.7315845 69.0730773,77.9526456 64.2944142,78.3947679 C59.6243571,78.8368902 55.3887239,79.6106041 51.6961206,80.8264404 C48.0035174,82.0422766 44.9625499,83.8107656 42.5732184,86.1319075 C40.1838869,88.4530494 38.9892211,91.5479053 38.9892211,95.4164751 C38.9892211,97.8481476 39.532251,99.9482283 40.6183108,101.716717 C41.7043706,103.485206 43.1162483,104.811573 44.853944,105.916879 C46.5916396,106.911654 48.5465472,107.685368 50.7186668,108.12749 C52.8907864,108.569612 55.062906,108.790674 57.1264196,108.790674 C65.7062919,108.790674 72.2226507,106.359001 76.7841018,101.606187 C81.3455529,96.8533725 83.6262785,90.3320691 83.6262785,82.1528071 L83.6262785,77.7315845 L83.7348845,77.7315845 Z" id="path-10"></path>
    </defs>
    <g id="v1" stroke="none" stroke-width="1" fill="none" fill-rule="evenodd">
        <g id="What-we-do" transform="translate(-127.000000, -204.000000)">
            <g id="Crema-Gradient" transform="translate(127.000000, 204.000000)">
                <g id="Rectangle-4">
                    <mask id="mask-2" fill="white">
                        <use xlink:href="#path-1"></use>
                    </mask>
                    <use id="Mask" fill="#000000" xlink:href="#path-1"></use>
                    <rect fill="url(#linearGradient-3)" mask="url(#mask-2)" x="-20.2868318" y="-17.6407233" width="779.719971" height="229.329403"></rect>
                </g>
                <g id="Rectangle-4" transform="translate(176.407233, 55.568278)">
                    <mask id="mask-5" fill="white">
                        <use xlink:href="#path-4"></use>
                    </mask>
                    <use id="Mask" fill="#000000" xlink:href="#path-4"></use>
                    <rect fill="url(#linearGradient-3)" mask="url(#mask-5)" x="-196.694065" y="-73.2090018" width="779.719971" height="229.329403"></rect>
                </g>
                <g id="Rectangle-4" transform="translate(259.318633, 55.568278)">
                    <mask id="mask-7" fill="white">
                        <use xlink:href="#path-6"></use>
                    </mask>
                    <use id="Mask" fill="#000000" xlink:href="#path-6"></use>
                    <rect fill="url(#linearGradient-3)" mask="url(#mask-7)" x="-279.605465" y="-73.2090018" width="779.719971" height="229.329403"></rect>
                </g>
                <g id="Rectangle-4" transform="translate(403.090528, 55.568278)">
                    <mask id="mask-9" fill="white">
                        <use xlink:href="#path-8"></use>
                    </mask>
                    <use id="Mask" fill="#000000" xlink:href="#path-8"></use>
                    <rect fill="url(#linearGradient-3)" mask="url(#mask-9)" x="-423.37736" y="-73.2090018" width="779.719971" height="229.329403"></rect>
                </g>
                <g id="Rectangle-4" transform="translate(617.425316, 55.568278)">
                    <mask id="mask-11" fill="white">
                        <use xlink:href="#path-10"></use>
                    </mask>
                    <use id="Mask" fill="#000000" xlink:href="#path-10"></use>
                    <rect fill="url(#linearGradient-3)" mask="url(#mask-11)" x="-637.712148" y="-73.2090018" width="779.719971" height="229.329403"></rect>
                </g>
            </g>
        </g>
    </g>
</svg>