<?xml version="1.0" encoding="UTF-8" standalone="no"?>
<svg width="37px" height="50px" viewBox="0 0 37 50" version="1.1" xmlns="http://www.w3.org/2000/svg" xmlns:xlink="http://www.w3.org/1999/xlink">
    <!-- Generator: sketchtool 39.1 (31720) - http://www.bohemiancoding.com/sketch -->
    <title>C51551FA-0828-407E-A34E-415BA05386B1</title>
    <desc>Created with sketchtool.</desc>
    <defs></defs>
    <g id="Finals" stroke="none" stroke-width="1" fill="none" fill-rule="evenodd">
        <g id="Services-4" transform="translate(-914.000000, -1752.000000)">
            <g id="firebase-seeklogo.com" transform="translate(914.000000, 1752.000000)">
                <g id="Group">
                    <path d="M0,40.3130513 L0.30235149,39.8896866 L14.6050375,12.750987 L14.6352454,12.4636941 L8.33031425,0.62082295 C7.8020836,-0.371231024 6.3150005,-0.12040538 6.14164506,0.990121756 L0,40.3130513 L0,40.3130513 Z" id="Shape"></path>
                    <g transform="translate(0.142450, 0.142450)" id="path-1-link">
                        <g>
                            <path d="M0.036002047,39.8478121 L0.264721557,39.4018316 L14.4175466,12.5474864 L8.1283941,0.656439217 C7.60569816,-0.325220197 6.27836531,-0.074975157 6.10682625,1.02391608 L0.036002047,39.8478121 L0.036002047,39.8478121 Z" id="path-1"></path>
                        </g>
                        <g fill="#FFFFFF">
                            <path d="M0.036002047,39.8478121 L0.264721557,39.4018316 L14.4175466,12.5474864 L8.1283941,0.656439217 C7.60569816,-0.325220197 6.27836531,-0.074975157 6.10682625,1.02391608 L0.036002047,39.8478121 L0.036002047,39.8478121 Z" id="path-1"></path>
                        </g>
                    </g>
                    <path d="M19.2314779,21.4217527 L23.9259543,16.6138833 L19.2301172,7.64947456 C18.784346,6.80093095 17.5397175,6.79848164 17.0986635,7.64947453 L14.5898882,12.4342001 L14.5898882,12.8417015 L19.2314779,21.4217527 L19.2314779,21.4217527 Z" id="Shape"></path>
                    <g transform="translate(14.529915, 7.122507)" id="path-3-link">
                        <g>
                            <path d="M4.61782094,14.0988939 L9.18172678,9.424749 L4.61782108,0.734285954 C4.18444843,-0.0906565385 3.13161125,-0.17708886 2.7028245,0.650234801 L0.180733618,5.50909254 L0.105330912,5.75748537 L4.61782094,14.0988939 L4.61782094,14.0988939 Z" id="path-3"></path>
                        </g>
                        <g fill="#FFFFFF">
                            <path d="M4.61782094,14.0988939 L9.18172678,9.424749 L4.61782108,0.734285954 C4.18444843,-0.0906565385 3.13161125,-0.17708886 2.7028245,0.650234801 L0.180733618,5.50909254 L0.105330912,5.75748537 L4.61782094,14.0988939 L4.61782094,14.0988939 Z" id="path-3"></path>
                        </g>
                    </g>
                    <polygon id="Shape" fill="#FFFFFF" points="0 40.3130513 0.137050879 40.1752701 0.63500163 39.9728718 18.9366557 21.7392536 19.1685221 21.108062 14.603009 12.4080995"></polygon>
                    <path d="M19.8178021,49.5087276 L36.3811846,40.2711775 L31.651239,11.1409312 C31.5032836,10.2295225 30.3851365,9.8692044 29.7328083,10.5227118 L3.62858082e-05,40.3130876 L16.4684407,49.5079111 C17.5092084,50.0890283 18.7767624,50.0893006 19.8178021,49.5087276" id="Shape"></path>
                    <path d="M36.2327755,40.193709 L31.5387375,11.2846064 C31.3919053,10.3801166 30.4620786,10.0058341 29.8147027,10.6543803 L0.183682781,40.2565221 L16.4712001,49.3603217 C17.5040667,49.9370272 18.761998,49.9372973 19.7951348,49.3611319 L36.2327755,40.193709 L36.2327755,40.193709 Z" id="Shape" fill="#FFFFFF"></path>
                    <path d="M19.817793,49.236584 C18.7767533,49.817157 17.5091993,49.8168848 16.4684316,49.2357677 L0.13267061,40.173013 L2.72143552e-05,40.3130876 L16.4684316,49.5079111 C17.5091993,50.0890283 18.7767533,50.0893006 19.817793,49.5087276 L36.3811756,40.2711775 L36.3406262,40.0216218 L19.817793,49.236584 L19.817793,49.236584 Z" id="Shape"></path>
                </g>
            </g>
        </g>
    </g>
</svg>