<?xml version="1.0" encoding="UTF-8" standalone="no"?>
<svg width="52px" height="50px" viewBox="0 0 52 50" version="1.1" xmlns="http://www.w3.org/2000/svg" xmlns:xlink="http://www.w3.org/1999/xlink">
    <!-- Generator: sketchtool 39.1 (31720) - http://www.bohemiancoding.com/sketch -->
    <title>5A62F697-E1CB-43B4-A11F-1B579151F1F4</title>
    <desc>Created with sketchtool.</desc>
    <defs></defs>
    <g id="Finals" stroke="none" stroke-width="1" fill="none" fill-rule="evenodd">
        <g id="Services-4" transform="translate(-906.000000, -1609.000000)" fill="#FFFFFF">
            <g id="github-icon-1" transform="translate(906.000000, 1609.000000)">
                <g id="Group">
                    <g id="Shape">
                        <path d="M25.6034789,0 C11.4649214,0 0,11.4628014 0,25.6034789 C0,36.9157665 7.336176,46.5130432 17.5092215,49.8985466 C18.7888018,50.1355528 19.2585749,49.3431289 19.2585749,48.6668763 C19.2585749,48.0563408 19.2348318,46.0394542 19.2238083,43.9000367 C12.1008957,45.448846 10.5978764,40.8791584 10.5978764,40.8791584 C9.43319532,37.919758 7.7550711,37.1328456 7.7550711,37.1328456 C5.43206882,35.5437578 7.93017598,35.5764044 7.93017598,35.5764044 C10.5012083,35.7570211 11.8549856,38.21485 11.8549856,38.21485 C14.1385575,42.12906 17.8445919,40.9974498 19.305637,40.343244 C19.5354357,38.688439 20.1989691,37.5589484 20.9311873,36.9195821 C15.2443049,36.2721602 9.26614612,34.0767769 9.26614612,24.2662367 C9.26614612,21.4709175 10.2663217,19.1869218 11.9041677,17.3938981 C11.6383304,16.7490201 10.7619578,14.1449172 12.1521977,10.6182276 C12.1521977,10.6182276 14.3022149,9.93010329 19.1949774,13.2426816 C21.2373032,12.6753925 23.4275986,12.3909 25.6034789,12.3811484 C27.779359,12.3909 29.9713506,12.6753925 32.017492,13.2426816 C36.9043189,9.93010329 39.0513681,10.6182276 39.0513681,10.6182276 C40.445,14.1449172 39.5682034,16.7490201 39.3023661,17.3938981 C40.9440279,19.1869218 41.9374197,21.4709175 41.9374197,24.2662367 C41.9374197,34.100096 35.9478135,36.2653767 30.2465155,36.8992309 C31.1648624,37.6937751 31.9831494,39.251912 31.9831494,41.6406317 C31.9831494,45.0664137 31.9534707,47.8235743 31.9534707,48.6668763 C31.9534707,49.3482169 32.41434,50.1465765 33.7121516,49.8951546 C43.8796853,46.5058353 51.2065337,36.9119506 51.2065337,25.6034789 C51.2065337,11.4628014 39.7433084,0 25.6034789,0"></path>
                    </g>
                </g>
            </g>
        </g>
    </g>
</svg>