<?xml version="1.0" encoding="UTF-8" standalone="no"?>
<svg width="51px" height="50px" viewBox="0 0 51 50" version="1.1" xmlns="http://www.w3.org/2000/svg" xmlns:xlink="http://www.w3.org/1999/xlink">
    <!-- Generator: sketchtool 39.1 (31720) - http://www.bohemiancoding.com/sketch -->
    <title>B47A1C54-E1F0-4F58-B01D-A216577DA6B2</title>
    <desc>Created with sketchtool.</desc>
    <defs></defs>
    <g id="Finals" stroke="none" stroke-width="1" fill="none" fill-rule="evenodd">
        <g id="Services-4" transform="translate(-385.000000, -1609.000000)">
            <g id="SendGrid-Logomark" transform="translate(385.000000, 1609.000000)">
                <polyline id="Fill-1" fill="#8CD8FD" points="50.0585938 0.201953125 16.9074219 0.201953125 16.9074219 16.7777344 0.33203125 16.7777344 0.33203125 49.9289062 33.4832031 49.9289062 33.4832031 33.3535156 50.0585938 33.3535156 50.0585938 0.201953125"></polyline>
                <polyline id="Fill-2" fill="#A7DAE7" points="0.331640625 33.3535156 0.331640625 16.7777344 16.9074219 16.7777344 0.33203125 16.7777344 0.33203125 33.3535156"></polyline>
                <polyline id="Fill-3" fill-opacity="0.4" fill="#FFFFFF" points="33.4832031 49.9289063 16.9074219 49.9289063 16.9074219 33.3535156 0.331640625 33.3535156 0.33203125 16.7777344 16.9074219 16.7777344 16.9074219 33.3535156 33.4832031 33.3535156 33.4832031 49.9289063"></polyline>
                <polygon id="Fill-4" fill="#FFFFFF" points="0.33203125 49.9289062 16.9078125 49.9289062 16.9078125 33.3535156 0.33203125 33.3535156"></polygon>
                <path d="M50.0589844,33.3535156 L50.0589844,33.3535156 L50.0585938,16.7777344 L50.0589844,16.7777344 L50.0589844,33.3535156 M33.4832031,0.201953125 L16.9074219,0.201953125 L33.4832031,0.201953125" id="Fill-5" fill="#00B0D4"></path>
                <polyline id="Fill-6" fill-opacity="0.6" fill="#FFFFFF" points="50.0589844 33.3535156 33.4832031 33.3535156 33.4832031 16.7777344 16.9074219 16.7777344 16.9074219 0.201953125 33.4832031 0.201953125 33.4832031 16.7777344 50.0589844 16.7777344 50.0585937 33.3535156"></polyline>
                <polygon id="Fill-7" fill-opacity="0.8" fill="#FFFFFF" points="16.9099731 33.3535156 33.4857544 33.3535156 33.4857544 16.7777344 16.9099731 16.7777344"></polygon>
                <polygon id="Fill-8" fill="#FFFFFF" points="33.4832031 16.7777344 50.0585938 16.7777344 50.0585938 0.201953125 33.4832031 0.201953125"></polygon>
            </g>
        </g>
    </g>
</svg>